<svg width="587" height="406" viewBox="0 0 587 406" fill="none" xmlns="http://www.w3.org/2000/svg">
<path d="M401.261 170.487C402.073 180.656 399.853 297.373 399.065 337.23C408.137 337.846 418.569 338.663 426.528 339.284C426.213 301.837 430.825 221.932 430.825 215.362C430.825 204.381 455.571 319.498 460.737 338.648C463.074 338.154 465.369 337.481 467.603 336.634L484.194 323.79C485.002 322.67 485.774 321.473 486.51 320.2C485.359 315.034 481.511 297.793 478.317 283.914C471.632 254.947 462.203 189.938 462.986 194.278C462.986 194.278 471.623 190.936 478.317 186.214C478.317 186.214 490.635 179.405 485.55 165.755C481.706 155.423 471.58 128.848 458.813 116.473C446.046 104.097 434.091 107.879 424.871 108.323C415.652 108.767 409.473 105.105 404.77 105.854C396.606 107.158 393.445 112.333 389.631 120.522C385.816 128.71 378.086 142.632 378.086 142.632C378.086 142.632 400.278 158.202 401.261 170.487Z" fill="#9A67FF"/>
<path d="M161.076 160.121C159.811 168.949 135.724 230.449 130.744 243.77C138.861 257.482 146.624 271.524 154.091 283.398C163.163 256.002 185.273 194.115 188.382 194.645C192.201 195.299 200.084 309.834 201.077 321.699C210.912 323.967 221.674 325.915 232.378 328.016C230.803 307.404 221.063 175.409 221.999 165.397C223.021 154.506 239.115 95.9663 232.717 88.6948C226.32 81.4233 211.49 85.5436 203.483 85.4004C195.477 85.2572 190.64 80.3299 182.609 80.5543C174.579 80.7787 164.605 78.3246 159.448 96.6348C155.863 109.402 162.499 150.19 161.076 160.121Z" fill="#9A67FF"/>
<path d="M37.1308 144.022C36.6922 144.021 36.2539 143.997 35.8178 143.95C27.262 143.038 21.7427 141.563 18.94 139.491C15.3571 136.821 12.9816 132.837 12.336 128.415C11.6904 123.994 12.8277 119.497 15.4976 115.914C18.1676 112.331 22.1515 109.956 26.5729 109.31C30.9943 108.665 35.4911 109.802 39.074 112.472C41.8766 114.558 44.8559 119.433 48.179 127.368C48.9441 129.188 49.2478 131.169 49.0631 133.135C48.8783 135.101 48.211 136.991 47.1202 138.637C46.0294 140.283 44.549 141.634 42.8105 142.57C41.072 143.506 39.1292 143.998 37.1547 144.002L37.1308 144.022ZM20.931 136.822C22.497 137.987 26.4121 139.596 36.1664 140.641C37.6612 140.803 39.1724 140.572 40.5506 139.971C41.9289 139.37 43.1267 138.42 44.0257 137.215C44.9248 136.01 45.494 134.591 45.6773 133.099C45.8605 131.606 45.6515 130.092 45.0708 128.705C41.2798 119.633 38.6157 116.363 37.0496 115.193C34.175 113.178 30.628 112.362 27.1618 112.92C23.6955 113.477 20.583 115.363 18.4851 118.178C16.3872 120.993 15.4691 124.515 15.9258 127.996C16.3825 131.477 18.178 134.643 20.931 136.822Z" fill="#151E4A"/>
<path d="M64.097 109.722C62.2244 109.717 60.4068 109.089 58.931 107.937C54.4334 104.442 51.8218 101.668 50.9433 99.4523C49.9465 96.6238 50.0837 93.5193 51.3261 90.7898C52.5684 88.0604 54.8194 85.918 57.6069 84.812C60.3944 83.706 63.5019 83.7223 66.2777 84.8576C69.0534 85.9928 71.2817 88.1588 72.4953 90.9012C73.369 93.1165 73.369 96.9313 72.4953 102.556C72.2769 104.017 71.6761 105.395 70.7539 106.55C69.8316 107.704 68.6205 108.594 67.2434 109.13C66.2416 109.525 65.1738 109.726 64.097 109.722ZM61.7097 86.9145C60.3619 86.9145 59.0345 87.2444 57.8435 87.8754C56.6525 88.5063 55.6339 89.4191 54.8767 90.5342C54.1195 91.6492 53.6467 92.9326 53.4996 94.2724C53.3524 95.6122 53.5353 96.9676 54.0324 98.2205C54.3952 99.1324 55.7751 101.267 60.9649 105.296C61.6711 105.839 62.5061 106.189 63.3883 106.313C64.2704 106.436 65.1695 106.328 65.9975 106C66.8256 105.672 67.5544 105.135 68.1125 104.441C68.6706 103.746 69.0391 102.919 69.1818 102.04C70.1988 95.5468 69.7452 93.0497 69.3823 92.133C68.7704 90.5967 67.7127 89.2787 66.3453 88.3486C64.9779 87.4186 63.3634 86.9191 61.7097 86.9145Z" fill="#151E4A"/>
<path d="M341.494 217.511C338.214 197.835 342.335 165.469 342.335 165.469C342.335 165.469 294.986 150.348 273.883 163.082C273.883 163.082 279.044 183.407 277.827 196.981C276.609 210.555 258.223 309.778 258.223 309.778L339.212 350.805L360.468 341.533C360.468 341.533 344.774 237.196 341.494 217.511ZM309.061 308.565C305.609 306.966 302.425 304.745 300.147 301.652C294.685 294.251 295.564 284.234 296.715 275.659C297.865 267.084 299.383 258.471 301.245 249.954C303.991 248.97 306.096 252.446 306.975 255.205L320.768 300.033C322.043 304.182 323.781 308.45 324.621 312.695C319.527 312.523 313.664 310.704 309.061 308.575V308.565Z" fill="#FF7E5B"/>
<path d="M315.33 169.766C315.33 169.766 298.328 177.238 308.603 184.82C318.877 192.401 330.909 179.482 330.909 179.482C330.909 179.482 355.889 191.313 359.99 184.82C364.092 178.326 362.344 170.763 354.629 145.669C346.913 120.574 336.82 121.901 325.533 119.486C314.246 117.07 311.687 125.75 298.7 128.333C285.714 130.916 283.685 121.481 283.685 121.481C283.685 121.481 271.92 121.075 267.451 134.85C262.982 148.624 262.882 161.362 252.775 173.523C242.667 185.684 235.529 189.183 234.207 199.606C232.884 210.029 233.023 217.128 238.742 220.661C244.462 224.195 251.977 226.42 254.766 218.914C257.554 211.409 251.256 203.206 251.256 203.206C251.256 203.206 263.278 196.006 268.674 189.097C274.069 182.189 278.562 167.736 278.562 167.736" fill="#FF7E5B"/>
<path d="M325.715 171.928C313.256 168.367 300.021 168.579 287.684 172.54C275.346 176.5 264.46 184.03 256.402 194.178C248.344 204.325 243.475 216.634 242.413 229.548C241.351 242.462 244.141 255.402 250.433 266.73C256.724 278.057 266.233 287.265 277.758 293.189C289.282 299.113 302.304 301.486 315.178 300.008C328.051 298.531 340.197 293.269 350.08 284.889C359.963 276.509 367.139 265.386 370.7 252.927C375.476 236.221 373.419 218.301 364.983 203.111C356.547 187.921 342.421 176.704 325.715 171.928ZM291.854 290.388C280.885 287.253 271.092 280.935 263.713 272.235C256.334 263.534 251.7 252.841 250.398 241.507C249.096 230.173 251.184 218.708 256.398 208.561C261.611 198.413 269.717 190.04 279.689 184.499C289.662 178.958 301.053 176.498 312.423 177.431C323.793 178.364 334.632 182.647 343.568 189.739C352.504 196.832 359.136 206.414 362.626 217.276C366.116 228.137 366.307 239.789 363.175 250.759C361.095 258.045 357.601 264.85 352.89 270.784C348.18 276.719 342.347 281.668 335.724 285.348C329.101 289.028 321.818 291.367 314.29 292.232C306.763 293.096 299.139 292.47 291.854 290.388Z" fill="#151E4A"/>
<path d="M308.899 222.452C306.434 222.217 303.955 222.718 301.775 223.892C299.595 225.065 297.812 226.859 296.651 229.046C295.49 231.232 295.003 233.714 295.251 236.177C295.5 238.641 296.474 240.975 298.048 242.885C299.623 244.796 301.729 246.196 304.1 246.91C306.471 247.624 309 247.62 311.368 246.897C313.736 246.174 315.836 244.765 317.404 242.849C318.972 240.933 319.937 238.595 320.176 236.131C320.335 234.492 320.169 232.838 319.688 231.263C319.207 229.689 318.42 228.224 317.373 226.954C316.326 225.683 315.038 224.632 313.584 223.859C312.13 223.087 310.538 222.609 308.899 222.452ZM307.056 241.779C305.699 241.651 304.411 241.124 303.354 240.263C302.297 239.403 301.519 238.248 301.118 236.946C300.717 235.643 300.712 234.251 301.102 232.945C301.493 231.64 302.262 230.479 303.312 229.611C304.362 228.742 305.647 228.205 307.002 228.066C308.358 227.927 309.725 228.194 310.929 228.832C312.133 229.471 313.121 230.452 313.768 231.651C314.414 232.851 314.69 234.215 314.561 235.572C314.388 237.39 313.501 239.065 312.093 240.229C310.686 241.393 308.874 241.951 307.056 241.779Z" fill="#151E4A"/>
<path d="M282.68 163.936L282.676 163.938C280.608 164.654 279.512 166.912 280.229 168.98L282.609 175.851C283.326 177.919 285.583 179.014 287.651 178.298L287.655 178.296C289.723 177.58 290.819 175.322 290.102 173.254L287.722 166.384C287.005 164.316 284.748 163.22 282.68 163.936Z" fill="#151E4A"/>
<path d="M304.535 226.997C304.191 226.996 303.856 226.89 303.575 226.692C303.294 226.493 303.08 226.213 302.964 225.889L283.58 171.708C283.447 171.295 283.481 170.847 283.673 170.457C283.865 170.068 284.201 169.769 284.61 169.623C285.019 169.478 285.468 169.497 285.863 169.676C286.258 169.856 286.568 170.182 286.726 170.586L306.097 224.762C306.185 225.015 306.211 225.285 306.174 225.549C306.137 225.814 306.037 226.066 305.883 226.285C305.729 226.503 305.525 226.682 305.288 226.806C305.051 226.93 304.788 226.995 304.521 226.997H304.535Z" fill="#151E4A"/>
<path d="M233.563 222.059L233.563 222.063C233.147 224.208 234.548 226.284 236.693 226.7L243.819 228.081C245.964 228.497 248.04 227.096 248.456 224.951L248.457 224.946C248.872 222.801 247.471 220.725 245.326 220.31L238.2 218.928C236.055 218.512 233.979 219.914 233.563 222.059Z" fill="#151E4A"/>
<path d="M298.09 234.422C297.989 234.421 297.888 234.412 297.789 234.393L241.188 224.08C240.751 224.001 240.365 223.752 240.112 223.387C239.86 223.023 239.762 222.573 239.841 222.137C239.92 221.701 240.17 221.314 240.534 221.061C240.899 220.809 241.348 220.711 241.785 220.791L298.391 231.103C298.805 231.174 299.178 231.398 299.434 231.732C299.691 232.065 299.812 232.483 299.774 232.902C299.736 233.32 299.542 233.71 299.23 233.991C298.917 234.273 298.51 234.427 298.09 234.422Z" fill="#151E4A"/>
<path d="M259.054 291.633L259.058 291.636C260.712 293.069 263.215 292.889 264.648 291.234L269.408 285.737C270.84 284.083 270.661 281.58 269.006 280.147L269.003 280.144C267.348 278.712 264.845 278.891 263.413 280.546L258.653 286.043C257.22 287.697 257.4 290.2 259.054 291.633Z" fill="#151E4A"/>
<path d="M264.067 287.566C263.748 287.566 263.436 287.475 263.168 287.303C262.9 287.132 262.686 286.887 262.552 286.598C262.418 286.309 262.369 285.988 262.412 285.672C262.454 285.356 262.586 285.059 262.792 284.816L300.033 240.953C300.32 240.615 300.729 240.405 301.171 240.368C301.613 240.332 302.051 240.473 302.389 240.76C302.727 241.047 302.938 241.456 302.974 241.898C303.01 242.34 302.869 242.778 302.583 243.116L265.342 286.979C265.184 287.163 264.989 287.311 264.769 287.413C264.549 287.514 264.309 287.566 264.067 287.566Z" fill="#151E4A"/>
<path d="M332.786 305.289L332.79 305.287C334.858 304.571 335.954 302.313 335.237 300.245L332.857 293.374C332.14 291.306 329.883 290.211 327.815 290.927L327.81 290.929C325.742 291.645 324.647 293.903 325.363 295.971L327.744 302.842C328.46 304.91 330.718 306.005 332.786 305.289Z" fill="#151E4A"/>
<path d="M330.317 299.741C329.973 299.74 329.638 299.634 329.357 299.436C329.076 299.237 328.862 298.957 328.747 298.633L309.376 244.452C309.295 244.244 309.255 244.021 309.261 243.797C309.267 243.574 309.318 243.353 309.411 243.149C309.504 242.946 309.636 242.763 309.801 242.611C309.966 242.46 310.16 242.343 310.371 242.267C310.581 242.192 310.805 242.16 311.029 242.173C311.252 242.186 311.471 242.244 311.672 242.343C311.873 242.442 312.051 242.581 312.198 242.75C312.344 242.92 312.454 243.117 312.523 243.33L331.893 297.506C332.042 297.924 332.019 298.384 331.829 298.785C331.639 299.186 331.298 299.495 330.881 299.645C330.699 299.707 330.509 299.739 330.317 299.741Z" fill="#151E4A"/>
<path d="M381.469 248.254L381.47 248.249C381.884 246.1 380.476 244.022 378.327 243.609L371.187 242.235C369.038 241.822 366.96 243.229 366.547 245.378L366.546 245.382C366.132 247.532 367.539 249.609 369.688 250.023L376.829 251.396C378.978 251.81 381.056 250.403 381.469 248.254Z" fill="#151E4A"/>
<path d="M373.989 248.453C373.888 248.453 373.788 248.444 373.688 248.425L317.082 238.112C316.866 238.073 316.66 237.991 316.476 237.872C316.291 237.754 316.132 237.6 316.007 237.419C315.882 237.239 315.793 237.035 315.747 236.821C315.7 236.606 315.697 236.385 315.736 236.169C315.775 235.953 315.856 235.746 315.975 235.562C316.094 235.377 316.248 235.218 316.429 235.093C316.609 234.968 316.812 234.88 317.027 234.833C317.241 234.787 317.463 234.783 317.679 234.822L374.285 245.14C374.694 245.216 375.059 245.442 375.31 245.773C375.56 246.105 375.679 246.517 375.642 246.931C375.605 247.345 375.415 247.73 375.11 248.011C374.804 248.293 374.405 248.45 373.989 248.453Z" fill="#151E4A"/>
<path d="M356.415 177.569L356.412 177.566C354.757 176.133 352.255 176.313 350.822 177.967L346.062 183.464C344.629 185.119 344.809 187.622 346.464 189.054L346.467 189.057C348.122 190.49 350.624 190.31 352.057 188.656L356.817 183.159C358.25 181.504 358.07 179.002 356.415 177.569Z" fill="#151E4A"/>
<path d="M314.17 228.855C313.851 228.856 313.538 228.766 313.268 228.595C312.998 228.424 312.783 228.179 312.649 227.889C312.515 227.599 312.467 227.277 312.51 226.961C312.554 226.644 312.688 226.347 312.895 226.104L350.136 182.241C350.275 182.065 350.448 181.918 350.645 181.81C350.842 181.702 351.059 181.634 351.283 181.612C351.507 181.589 351.732 181.612 351.947 181.679C352.162 181.746 352.361 181.856 352.532 182.001C352.703 182.147 352.843 182.325 352.944 182.526C353.044 182.727 353.104 182.947 353.117 183.171C353.131 183.395 353.1 183.62 353.025 183.832C352.95 184.044 352.833 184.239 352.681 184.404L315.44 228.267C315.283 228.451 315.088 228.598 314.869 228.699C314.65 228.801 314.412 228.854 314.17 228.855Z" fill="#151E4A"/>
<path d="M234.904 215.834C234.904 215.834 242.639 236.116 253.525 221.96C258.858 215.032 249.447 199.606 249.447 199.606" fill="#FF7E5B"/>
<path d="M324.225 159.668C324.225 159.668 303.298 165.445 316.357 177.634C322.745 183.598 338.997 175.696 338.997 175.696" fill="#FF7E5B"/>
<path d="M278.276 81.2992C278.476 80.4608 278.597 79.6057 278.639 78.7448C278.73 77.704 278.815 76.6584 278.954 75.6223L278.892 76.0663C279.021 75.1023 279.203 74.146 279.436 73.2016C279.565 72.6764 279.718 72.156 279.89 71.6452C279.976 71.3921 280.066 71.1438 280.162 70.8908C280.205 70.7762 280.253 70.6616 280.3 70.547C280.348 70.4324 280.472 70.1651 280.243 70.6712C280.276 70.6043 280.305 70.5375 280.334 70.4659C280.811 69.3866 281.403 68.362 282.1 67.4102L282.248 67.2097C282.439 66.9518 281.986 67.5343 282.191 67.2813C282.277 67.1762 282.368 67.0616 282.458 66.9566C282.678 66.6892 282.907 66.4314 283.146 66.1831C283.597 65.7023 284.075 65.2479 284.578 64.8224L284.798 64.6458L284.951 64.5264C284.75 64.6792 284.698 64.7174 284.803 64.641C284.908 64.5646 285.089 64.4214 285.237 64.3211C285.491 64.1547 285.755 64.0063 286.03 63.8771L286.24 63.7816C285.719 64.0299 286.068 63.858 286.197 63.8102C286.326 63.7625 286.488 63.71 286.631 63.667C286.944 63.5776 287.264 63.5105 287.586 63.4665L287.142 63.5238C287.659 63.4545 288.182 63.4545 288.699 63.5238L288.255 63.4617C288.479 63.4929 288.701 63.5408 288.918 63.6049L289.219 63.7004C289.291 63.7291 289.506 63.815 289.219 63.7004C288.933 63.5858 289.119 63.6574 289.181 63.7004C289.361 63.8256 289.549 63.9388 289.744 64.0394C289.744 64.0394 289.377 63.7338 289.596 63.9248L289.701 64.0203C289.787 64.0983 289.868 64.1812 289.945 64.2686L290.04 64.3736C290.164 64.5169 289.787 64.0203 289.93 64.2399C289.988 64.3306 290.05 64.4214 290.102 64.5169C290.155 64.6123 290.203 64.7031 290.25 64.7986C290.374 65.0516 290.121 64.4643 290.179 64.6267C290.179 64.684 290.222 64.7365 290.241 64.7938C290.387 65.2279 290.487 65.6759 290.542 66.1306L290.484 65.6866C290.642 66.9137 290.58 68.1598 290.737 69.3868C290.817 70.1807 291.025 70.9564 291.353 71.6834C291.691 72.3489 292.194 72.9162 292.814 73.3306C294.418 74.4573 296.634 74.104 298.152 73.0584C298.945 72.5107 299.639 71.8327 300.205 71.0531C300.683 70.4133 301.108 69.721 301.552 69.0526C301.676 68.8664 301.805 68.685 301.933 68.5035C302.005 68.4033 302.23 68.1837 301.905 68.537C301.991 68.4415 302.062 68.3364 302.144 68.2409C302.225 68.1455 302.44 67.9115 302.597 67.7635L302.807 67.5678L302.955 67.4436C302.736 67.6107 302.693 67.6394 302.831 67.5391C302.97 67.4388 303.184 67.3004 303.371 67.1953L303.614 67.0712L303.781 66.9948C303.523 67.0999 303.476 67.1237 303.638 67.0569C304.039 66.9111 304.453 66.8056 304.875 66.7418L304.431 66.7991C304.914 66.7394 305.403 66.7394 305.887 66.7991L305.443 66.737C305.715 66.7755 305.985 66.8329 306.25 66.9089C306.34 66.9375 306.612 66.9805 306.679 67.0569C306.679 67.0569 306.321 66.8898 306.527 66.9948L306.722 67.0903C306.953 67.2158 307.176 67.3545 307.391 67.5057C307.558 67.6203 307.08 67.2526 307.295 67.4341L307.424 67.5439C307.534 67.6394 307.639 67.7396 307.744 67.8447C307.849 67.9497 307.921 68.0357 308.007 68.1407C308.093 68.2457 308.179 68.3556 308.007 68.1407C307.835 67.9258 308.007 68.1407 308.031 68.1789C308.182 68.3947 308.318 68.6213 308.436 68.8569C308.47 68.9189 308.498 68.9858 308.532 69.0526C308.618 69.2197 308.369 68.6325 308.484 68.9333C308.532 69.0574 308.575 69.1768 308.613 69.3057C308.695 69.5692 308.756 69.8391 308.794 70.1126L308.737 69.6685C308.81 70.3329 308.794 71.0041 308.689 71.6643L308.747 71.2202C308.537 72.7194 308.169 74.2854 308.632 75.7751C308.823 76.4875 309.184 77.1433 309.682 77.6869C310.181 78.2304 310.803 78.6457 311.497 78.8976C313.12 79.418 314.648 78.5061 315.727 77.3602C316.566 76.41 317.467 75.5168 318.425 74.6865C318.48 74.649 318.533 74.6075 318.582 74.5624L318.482 74.6388L318.563 74.5815C318.721 74.4621 318.888 74.3523 319.04 74.2425C319.317 74.0669 319.604 73.9075 319.9 73.765L320.129 73.66C320.306 73.5741 319.728 73.8176 320.062 73.6886C320.21 73.6313 320.358 73.5836 320.506 73.5359C320.81 73.4481 321.12 73.3811 321.432 73.3353L320.988 73.3974C321.499 73.3329 322.015 73.3329 322.526 73.3974L322.082 73.3401C322.304 73.3692 322.524 73.4123 322.741 73.469C322.846 73.4977 322.956 73.5311 323.061 73.5693C323.471 73.7125 322.788 73.426 323.061 73.5693C323.26 73.6652 323.453 73.7737 323.638 73.8939C323.992 74.1374 323.419 73.6934 323.638 73.8939L323.853 74.0945C323.925 74.1661 323.992 74.2472 324.063 74.3236L323.972 74.209L324.082 74.3618C324.149 74.4669 324.211 74.5767 324.269 74.6865C324.326 74.7963 324.436 75.1878 324.297 74.7104C324.461 75.1888 324.588 75.6787 324.679 76.1761L324.622 75.7321C324.727 76.6129 324.717 77.5036 324.593 78.3819L324.655 77.9379C324.584 78.4382 324.483 78.934 324.354 79.4228C324.292 79.6472 324.221 79.8764 324.144 80.096C324.046 80.3104 323.964 80.5323 323.901 80.7596C324.001 80.5161 324.02 80.478 323.949 80.6403C323.931 80.6877 323.91 80.7339 323.887 80.7787C323.839 80.8885 323.786 80.9936 323.739 81.0986C323.633 81.3135 323.524 81.5188 323.404 81.7241C323.154 82.1636 322.875 82.5863 322.569 82.9893C322.456 83.1812 322.383 83.3938 322.355 83.6145C322.326 83.8351 322.342 84.0593 322.402 84.2737C322.459 84.4859 322.557 84.6848 322.691 84.8587C322.826 85.0327 322.993 85.1783 323.184 85.2871C323.375 85.3959 323.586 85.4657 323.804 85.4926C324.022 85.5194 324.243 85.5027 324.455 85.4434C324.863 85.3051 325.215 85.0346 325.453 84.6747C326.669 83.0723 327.488 81.2033 327.84 79.2222C328.198 77.1263 328.207 74.825 327.133 72.9152C326.599 72.03 325.842 71.2999 324.939 70.7974C324.035 70.2949 323.015 70.0374 321.982 70.0505C319.862 70.0075 317.971 70.9242 316.338 72.2038C315.537 72.8205 314.783 73.4973 314.085 74.2282C313.731 74.6053 313.392 75.0064 313.01 75.3597C312.9 75.46 312.581 75.6462 313.01 75.4027C312.915 75.4552 312.834 75.5268 312.738 75.5793L312.576 75.67C312.418 75.7703 312.905 75.565 312.724 75.608C312.592 75.6471 312.458 75.679 312.323 75.7035L312.767 75.6462C312.608 75.6643 312.448 75.6643 312.289 75.6462L312.733 75.7035C312.609 75.7035 312.495 75.6366 312.37 75.6127C312.714 75.6748 312.686 75.7608 312.504 75.6605C312.447 75.6319 312.399 75.5937 312.342 75.565C312.175 75.4743 312.662 75.8419 312.471 75.6653L312.328 75.5316C312.281 75.4862 312.236 75.4384 312.194 75.3884C311.984 75.1783 312.418 75.7321 312.256 75.4791C312.184 75.3645 312.108 75.2547 312.041 75.1353C311.974 75.0159 311.984 75.0112 311.95 74.9491C311.855 74.7724 312.098 75.3406 312.003 75.0828C311.901 74.7996 311.827 74.5069 311.783 74.209L311.845 74.6531C311.793 74.0525 311.817 73.4476 311.917 72.8531L311.855 73.2971C312.064 72.2497 312.175 71.1853 312.189 70.1173C312.142 69.1486 311.901 68.199 311.482 67.3243C310.679 65.6534 309.248 64.3679 307.501 63.7482C306.602 63.4462 305.652 63.3257 304.706 63.3937C303.76 63.4617 302.837 63.7169 301.991 64.1445C300.32 64.9561 299.26 66.5317 298.281 68.0213C298.028 68.4128 297.775 68.8043 297.498 69.1768L297.412 69.2961C297.288 69.4632 297.632 69.024 297.498 69.1815C297.426 69.2627 297.36 69.3486 297.293 69.4298C297.15 69.5892 296.999 69.7407 296.839 69.8834C296.763 69.9598 296.677 70.0266 296.596 70.0982C296.514 70.1698 296.768 69.9598 296.753 69.9789C296.707 70.0219 296.656 70.0588 296.6 70.0887C296.413 70.2181 296.218 70.3376 296.018 70.4468C295.951 70.4802 295.803 70.5852 295.731 70.5805C295.66 70.5757 296.099 70.442 295.922 70.4945C295.865 70.4945 295.813 70.5375 295.755 70.5518C295.55 70.6187 295.339 70.6666 295.125 70.695L295.569 70.6377C295.344 70.6616 295.116 70.6616 294.891 70.6377L295.335 70.6998C295.139 70.6712 294.948 70.5805 294.757 70.5566C295.02 70.6712 295.073 70.695 294.915 70.6187L294.791 70.5518L294.619 70.4468C294.299 70.2367 294.891 70.6903 294.7 70.5136L294.562 70.3847C294.504 70.3274 294.457 70.2606 294.399 70.1985C294.762 70.5948 294.586 70.4468 294.5 70.3131C294.422 70.1916 294.352 70.0657 294.29 69.9359C294.223 69.8117 294.471 70.4133 294.352 70.0744C294.323 70.0027 294.304 69.9311 294.28 69.8595C294.189 69.5467 294.122 69.2275 294.079 68.9046L294.142 69.3486C293.803 66.737 294.285 63.8007 292.232 61.7381C290.112 59.5896 286.603 59.7853 284.115 61.1079C283.454 61.4895 282.831 61.9357 282.258 62.44C281.702 62.9029 281.176 63.4004 280.682 63.9296C279.721 64.9575 278.884 66.0953 278.19 67.3195C277.046 69.4011 276.261 71.661 275.87 74.0037C275.526 75.9804 275.449 77.9761 275.187 79.9623L275.249 79.5183C275.212 79.8229 275.153 80.1245 275.072 80.4206C274.959 80.8479 275.017 81.3025 275.235 81.6872C275.453 82.0719 275.813 82.3559 276.237 82.4784C276.665 82.5867 277.118 82.5254 277.501 82.3074C277.885 82.0894 278.169 81.7315 278.295 81.3087L278.276 81.2992Z" fill="#151E4A"/>
<path d="M286.043 103.324C286.13 104.113 286.338 104.885 286.659 105.611C287.087 106.512 287.689 107.319 288.432 107.985C289.175 108.65 290.043 109.161 290.985 109.488C293.535 110.409 296.457 109.521 298.29 107.578C298.797 107.055 299.224 106.46 299.555 105.811C299.932 105.033 300.174 104.197 300.271 103.338C300.275 102.896 300.104 102.47 299.794 102.154C299.48 101.842 299.055 101.666 298.612 101.666C298.169 101.666 297.745 101.842 297.431 102.154C297.143 102.484 296.975 102.901 296.953 103.338V103.419L297.015 102.975C296.977 103.25 296.916 103.522 296.834 103.787C296.805 103.868 296.781 103.949 296.753 104.026C296.724 104.102 296.628 104.336 296.753 104.059C296.877 103.782 296.753 104.059 296.753 104.083C296.753 104.107 296.691 104.212 296.662 104.269C296.527 104.513 296.379 104.748 296.218 104.976C296.103 105.138 296.476 104.661 296.299 104.871C296.247 104.933 296.194 105 296.137 105.062C296.079 105.124 295.95 105.267 295.85 105.362C295.75 105.458 295.645 105.553 295.54 105.644C295.435 105.735 295.282 105.849 295.511 105.673C295.74 105.496 295.511 105.673 295.483 105.673C295.254 105.834 295.015 105.979 294.766 106.107L294.542 106.217C294.337 106.317 294.68 106.145 294.714 106.15C294.564 106.181 294.42 106.233 294.284 106.303C294.005 106.388 293.719 106.452 293.43 106.494L293.874 106.432C293.432 106.492 292.984 106.492 292.542 106.432L292.986 106.494C292.713 106.453 292.443 106.392 292.179 106.313L291.94 106.231C291.873 106.231 291.63 106.107 291.907 106.231C292.183 106.356 291.907 106.231 291.878 106.231L291.692 106.136C291.442 106.009 291.203 105.864 290.975 105.701C290.737 105.53 291.061 105.73 291.081 105.787C291.021 105.729 290.955 105.676 290.885 105.63C290.78 105.539 290.679 105.444 290.579 105.348C290.479 105.253 290.383 105.148 290.293 105.043L290.154 104.885C290.025 104.732 290.398 105.214 290.24 104.99C290.076 104.765 289.928 104.529 289.796 104.283C289.729 104.164 289.672 104.035 289.615 103.911C289.863 104.427 289.615 103.949 289.591 103.806C289.506 103.526 289.442 103.24 289.4 102.951L289.462 103.395V103.309C289.448 102.872 289.279 102.454 288.985 102.13C288.829 101.971 288.644 101.844 288.439 101.758C288.234 101.671 288.013 101.626 287.791 101.626C287.568 101.626 287.348 101.671 287.143 101.758C286.938 101.844 286.753 101.971 286.597 102.13C286.441 102.284 286.318 102.467 286.236 102.67C286.154 102.873 286.115 103.091 286.12 103.309L286.043 103.324Z" fill="#151E4A"/>
<path d="M300.62 94.2001C300.425 95.312 300.582 96.4572 301.069 97.4754C301.509 98.3757 302.194 99.1336 303.046 99.6621C303.9 100.199 304.905 100.447 305.911 100.369C307.029 100.26 308.088 99.8175 308.952 99.0987C309.817 98.3942 310.417 97.4158 310.652 96.3248C310.761 95.8983 310.701 95.446 310.484 95.063C310.266 94.6801 309.909 94.3964 309.487 94.2717C308.656 94.0808 307.61 94.52 307.429 95.4367C307.393 95.6096 307.347 95.7802 307.29 95.9476C307.233 96.1195 307.486 95.5322 307.329 95.8521L307.214 96.067C307.166 96.1481 307.109 96.2245 307.061 96.3057C306.904 96.5444 307.329 96.0001 307.118 96.2245C307.009 96.3439 306.899 96.468 306.779 96.5778C306.66 96.6876 306.651 96.6828 306.588 96.7354C306.97 96.4059 306.77 96.5969 306.66 96.6685C306.55 96.7402 306.378 96.8309 306.235 96.912C305.968 97.06 306.608 96.7784 306.335 96.8738L306.102 96.955C305.919 97.0117 305.732 97.0516 305.543 97.0744L305.992 97.0171C305.72 97.0481 305.447 97.0481 305.175 97.0171L305.619 97.0744C305.429 97.0523 305.242 97.0107 305.061 96.9502C304.932 96.9073 304.703 96.7688 305.156 97.0027L304.937 96.8977L304.726 96.7736C304.674 96.7401 304.373 96.5205 304.626 96.7163C304.879 96.912 304.593 96.6781 304.545 96.6351L304.373 96.4632L304.211 96.277C304.01 96.0479 304.426 96.5969 304.273 96.3534C304.166 96.2002 304.069 96.0408 303.982 95.876C303.92 95.7518 303.877 95.4988 304.02 95.9762C303.996 95.8998 303.963 95.8234 303.939 95.747C303.883 95.5643 303.842 95.3775 303.815 95.1884L303.877 95.6325C303.843 95.3629 303.843 95.0903 303.877 94.8208L303.815 95.2648C303.815 95.2076 303.815 95.155 303.815 95.1025C303.921 94.667 303.861 94.2074 303.647 93.8134C303.426 93.4385 303.069 93.1632 302.65 93.0447C301.843 92.8633 300.74 93.293 300.592 94.2145L300.62 94.2001Z" fill="#151E4A"/>
<path d="M281.04 90.5091C280.84 91.622 280.996 92.7693 281.484 93.7892C281.924 94.6893 282.611 95.446 283.465 95.9711C284.318 96.512 285.323 96.7601 286.33 96.6777C287.449 96.5682 288.51 96.1259 289.376 95.4077C290.241 94.706 290.84 93.7284 291.071 92.6385C291.182 92.2114 291.122 91.7579 290.905 91.3738C290.687 90.9898 290.329 90.7054 289.906 90.5807C289.075 90.3897 288.029 90.829 287.848 91.7457C287.811 91.92 287.765 92.0921 287.71 92.2613C287.657 92.4284 287.905 91.8412 287.748 92.1611C287.713 92.2346 287.675 92.3063 287.633 92.3759C287.585 92.4571 287.533 92.5335 287.48 92.6146C287.323 92.8534 287.748 92.3138 287.542 92.5335C287.434 92.657 287.319 92.775 287.199 92.8868L287.012 93.0491C287.39 92.7197 287.189 92.9059 287.084 92.9775C286.979 93.0491 286.798 93.1446 286.654 93.221C286.387 93.369 287.027 93.0921 286.755 93.1828L286.521 93.264C286.34 93.3194 286.154 93.3609 285.967 93.3881L286.411 93.3261C286.14 93.3594 285.866 93.3594 285.594 93.3261L286.038 93.3881C285.849 93.3611 285.662 93.318 285.48 93.2592C285.351 93.2162 285.122 93.0825 285.575 93.3117L285.356 93.2067L285.146 93.0825C285.093 93.0491 284.792 92.8295 285.05 93.0253C285.308 93.221 285.012 92.987 284.969 92.9441C284.926 92.9011 284.85 92.8295 284.792 92.7722L284.63 92.586C284.429 92.3568 284.845 92.9059 284.692 92.6624C284.586 92.5087 284.489 92.3493 284.401 92.1849C284.339 92.056 284.296 91.8078 284.439 92.2804C284.439 92.204 284.382 92.1276 284.358 92.0512C284.302 91.8686 284.26 91.6818 284.234 91.4926L284.296 91.9367C284.262 91.6671 284.262 91.3945 284.296 91.125L284.234 91.569C284.234 91.5165 284.234 91.4592 284.262 91.4067C284.365 90.9704 284.303 90.5118 284.09 90.1176C283.869 89.743 283.511 89.4679 283.093 89.3489C282.286 89.1675 281.183 89.5972 281.04 90.5187V90.5091Z" fill="#151E4A"/>
<path d="M282.658 121.367C284.568 125.187 288.388 127.822 292.417 129.006C296.905 130.286 301.718 129.708 306.029 128.051C308.608 127.047 311.07 125.767 313.372 124.232C313.704 123.986 313.934 123.627 314.016 123.222C314.098 122.817 314.028 122.397 313.819 122.041C313.61 121.685 313.276 121.419 312.882 121.295C312.489 121.17 312.063 121.196 311.687 121.367C309.823 122.605 307.855 123.679 305.805 124.575C305.642 124.647 305.676 124.633 305.915 124.533L305.724 124.609L305.337 124.766C305.074 124.867 304.817 124.967 304.554 125.058C304.029 125.244 303.504 125.416 302.969 125.569C301.907 125.875 300.826 126.107 299.732 126.261L300.176 126.199C298.563 126.423 296.927 126.438 295.311 126.242L295.755 126.299C294.847 126.17 293.952 125.968 293.076 125.697C292.661 125.573 292.245 125.43 291.835 125.268C291.797 125.268 291.524 125.177 291.51 125.139L291.668 125.206L291.548 125.153C291.338 125.058 291.128 124.962 290.918 124.857C290.116 124.461 289.352 123.993 288.636 123.458C288.354 123.248 288.884 123.659 288.664 123.458L288.397 123.243C288.225 123.095 288.053 122.947 287.886 122.766C287.572 122.476 287.272 122.17 286.989 121.849C286.903 121.754 286.822 121.654 286.74 121.558C286.659 121.463 286.449 121.19 286.631 121.424C286.812 121.658 286.669 121.482 286.631 121.424L286.502 121.252C286.435 121.157 286.368 121.066 286.306 120.971C286.017 120.541 285.755 120.093 285.523 119.629C285.298 119.249 284.932 118.973 284.505 118.861C284.077 118.749 283.623 118.811 283.241 119.032C282.865 119.262 282.593 119.629 282.481 120.055C282.368 120.481 282.425 120.934 282.639 121.319L282.658 121.367Z" fill="#151E4A"/>
<path d="M314.022 174.574C314.578 173.981 315.173 173.426 315.802 172.913L316.022 172.736L315.874 172.85L315.989 172.765C316.151 172.64 316.318 172.516 316.466 172.397C316.791 172.168 317.125 171.953 317.464 171.743C318.158 171.321 318.879 170.945 319.622 170.616C319.708 170.578 319.794 170.535 319.885 170.501C319.885 170.501 319.531 170.645 319.703 170.578L319.837 170.525L320.415 170.301C320.792 170.167 321.169 170.043 321.551 169.928C322.438 169.672 323.343 169.478 324.258 169.351L323.814 169.413C324.792 169.283 325.779 169.232 326.765 169.26C327.206 169.255 327.628 169.077 327.941 168.765C328.253 168.453 328.431 168.031 328.436 167.589C328.426 167.149 328.247 166.729 327.935 166.418C327.624 166.107 327.205 165.928 326.765 165.918C322.375 165.804 318.069 167.134 314.509 169.704C313.478 170.449 312.519 171.288 311.644 172.211C311.327 172.527 311.149 172.957 311.149 173.404C311.149 173.852 311.327 174.281 311.644 174.598C311.96 174.914 312.39 175.092 312.837 175.092C313.285 175.092 313.714 174.914 314.031 174.598L314.022 174.574Z" fill="#151E4A"/>
<path d="M316.915 179.348C318.42 178.201 320.035 177.208 321.738 176.383L322.382 176.077L322.678 175.972L322.903 175.877C322.635 175.987 323.017 175.829 323.079 175.8L323.409 175.671L324.077 175.418C324.975 175.1 325.887 174.82 326.813 174.578C327.852 174.315 328.906 174.111 329.969 173.967L329.525 174.024L330.131 173.953C330.571 173.941 330.991 173.772 331.315 173.475C331.474 173.319 331.599 173.133 331.685 172.929C331.771 172.724 331.815 172.504 331.815 172.282C331.815 172.059 331.771 171.84 331.685 171.635C331.599 171.43 331.474 171.244 331.315 171.088C331.161 170.931 330.977 170.808 330.773 170.726C330.569 170.643 330.351 170.604 330.131 170.611C325.883 171.077 321.78 172.426 318.085 174.573C317.092 175.15 316.135 175.788 315.221 176.483C314.853 176.713 314.58 177.067 314.452 177.481C314.336 177.914 314.396 178.376 314.619 178.765C314.839 179.142 315.197 179.417 315.617 179.534C315.831 179.598 316.057 179.616 316.279 179.587C316.501 179.559 316.715 179.483 316.906 179.367L316.915 179.348Z" fill="#151E4A"/>
<path d="M238.489 216.899C239.876 220.615 242.468 223.758 245.851 225.827C246.824 226.407 247.848 226.895 248.912 227.283C249.34 227.398 249.795 227.34 250.181 227.121C250.566 226.902 250.849 226.54 250.97 226.114C251.075 225.687 251.013 225.236 250.795 224.853C250.577 224.471 250.221 224.187 249.8 224.061C249.609 223.989 249.404 223.917 249.217 223.832L249.408 223.913L249.246 223.836L248.959 223.707C248.568 223.521 248.181 223.321 247.809 223.101C247.436 222.881 247.093 222.667 246.749 222.428L246.238 222.06C245.956 221.845 246.477 222.251 246.238 222.06L245.961 221.831C245.315 221.296 244.713 220.71 244.161 220.079C244.023 219.921 243.884 219.764 243.755 219.601C243.708 219.539 243.488 219.258 243.66 219.487C243.832 219.716 243.598 219.401 243.55 219.334C243.302 218.995 243.073 218.651 242.843 218.293C242.614 217.935 242.366 217.467 242.146 217.037C242.041 216.823 241.941 216.608 241.841 216.388C241.697 216.059 241.974 216.708 241.841 216.388L241.697 216.011C241.568 215.597 241.296 215.244 240.929 215.013C240.736 214.902 240.522 214.829 240.301 214.801C240.08 214.772 239.855 214.787 239.64 214.846C238.842 215.104 238.145 216.025 238.475 216.899H238.489Z" fill="#151E4A"/>
<path d="M244.019 215.152L250.732 222.347C250.888 222.504 251.074 222.629 251.279 222.714C251.484 222.799 251.703 222.843 251.925 222.843C252.147 222.843 252.367 222.799 252.571 222.714C252.776 222.629 252.962 222.504 253.119 222.347C253.431 222.028 253.607 221.6 253.607 221.153C253.607 220.707 253.431 220.278 253.119 219.96L246.382 212.788C246.225 212.631 246.039 212.507 245.835 212.422C245.63 212.337 245.41 212.293 245.188 212.293C244.967 212.293 244.747 212.337 244.542 212.422C244.337 212.507 244.151 212.631 243.995 212.788C243.69 213.107 243.521 213.53 243.521 213.97C243.521 214.41 243.69 214.834 243.995 215.152H244.019Z" fill="#151E4A"/>
<path d="M318.056 164.748C320.321 164.061 322.638 163.558 324.984 163.244L324.54 163.306C328.544 162.773 332.601 162.773 336.605 163.306L336.161 163.248C338.441 163.556 340.695 164.035 342.903 164.681C344.005 165.005 345.099 165.368 346.173 165.779L346.966 166.085L347.333 166.237L347.519 166.314C347.815 166.433 347.176 166.161 347.491 166.314C348.011 166.538 348.527 166.791 349.038 167.011C350.212 167.565 351.363 168.176 352.485 168.835C352.861 169.005 353.287 169.031 353.68 168.907C354.074 168.782 354.407 168.517 354.617 168.161C354.826 167.805 354.896 167.384 354.814 166.98C354.731 166.575 354.502 166.215 354.17 165.97C349.868 163.445 345.183 161.638 340.3 160.618C335.452 159.587 330.472 159.325 325.543 159.84C322.709 160.144 319.909 160.709 317.178 161.525C316.75 161.643 316.387 161.925 316.168 162.311C315.949 162.696 315.892 163.153 316.01 163.58C316.128 164.008 316.411 164.371 316.796 164.59C317.182 164.809 317.638 164.865 318.066 164.748H318.056Z" fill="#151E4A"/>
<path d="M276.428 149.564C277.116 155.16 277.522 160.787 277.645 166.423C277.769 172.033 277.617 177.653 277.168 183.243C276.926 186.398 276.593 189.544 276.17 192.683L276.232 192.239C276.022 193.781 275.797 195.318 275.549 196.851C275.443 197.285 275.502 197.743 275.716 198.135C275.938 198.51 276.295 198.785 276.714 198.904C277.516 199.09 278.624 198.66 278.772 197.739C279.795 191.458 280.471 185.125 280.796 178.77C281.113 172.544 281.086 166.305 280.715 160.082C280.505 156.581 280.187 153.08 279.76 149.579C279.747 149.141 279.578 148.723 279.283 148.399C278.965 148.093 278.54 147.922 278.099 147.922C277.658 147.92 277.235 148.092 276.919 148.399C276.763 148.553 276.64 148.736 276.558 148.939C276.476 149.142 276.436 149.36 276.442 149.579L276.428 149.564Z" fill="#151E4A"/>
<path d="M346.765 132.968C347.933 134.878 349.025 136.847 350.04 138.874C350.553 139.896 351.045 140.927 351.516 141.968C351.74 142.474 351.964 142.98 352.184 143.486C352.208 143.553 352.237 143.615 352.265 143.682C352.375 143.94 352.227 143.596 352.218 143.568C352.265 143.696 352.323 143.825 352.375 143.95C352.49 144.222 352.599 144.494 352.709 144.771C354.391 148.954 355.737 153.265 356.734 157.662C357.298 160.145 357.751 162.656 358.09 165.177L358.028 164.733C358.661 169.42 358.894 174.153 358.725 178.88C358.677 180.213 358.596 181.544 358.482 182.871C358.483 183.314 358.659 183.738 358.972 184.051C359.286 184.364 359.71 184.541 360.153 184.542C360.592 184.531 361.011 184.352 361.322 184.041C361.633 183.73 361.813 183.311 361.824 182.871C362.401 175.845 362.106 168.774 360.945 161.82C359.792 154.861 357.791 148.069 354.987 141.596C353.451 138.033 351.667 134.582 349.649 131.269C349.552 131.055 349.411 130.865 349.236 130.709C349.061 130.554 348.855 130.437 348.631 130.367C348.408 130.296 348.172 130.273 347.939 130.3C347.707 130.326 347.482 130.401 347.28 130.52C347.078 130.639 346.904 130.799 346.768 130.989C346.631 131.18 346.537 131.397 346.49 131.626C346.443 131.856 346.445 132.093 346.496 132.321C346.547 132.55 346.645 132.766 346.784 132.954L346.765 132.968Z" fill="#151E4A"/>
<path d="M338.911 223.345L339.355 226.033L340.558 233.266L342.344 244.052L344.507 257.139L346.894 271.495L349.281 285.991L351.52 299.502L353.43 310.923L354.786 319.13C355.001 320.424 355.182 321.728 355.431 323.017L355.459 323.184C355.579 323.61 355.861 323.971 356.246 324.189C356.631 324.407 357.086 324.465 357.512 324.349C357.933 324.221 358.288 323.937 358.506 323.555C358.724 323.173 358.787 322.723 358.682 322.296L358.233 319.608L357.035 312.36L355.249 301.579L353.086 288.512L350.699 274.15L348.312 259.659L346.073 246.157L344.163 234.699L342.802 226.486C342.587 225.193 342.406 223.889 342.162 222.6C342.162 222.547 342.162 222.49 342.134 222.438C342.014 222.011 341.731 221.648 341.346 221.429C340.96 221.21 340.504 221.152 340.076 221.268C339.656 221.398 339.302 221.683 339.085 222.066C338.868 222.448 338.806 222.899 338.911 223.326V223.345Z" fill="#151E4A"/>
<path d="M359.594 142.264L377.999 178.956L461.472 181.386L457.222 170.71L428.867 168.734L413.216 143.128L359.594 142.264Z" fill="white"/>
<path d="M461.472 183.058H461.424L377.947 180.628C377.648 180.616 377.357 180.524 377.105 180.362C376.854 180.2 376.65 179.974 376.515 179.706L358.1 143.029C357.972 142.774 357.911 142.49 357.924 142.206C357.937 141.921 358.022 141.644 358.172 141.401C358.321 141.159 358.531 140.958 358.78 140.819C359.029 140.681 359.309 140.608 359.594 140.608L413.221 141.472C413.503 141.477 413.778 141.552 414.023 141.692C414.267 141.831 414.473 142.03 414.62 142.269L429.822 167.14L457.318 169.049C457.632 169.07 457.933 169.179 458.186 169.365C458.44 169.55 458.636 169.803 458.751 170.095L463 180.776C463.102 181.029 463.14 181.303 463.11 181.575C463.081 181.846 462.986 182.106 462.833 182.332C462.679 182.558 462.473 182.742 462.232 182.87C461.99 182.997 461.721 183.063 461.448 183.063L461.472 183.058ZM379.046 177.328L458.98 179.658L456.058 172.32L428.753 170.41C428.487 170.392 428.229 170.31 428.001 170.171C427.774 170.032 427.583 169.841 427.444 169.613L412.271 144.786L362.306 143.983L379.046 177.328Z" fill="#151E4A"/>
<path d="M391.211 166.481C394.723 166.481 397.57 163.634 397.57 160.121C397.57 156.609 394.723 153.762 391.211 153.762C387.698 153.762 384.851 156.609 384.851 160.121C384.851 163.634 387.698 166.481 391.211 166.481Z" fill="#151E4A"/>
<path d="M420.994 184.481C420.994 184.481 417.776 175.08 426.47 174.507C435.165 173.934 442.226 184.084 442.226 184.084" fill="#9A67FF"/>
<path d="M420.412 175.209C420.512 178.207 421.109 181.167 422.178 183.97C422.306 184.385 422.579 184.741 422.947 184.972C423.337 185.193 423.798 185.253 424.231 185.14C425.024 184.882 425.735 183.956 425.401 183.082C424.679 181.22 424.179 179.279 423.911 177.3L423.969 177.749C423.859 176.904 423.787 176.059 423.754 175.209C423.754 174.765 423.578 174.34 423.264 174.027C422.951 173.714 422.526 173.538 422.083 173.538C421.639 173.538 421.214 173.714 420.901 174.027C420.588 174.34 420.412 174.765 420.412 175.209Z" fill="#151E4A"/>
<path d="M427.368 174.573C427.161 177.072 427.389 179.587 428.041 182.007C428.099 182.219 428.199 182.417 428.334 182.59C428.469 182.763 428.636 182.908 428.827 183.017C429.018 183.125 429.228 183.195 429.446 183.222C429.664 183.249 429.885 183.233 430.097 183.175C430.308 183.116 430.506 183.017 430.679 182.882C430.853 182.747 430.998 182.58 431.106 182.389C431.214 182.198 431.284 181.987 431.311 181.77C431.338 181.552 431.322 181.331 431.264 181.119C431.038 180.276 430.865 179.42 430.748 178.555L430.81 178.999C430.619 177.532 430.586 176.048 430.71 174.573C430.709 174.131 430.532 173.706 430.219 173.393C429.906 173.08 429.482 172.904 429.039 172.902C428.599 172.913 428.181 173.093 427.869 173.404C427.558 173.715 427.379 174.134 427.368 174.573Z" fill="#151E4A"/>
<path d="M427.989 195.787C431.61 196.698 435.303 197.3 439.027 197.587C442.656 197.867 446.303 197.84 449.927 197.505C453.649 197.163 457.335 196.508 460.947 195.548C464.481 194.625 467.923 193.382 471.231 191.833C474.272 190.401 477.242 188.491 479.424 185.913C479.754 185.521 480.069 185.116 480.379 184.7C480.601 184.317 480.663 183.861 480.55 183.433C480.438 183.004 480.16 182.637 479.777 182.413C479.392 182.202 478.939 182.146 478.514 182.258C478.089 182.37 477.722 182.641 477.49 183.015L477.29 183.287C477.185 183.43 477.414 183.129 477.404 183.139C477.395 183.148 477.323 183.244 477.285 183.292C477.148 183.464 477.005 183.635 476.855 183.807C476.559 184.142 476.249 184.466 475.929 184.762C475.609 185.058 475.275 185.373 474.931 185.66C474.774 185.794 474.607 185.922 474.454 186.051C474.301 186.18 474.616 185.932 474.602 185.937L474.449 186.056L474.177 186.257C472.712 187.301 471.152 188.204 469.517 188.954C469.106 189.145 468.691 189.331 468.276 189.513L467.961 189.647L468.137 189.575L467.961 189.647L467.287 189.923C466.358 190.296 465.422 190.644 464.48 190.969C462.608 191.606 460.71 192.164 458.784 192.645C456.617 193.169 454.424 193.582 452.214 193.882L452.658 193.824C448.218 194.421 443.729 194.555 439.261 194.225C438.001 194.135 436.74 194.001 435.485 193.834L435.929 193.891C433.56 193.572 431.212 193.117 428.896 192.53C428.684 192.472 428.463 192.456 428.245 192.483C428.027 192.51 427.817 192.58 427.626 192.688C427.435 192.797 427.268 192.942 427.133 193.115C426.998 193.288 426.899 193.486 426.84 193.698C426.782 193.909 426.766 194.13 426.793 194.348C426.82 194.566 426.89 194.776 426.998 194.967C427.107 195.158 427.252 195.326 427.425 195.461C427.598 195.595 427.796 195.695 428.008 195.753L427.989 195.787Z" fill="#151E4A"/>
<path d="M447.769 133.919C448.457 139.406 449.348 144.859 450.443 150.276C450.761 151.766 451.08 153.251 451.398 154.731C451.518 155.156 451.801 155.517 452.185 155.736C452.569 155.954 453.024 156.014 453.451 155.9C453.874 155.775 454.232 155.49 454.45 155.107C454.668 154.723 454.729 154.27 454.621 153.843C453.538 149.068 452.623 144.267 451.875 139.438C451.665 138.068 451.465 136.702 451.283 135.327L451.341 135.776C451.259 135.155 451.178 134.539 451.102 133.919C451.091 133.481 450.921 133.062 450.624 132.739C450.469 132.58 450.284 132.453 450.079 132.367C449.874 132.28 449.653 132.236 449.431 132.236C449.208 132.236 448.988 132.28 448.783 132.367C448.578 132.453 448.392 132.58 448.237 132.739C448.081 132.893 447.958 133.077 447.876 133.28C447.794 133.482 447.754 133.7 447.76 133.919H447.769Z" fill="#151E4A"/>
<path d="M410.495 111.217C412.858 113.186 415.678 114.531 418.696 115.127C421.714 115.723 424.834 115.553 427.769 114.63C429.394 114.123 430.933 113.371 432.333 112.401C432.702 112.171 432.975 111.814 433.102 111.398C433.218 110.965 433.158 110.503 432.935 110.114C432.457 109.402 431.412 108.973 430.648 109.512C430.141 109.872 429.611 110.199 429.063 110.491C428.795 110.634 428.528 110.768 428.251 110.892L428.017 110.997C427.759 111.112 428.327 110.873 428.136 110.949C427.945 111.026 427.845 111.069 427.697 111.121C426.537 111.56 425.331 111.866 424.102 112.033L424.546 111.971C423.025 112.171 421.484 112.171 419.962 111.971L420.406 112.028C419.662 111.93 418.926 111.783 418.201 111.589C417.838 111.489 417.48 111.379 417.126 111.255C416.95 111.197 416.773 111.131 416.596 111.064C416.42 110.997 415.861 110.744 416.396 110.987C415.712 110.685 415.047 110.34 414.405 109.956C414.09 109.76 413.775 109.55 413.474 109.331L413.264 109.178C412.996 108.982 413.584 109.436 413.326 109.23L412.848 108.844C412.528 108.544 412.108 108.373 411.669 108.366C411.227 108.365 410.802 108.536 410.485 108.844C409.912 109.464 409.778 110.601 410.485 111.231L410.495 111.217Z" fill="#151E4A"/>
<path d="M408.203 61.0791L408.413 60.9168C408.637 60.7354 408.122 61.1364 408.351 60.9598C408.499 60.8452 408.652 60.7354 408.828 60.6255C409.134 60.4059 409.449 60.1911 409.783 59.9906C410.401 59.6037 411.038 59.2499 411.693 58.9306L412.17 58.7062C412.266 58.6633 412.595 58.4484 412.691 58.477C412.691 58.477 412.28 58.6441 412.533 58.5439L412.653 58.4961L412.896 58.3959L413.426 58.2001C414.112 57.9531 414.81 57.7412 415.517 57.5651C416.337 57.361 417.168 57.2016 418.005 57.0877L417.561 57.1497C419.561 56.8895 421.586 56.8895 423.586 57.1497L423.142 57.0924C424.848 57.3185 426.521 57.7448 428.127 58.3625L428.451 58.4866C428.566 58.5343 428.848 58.668 428.375 58.4532C428.585 58.5486 428.8 58.6394 429.01 58.7396C429.382 58.9115 429.745 59.0929 430.103 59.2887C430.872 59.7046 431.613 60.172 432.319 60.6876C432.512 60.8 432.725 60.873 432.946 60.9025C433.167 60.932 433.392 60.9174 433.608 60.8595C433.925 60.7721 434.209 60.593 434.425 60.3447C434.641 60.0963 434.779 59.7897 434.821 59.4633C434.864 59.137 434.809 58.8054 434.663 58.5102C434.518 58.215 434.289 57.9693 434.004 57.8038C430.773 55.5221 427.003 54.1232 423.066 53.7455C419.26 53.3303 415.409 53.8448 411.846 55.2447C409.694 56.0924 407.684 57.2646 405.887 58.7205C405.734 58.8768 405.612 59.0619 405.531 59.265C405.449 59.4682 405.408 59.6856 405.41 59.9046C405.412 60.347 405.589 60.7706 405.902 61.0835C406.215 61.3963 406.638 61.5732 407.081 61.5757C407.516 61.553 407.932 61.3849 408.26 61.0982L408.203 61.0791Z" fill="#151E4A"/>
<path d="M410.228 76.5821L411.398 80.4447L411.57 81.0081C411.692 81.4253 411.966 81.7815 412.338 82.0059C412.627 82.1768 412.961 82.2567 413.295 82.2354C413.63 82.2142 413.951 82.0926 414.216 81.8865C414.48 81.6805 414.677 81.3995 414.78 81.0802C414.883 80.7609 414.887 80.418 414.793 80.0961L413.623 76.2288L413.451 75.6702C413.329 75.2529 413.054 74.8968 412.682 74.6723C412.393 74.5015 412.06 74.4215 411.725 74.4428C411.39 74.4641 411.07 74.5857 410.805 74.7917C410.54 74.9978 410.344 75.2787 410.241 75.5981C410.138 75.9174 410.133 76.2603 410.228 76.5821Z" fill="#151E4A"/>
<path d="M420.555 77.1786L421.72 80.9982C421.842 81.4155 422.117 81.7716 422.489 81.9961C422.778 82.1669 423.111 82.2469 423.446 82.2256C423.781 82.2043 424.101 82.0827 424.366 81.8767C424.631 81.6706 424.828 81.3897 424.93 81.0703C425.033 80.751 425.038 80.4081 424.943 80.0863L423.778 76.2667C423.654 75.8507 423.38 75.4954 423.009 75.2688C422.62 75.0458 422.158 74.9857 421.725 75.1017C421.305 75.2175 420.946 75.4935 420.727 75.8704C420.503 76.2591 420.441 76.7208 420.555 77.1548V77.1786Z" fill="#151E4A"/>
<path d="M417.246 90.72C419.134 91.6888 421.261 92.0901 423.372 91.8754C424.419 91.7761 425.448 91.5318 426.428 91.1497C427.514 90.712 428.528 90.1132 429.435 89.3736C429.743 89.0585 429.915 88.6349 429.913 88.1943C429.913 87.7528 429.742 87.3284 429.435 87.0102C429.12 86.7006 428.694 86.5289 428.251 86.5328C427.815 86.5525 427.399 86.721 427.072 87.0102C426.724 87.2919 427.292 86.8574 427.072 87.0102L426.852 87.1678C426.681 87.2872 426.504 87.397 426.322 87.5068C426.141 87.6166 425.96 87.7121 425.769 87.8028C425.692 87.8458 425.611 87.884 425.525 87.9222L425.363 87.9938C425.611 87.8935 425.678 87.8649 425.554 87.9126C424.787 88.2219 423.985 88.4352 423.167 88.5476L423.611 88.4903C422.747 88.6026 421.872 88.6026 421.009 88.4903L421.453 88.5524C420.968 88.4825 420.489 88.3771 420.02 88.2373C419.791 88.1657 419.543 88.0893 419.342 88.0033C419.008 87.8696 419.657 88.1466 419.342 88.0033L418.979 87.8267C418.596 87.6025 418.14 87.5397 417.711 87.6521C417.281 87.7645 416.914 88.0428 416.69 88.4259C416.466 88.8089 416.403 89.2653 416.515 89.6946C416.628 90.124 416.906 90.4911 417.289 90.7152L417.246 90.72Z" fill="#151E4A"/>
<path d="M424.431 55.9945C422.961 55.9893 421.52 55.5878 420.259 54.8323C418.998 54.0768 417.965 52.9953 417.267 51.7016C416.569 50.408 416.233 48.9501 416.294 47.4814C416.355 46.0128 416.811 44.5878 417.613 43.3565L433.847 18.4719C435.021 16.6775 436.853 15.4154 438.948 14.9565C441.043 14.4977 443.235 14.8787 445.052 16.0178L445.162 16.0847C446.02 16.6445 446.765 17.3603 447.358 18.195L456.798 3.70923C457.542 2.56784 458.56 1.63062 459.758 0.982816C460.957 0.33501 462.299 -0.00282883 463.661 1.78418e-05C465.024 0.00286451 466.364 0.346311 467.56 0.999121C468.756 1.65193 469.77 2.59339 470.51 3.73788C471.366 5.06422 471.821 6.6092 471.821 8.18768C471.821 9.76616 471.366 11.3112 470.51 12.6375L454.277 37.5221C453.55 38.6387 452.562 39.5607 451.397 40.2078C450.233 40.8549 448.928 41.2075 447.596 41.2348C446.265 41.2621 444.946 40.9633 443.756 40.3645C442.567 39.7656 441.541 38.8849 440.77 37.799L431.326 52.2848C430.741 53.1849 429.984 53.9602 429.098 54.5658C428.213 55.1715 427.215 55.5954 426.164 55.8131C425.595 55.9335 425.014 55.9943 424.431 55.9945ZM440.703 18.109C440.361 18.1085 440.02 18.1437 439.686 18.2141C439.064 18.342 438.474 18.5918 437.95 18.9491C437.425 19.3064 436.977 19.7641 436.63 20.2958L420.397 45.1804C419.894 45.964 419.627 46.8754 419.627 47.8063C419.627 48.7372 419.894 49.6486 420.397 50.4323C420.836 51.1092 421.437 51.6656 422.146 52.0508C422.855 52.436 423.648 52.6378 424.455 52.6378C425.262 52.6378 426.056 52.436 426.765 52.0508C427.473 51.6656 428.075 51.1092 428.514 50.4323L439.652 33.3826C439.835 33.1034 440.097 32.8852 440.404 32.756C440.712 32.6269 441.051 32.5927 441.378 32.6579C441.705 32.7232 442.005 32.8848 442.24 33.122C442.474 33.3592 442.632 33.6611 442.694 33.989C442.808 34.594 443.038 35.1711 443.372 35.6887C443.744 36.2608 444.232 36.7487 444.804 37.121C445.882 37.8117 447.189 38.0487 448.441 37.7804C449.693 37.5122 450.788 36.7604 451.488 35.6887L467.722 10.7993C468.227 10.0167 468.496 9.10492 468.496 8.17336C468.496 7.24179 468.227 6.33001 467.722 5.54739C467.35 4.97483 466.862 4.48683 466.289 4.11505C465.211 3.42439 463.904 3.18741 462.652 3.45566C461.4 3.72391 460.305 4.47567 459.605 5.54739L448.48 22.6209C448.299 22.9 448.038 23.1186 447.732 23.2485C447.425 23.3785 447.087 23.4139 446.76 23.3503C446.433 23.2867 446.133 23.1269 445.898 22.8915C445.662 22.6561 445.503 22.3557 445.439 22.0289C445.323 21.4087 445.085 20.8176 444.739 20.2898C444.394 19.7621 443.947 19.3081 443.424 18.9541L443.338 18.9016C442.557 18.3845 441.64 18.1088 440.703 18.109Z" fill="#151E4A"/>
<path d="M441.725 28.4409L436.549 37.9898C436.374 38.3661 436.346 38.794 436.469 39.1902C436.592 39.5864 436.858 39.9226 437.215 40.1335C437.573 40.3443 437.996 40.4147 438.402 40.3308C438.809 40.247 439.169 40.015 439.414 39.68L444.589 30.1311C444.813 29.748 444.875 29.2919 444.762 28.863C444.65 28.4341 444.371 28.0676 443.988 27.8441C443.605 27.6206 443.149 27.5584 442.72 27.6712C442.291 27.784 441.924 28.0626 441.701 28.4457L441.725 28.4409Z" fill="#151E4A"/>
<path d="M148.338 109.14L141.353 166.543L168.252 151.981L195.118 167.875L234.975 145.134L244.973 94.5869L210.158 109.512L181.043 97.8383L148.338 109.14Z" fill="white"/>
<path d="M195.118 169.546C194.818 169.546 194.523 169.467 194.263 169.317L168.214 153.9L142.15 168.013C141.881 168.161 141.576 168.231 141.269 168.217C140.962 168.202 140.665 168.102 140.411 167.929C140.157 167.757 139.956 167.517 139.83 167.237C139.703 166.957 139.657 166.647 139.696 166.342L146.676 108.934C146.716 108.623 146.841 108.33 147.039 108.087C147.236 107.844 147.498 107.661 147.793 107.559L180.499 96.2385C180.879 96.1046 181.295 96.1148 181.668 96.2672L210.134 107.697L244.314 93.0492C244.594 92.9287 244.901 92.8868 245.202 92.928C245.504 92.9693 245.789 93.0921 246.025 93.2832C246.262 93.4744 246.443 93.7266 246.547 94.0127C246.65 94.2988 246.674 94.6078 246.616 94.9065L236.618 145.459C236.57 145.693 236.473 145.915 236.333 146.109C236.193 146.303 236.014 146.466 235.806 146.585L195.944 169.326C195.693 169.471 195.408 169.547 195.118 169.546ZM168.252 150.31C168.551 150.309 168.845 150.389 169.102 150.543L195.132 165.946L233.486 144.064L242.72 97.3796L210.817 111.039C210.407 111.209 209.947 111.209 209.537 111.039L181 99.5807L149.87 110.338L143.406 163.559L167.455 150.534C167.698 150.394 167.972 150.317 168.252 150.31Z" fill="#151E4A"/>
<path d="M195.118 169.546C194.976 169.547 194.835 169.529 194.698 169.493C194.486 169.439 194.286 169.343 194.111 169.211C193.935 169.079 193.788 168.914 193.676 168.725C193.565 168.536 193.492 168.327 193.462 168.11C193.431 167.893 193.444 167.671 193.5 167.459L208.539 109.091C208.65 108.662 208.927 108.294 209.309 108.069C209.691 107.844 210.146 107.78 210.576 107.89C211.005 108.001 211.372 108.278 211.598 108.66C211.823 109.042 211.887 109.497 211.776 109.927L196.737 168.295C196.643 168.653 196.433 168.97 196.14 169.196C195.848 169.422 195.488 169.545 195.118 169.546Z" fill="#151E4A"/>
<path d="M168.253 153.652C168.124 153.651 167.996 153.637 167.871 153.609C167.438 153.507 167.064 153.237 166.831 152.859C166.597 152.481 166.523 152.026 166.625 151.594L179.444 97.4512C179.49 97.2329 179.579 97.026 179.706 96.8427C179.833 96.6593 179.995 96.5032 180.184 96.3836C180.372 96.264 180.582 96.1833 180.802 96.1463C181.022 96.1092 181.247 96.1166 181.464 96.1679C181.681 96.2192 181.886 96.3134 182.066 96.4451C182.246 96.5767 182.398 96.743 182.512 96.9342C182.627 97.1255 182.703 97.3377 182.734 97.5585C182.765 97.7793 182.752 98.0042 182.696 98.2199L169.895 152.362C169.808 152.731 169.598 153.06 169.299 153.294C169.001 153.528 168.632 153.654 168.253 153.652Z" fill="#151E4A"/>
<path d="M240.628 110.739C240.628 110.739 247.9 111.694 246.119 125.463C244.338 139.233 231.743 137.877 230.086 129.245C228.592 121.462 228.062 112.978 240.628 110.739Z" fill="#9A67FF"/>
<path d="M141.787 122.704C151.246 122.704 155.041 126.046 152.602 134.836C150.162 143.625 143.774 144.055 138.178 142.818C132.582 141.582 132.334 122.704 141.787 122.704Z" fill="#9A67FF"/>
<path d="M228.764 129.182C232.2 128.012 235.721 127.111 239.297 126.489L228.764 129.182Z" fill="white"/>
<path d="M229.208 130.772C232.644 129.602 236.165 128.7 239.74 128.074C240.16 127.959 240.518 127.685 240.738 127.311C240.911 127.022 240.992 126.688 240.971 126.352C240.951 126.016 240.829 125.694 240.623 125.429C240.417 125.163 240.135 124.966 239.815 124.863C239.495 124.76 239.151 124.756 238.828 124.852C235.253 125.477 231.732 126.379 228.296 127.549C228.084 127.608 227.886 127.707 227.713 127.842C227.54 127.977 227.395 128.144 227.286 128.335C227.178 128.526 227.108 128.736 227.081 128.954C227.054 129.172 227.07 129.393 227.128 129.605C227.187 129.816 227.286 130.014 227.421 130.188C227.556 130.361 227.723 130.506 227.914 130.614C228.105 130.722 228.316 130.792 228.533 130.819C228.751 130.846 228.972 130.83 229.184 130.772H229.208Z" fill="#151E4A"/>
<path d="M230.115 123.582L230.974 123.138L231.414 122.933C231.49 122.899 231.839 122.799 231.858 122.737C231.858 122.77 231.514 122.88 231.753 122.785L232.001 122.684L232.44 122.498C232.741 122.388 233.046 122.283 233.352 122.183C234.58 121.788 235.841 121.504 237.119 121.333L236.675 121.395C237.385 121.301 238.099 121.242 238.814 121.219C239.257 121.219 239.682 121.043 239.996 120.729C240.309 120.416 240.485 119.991 240.485 119.548C240.485 119.104 240.309 118.679 239.996 118.366C239.682 118.053 239.257 117.876 238.814 117.876C235.178 118 231.62 118.961 228.415 120.684C228.036 120.911 227.76 121.277 227.648 121.705C227.535 122.132 227.595 122.587 227.814 122.971C228.044 123.347 228.41 123.619 228.836 123.731C229.262 123.843 229.715 123.786 230.101 123.572L230.115 123.582Z" fill="#151E4A"/>
<path d="M134.249 141.5C135.927 142.894 137.944 143.821 140.094 144.187C142.245 144.553 144.455 144.346 146.5 143.587C146.915 143.458 147.27 143.185 147.503 142.818C147.723 142.428 147.783 141.967 147.67 141.534C147.412 140.746 146.486 140.02 145.612 140.364C144.843 140.665 144.042 140.875 143.225 140.989L143.669 140.927C142.699 141.056 141.716 141.056 140.747 140.927L141.191 140.989C140.257 140.838 139.342 140.59 138.46 140.249C138.971 140.436 138.555 140.288 138.46 140.249L138.13 140.087C137.939 139.992 137.753 139.887 137.572 139.782C137.39 139.676 137.156 139.524 136.956 139.385C136.855 139.318 136.755 139.242 136.66 139.17C136.564 139.099 136.559 139.099 136.779 139.266L136.636 139.151C136.315 138.853 135.895 138.683 135.457 138.674C135.015 138.673 134.59 138.844 134.272 139.151C133.709 139.762 133.552 140.923 134.272 141.515L134.249 141.5Z" fill="#151E4A"/>
<path d="M144.987 136.301C145.464 136.33 145.941 136.378 146.395 136.44L145.951 136.378C146.92 136.512 147.877 136.718 148.816 136.993C149.269 137.127 149.718 137.28 150.162 137.447L150.515 137.586C150.62 137.624 150.993 137.815 150.573 137.586C150.802 137.695 151.05 137.791 151.265 137.901C151.659 138.114 152.119 138.174 152.554 138.068C152.973 137.949 153.33 137.674 153.552 137.299C153.948 136.554 153.795 135.413 152.955 135.012C150.449 133.819 147.738 133.116 144.967 132.94C144.524 132.94 144.099 133.116 143.786 133.429C143.472 133.743 143.296 134.168 143.296 134.611C143.305 135.052 143.484 135.472 143.795 135.783C144.107 136.095 144.527 136.274 144.967 136.282L144.987 136.301Z" fill="#151E4A"/>
<path d="M143.558 131.484C144.856 131.37 146.163 131.398 147.454 131.57L147.006 131.508C147.795 131.616 148.576 131.776 149.345 131.985C149.727 132.09 150.109 132.21 150.481 132.343L150.992 132.534C151.093 132.573 151.193 132.62 151.293 132.654L151.097 132.568L151.293 132.654C151.688 132.865 152.147 132.924 152.582 132.821C153 132.703 153.357 132.429 153.58 132.057C153.693 131.864 153.765 131.651 153.794 131.429C153.823 131.208 153.807 130.983 153.747 130.768C153.694 130.559 153.598 130.362 153.467 130.191C153.336 130.019 153.171 129.876 152.983 129.77C150.027 128.443 146.784 127.884 143.554 128.147C143.116 128.158 142.697 128.327 142.374 128.624C142.068 128.94 141.896 129.363 141.897 129.803C141.935 130.644 142.637 131.56 143.568 131.474L143.558 131.484Z" fill="#151E4A"/>
<path d="M188.549 196.503C189.889 207.077 191.028 217.676 191.967 228.301C192.893 238.869 193.621 249.449 194.149 260.042C194.445 266.013 194.676 271.986 194.841 277.96C194.841 278.404 195.017 278.829 195.331 279.142C195.644 279.455 196.069 279.632 196.512 279.632C196.956 279.632 197.381 279.455 197.694 279.142C198.007 278.829 198.183 278.404 198.183 277.96C197.884 267.304 197.381 256.655 196.675 246.014C195.971 235.431 195.066 224.863 193.958 214.312C193.321 208.369 192.632 202.433 191.891 196.503C191.781 195.639 191.198 194.784 190.22 194.832C189.408 194.865 188.429 195.572 188.549 196.503Z" fill="#151E4A"/>
<path d="M157.438 167.378L152.038 184.877L146.633 202.361L143.635 212.158C143.521 212.585 143.58 213.04 143.797 213.425C144.015 213.809 144.375 214.093 144.8 214.216C145.227 214.324 145.68 214.263 146.064 214.045C146.447 213.827 146.732 213.469 146.858 213.046L152.229 195.548L157.629 178.059L160.656 168.266C160.774 167.839 160.718 167.382 160.499 166.996C160.281 166.61 159.918 166.327 159.491 166.209C159.063 166.09 158.607 166.146 158.221 166.365C157.835 166.583 157.551 166.946 157.433 167.374L157.438 167.378Z" fill="#151E4A"/>
<path d="M186.213 39.4219L188.729 25.7096L189.083 23.7998C189.13 23.542 189.207 23.2937 189.255 23.0407C189.183 23.4131 189.116 23.308 189.202 23.1982L189.049 23.3988C189.14 23.308 189.126 23.3176 189.002 23.4226C188.801 23.5802 188.906 23.499 188.963 23.4656C188.62 23.6709 188.663 23.5802 188.849 23.5468L188.405 23.6088C188.509 23.5969 188.615 23.5969 188.72 23.6088L188.276 23.5515C188.385 23.5664 188.494 23.5888 188.601 23.6184L188.768 23.6757C188.507 23.5611 188.454 23.542 188.61 23.6184C188.821 23.7278 189.025 23.8506 189.221 23.986C189.732 24.3489 190.229 24.7308 190.73 25.1032L193.743 27.3472L199.821 31.8735C200.043 32.009 200.295 32.0877 200.555 32.1027C200.814 32.1177 201.074 32.0684 201.31 31.9594C201.537 31.857 201.74 31.7074 201.904 31.5205C202.069 31.3336 202.192 31.1137 202.265 30.8756C203.834 26.9764 205.225 23.0104 206.438 18.9776L203.382 19.3786L212.793 32.4416L215.438 36.118C215.668 36.4848 216.022 36.7574 216.436 36.8867C216.871 37.0029 217.334 36.9428 217.725 36.7195C218.427 36.266 218.871 35.1917 218.326 34.4326L208.916 21.3696L206.271 17.6932C206.099 17.4143 205.851 17.1907 205.555 17.0493C205.26 16.9079 204.93 16.8546 204.605 16.8959C204.283 16.9397 203.98 17.0757 203.734 17.2875C203.487 17.4993 203.307 17.7778 203.215 18.0895C202.009 22.1256 200.621 26.0916 199.052 29.9875L201.511 28.9849L196.006 24.8884L193.289 22.8592C192.425 22.2147 191.585 21.4985 190.668 20.9256C189.469 20.1808 187.918 19.942 186.791 20.9542C185.874 21.7754 185.836 23.1887 185.616 24.2964L184.385 31.0045L183.005 38.5339C182.896 38.9677 182.956 39.4267 183.172 39.8182C183.393 40.1931 183.751 40.4683 184.17 40.5869C184.991 40.7731 186.08 40.3386 186.228 39.4219H186.213Z" fill="#151E4A"/>
<path d="M197.64 50.7186L197.296 54.2421C197.294 54.4604 197.335 54.6769 197.417 54.8793C197.499 55.0816 197.62 55.2659 197.773 55.4214C197.929 55.5808 198.114 55.7075 198.319 55.794C198.524 55.8805 198.745 55.925 198.967 55.925C199.19 55.925 199.41 55.8805 199.615 55.794C199.82 55.7075 200.005 55.5808 200.161 55.4214L200.423 55.0824C200.571 54.8271 200.649 54.5372 200.648 54.2421L200.991 50.7186C200.993 50.5003 200.952 50.2838 200.87 50.0814C200.788 49.8791 200.667 49.6948 200.514 49.5393C200.359 49.3799 200.173 49.2532 199.968 49.1667C199.763 49.0802 199.543 49.0356 199.32 49.0356C199.098 49.0356 198.878 49.0802 198.673 49.1667C198.468 49.2532 198.282 49.3799 198.127 49.5393L197.869 49.8735C197.718 50.1294 197.639 50.4214 197.64 50.7186Z" fill="#151E4A"/>
<path d="M208.091 49.3536L207.389 53.4692C207.285 53.9048 207.344 54.3635 207.556 54.7583C207.78 55.1406 208.147 55.4185 208.575 55.5312C209.004 55.644 209.46 55.5824 209.843 55.3599C210.031 55.252 210.196 55.1078 210.328 54.9357C210.46 54.7635 210.556 54.5669 210.612 54.3572L211.314 50.2416C211.42 49.8076 211.36 49.3497 211.146 48.9573C211.036 48.7675 210.889 48.6014 210.714 48.4685C210.539 48.3355 210.34 48.2383 210.128 48.1824C209.915 48.1265 209.694 48.1131 209.476 48.1428C209.259 48.1726 209.049 48.2449 208.859 48.3557C208.672 48.4633 208.508 48.6068 208.376 48.778C208.244 48.9493 208.147 49.1448 208.091 49.3536Z" fill="#151E4A"/>
<path d="M192.559 62.7025C194.643 65.1504 197.459 66.8642 200.59 67.5916C201.017 67.7094 201.474 67.6525 201.859 67.4336C202.245 67.2147 202.528 66.8516 202.645 66.4242C202.763 65.9969 202.706 65.5402 202.487 65.1548C202.269 64.7693 201.905 64.4866 201.478 64.3688C200.796 64.206 200.126 63.997 199.473 63.7434C199.143 63.6145 199.84 63.9057 199.521 63.7434L199.258 63.624C199.11 63.5572 198.967 63.4903 198.828 63.4187C198.499 63.2516 198.179 63.075 197.873 62.884C197.568 62.693 197.286 62.5068 197 62.3015L196.809 62.1582C196.522 61.9529 197.114 62.4065 196.842 62.1869L196.436 61.8527C195.895 61.3828 195.392 60.8703 194.932 60.3201C194.618 60.0078 194.193 59.8325 193.751 59.8325C193.308 59.8325 192.883 60.0078 192.569 60.3201C192.259 60.6399 192.085 61.068 192.085 61.5137C192.085 61.9594 192.259 62.3875 192.569 62.7073L192.559 62.7025Z" fill="#151E4A"/>
<path d="M161.324 103.104C161.187 102.493 161.077 101.877 160.995 101.257L161.052 101.701C160.799 99.7737 160.799 97.8219 161.052 95.8949L160.995 96.3389C161.22 94.6898 161.628 93.0708 162.212 91.5119C162.288 91.3114 162.37 91.1156 162.446 90.9151C162.565 90.6239 162.293 91.2637 162.446 90.9533C162.489 90.8626 162.527 90.7719 162.565 90.6812C162.733 90.304 162.914 89.9364 163.105 89.5687C163.491 88.8242 163.921 88.1035 164.394 87.4107C164.615 87.0271 164.676 86.5717 164.564 86.1435C164.451 85.7152 164.174 85.3487 163.792 85.1237C163.407 84.9122 162.955 84.8567 162.529 84.9687C162.104 85.0806 161.737 85.3514 161.505 85.7253C158.747 89.8454 157.359 94.7308 157.538 99.6858C157.597 101.132 157.786 102.57 158.101 103.983C158.223 104.408 158.507 104.769 158.892 104.987C159.277 105.205 159.732 105.263 160.159 105.148C160.58 105.021 160.936 104.737 161.153 104.355C161.37 103.972 161.431 103.521 161.324 103.095V103.104Z" fill="#151E4A"/>
<path d="M222.729 151.933C220.103 158.936 217.715 166.026 215.567 173.203C214.965 175.209 214.384 177.22 213.824 179.238C213.706 179.666 213.763 180.122 213.982 180.508C214.201 180.893 214.564 181.176 214.992 181.294C215.419 181.411 215.876 181.355 216.261 181.136C216.647 180.917 216.929 180.554 217.047 180.126C219.059 172.917 221.309 165.782 223.798 158.722C224.495 156.746 225.211 154.779 225.947 152.821C226.065 152.396 226.011 151.942 225.796 151.557C225.582 151.172 225.224 150.887 224.801 150.763C224.373 150.659 223.922 150.722 223.539 150.939C223.157 151.157 222.872 151.512 222.743 151.933H222.729Z" fill="#151E4A"/>
<path d="M190.243 89.0102C192.756 90.6096 195.566 91.6857 198.505 92.1738C201.443 92.6619 204.45 92.5521 207.345 91.851C207.771 91.7305 208.131 91.4478 208.35 91.0638C208.569 90.6798 208.628 90.2252 208.515 89.798C208.389 89.3751 208.105 89.0172 207.721 88.7992C207.338 88.5812 206.885 88.5199 206.457 88.6282C205.784 88.7905 205.097 88.9195 204.409 89.0149L204.853 88.9529C203.047 89.1916 201.217 89.1916 199.41 88.9529L199.854 89.0102C198.389 88.8127 196.948 88.4606 195.557 87.9598L195.046 87.7688L194.812 87.6781C194.464 87.5349 194.999 87.7593 194.846 87.6781C194.516 87.5301 194.182 87.3821 193.857 87.2006C193.191 86.8667 192.542 86.4986 191.914 86.0977C191.532 85.8763 191.078 85.8148 190.65 85.9266C190.223 86.0384 189.857 86.3144 189.632 86.6946C189.418 87.0792 189.36 87.5318 189.471 87.9578C189.583 88.3839 189.854 88.7506 190.229 88.9815L190.243 89.0102Z" fill="#151E4A"/>
<path d="M176.578 153.738C176.604 153.653 176.634 153.57 176.669 153.489L176.497 153.89C176.588 153.679 176.705 153.48 176.846 153.298L176.583 153.637C176.722 153.459 176.882 153.299 177.061 153.16L176.726 153.418C176.852 153.324 176.984 153.239 177.123 153.165C177.316 153.064 177.48 152.917 177.6 152.735C177.741 152.566 177.843 152.368 177.9 152.155C177.956 151.943 177.967 151.72 177.93 151.503C177.918 151.281 177.849 151.065 177.729 150.878L177.466 150.544C177.265 150.336 177.011 150.188 176.731 150.114L176.287 150.052C175.99 150.051 175.698 150.13 175.442 150.281C175.165 150.434 174.906 150.616 174.669 150.825C174.53 150.937 174.402 151.062 174.287 151.198C174.082 151.433 173.9 151.687 173.742 151.957C173.591 152.237 173.466 152.531 173.37 152.835C173.299 153.051 173.289 153.283 173.341 153.504C173.351 153.724 173.418 153.938 173.537 154.124C173.636 154.319 173.784 154.483 173.967 154.602C174.129 154.75 174.326 154.853 174.54 154.903L174.984 154.965C175.279 154.962 175.568 154.883 175.824 154.736L176.163 154.473C176.366 154.268 176.514 154.015 176.593 153.738H176.578Z" fill="#151E4A"/>
<path d="M183.067 149.531L185.316 148.639C185.528 148.588 185.724 148.485 185.884 148.338C186.062 148.213 186.21 148.051 186.318 147.863C186.426 147.675 186.492 147.465 186.51 147.249C186.562 147.028 186.552 146.797 186.481 146.581C186.364 146.161 186.088 145.803 185.712 145.583L185.316 145.416C185.026 145.335 184.719 145.335 184.428 145.416L182.179 146.309C181.969 146.359 181.774 146.461 181.611 146.605C181.43 146.725 181.282 146.889 181.182 147.082C180.971 147.475 180.911 147.932 181.014 148.366C181.131 148.787 181.407 149.147 181.783 149.369L182.179 149.536C182.47 149.613 182.776 149.613 183.067 149.536V149.531Z" fill="#151E4A"/>
<path d="M192.144 147.665H194.054C194.277 147.676 194.5 147.626 194.698 147.521C194.903 147.456 195.088 147.337 195.233 147.178C195.395 147.033 195.516 146.846 195.581 146.638C195.686 146.44 195.736 146.218 195.725 145.994C195.726 145.553 195.555 145.13 195.247 144.814C194.929 144.511 194.507 144.34 194.068 144.337H192.158C191.935 144.331 191.713 144.38 191.514 144.48C191.308 144.551 191.123 144.67 190.974 144.829C190.68 145.153 190.511 145.571 190.497 146.008C190.496 146.45 190.667 146.874 190.974 147.192C191.294 147.496 191.717 147.666 192.158 147.67L192.144 147.665Z" fill="#151E4A"/>
<path d="M207.074 147.731L210.249 147.435C210.472 147.444 210.695 147.395 210.893 147.292C211.099 147.222 211.285 147.102 211.433 146.943C211.591 146.787 211.717 146.601 211.802 146.396C211.888 146.192 211.932 145.972 211.932 145.75C211.932 145.527 211.888 145.307 211.802 145.103C211.717 144.898 211.591 144.712 211.433 144.556C211.278 144.401 211.093 144.278 210.89 144.196C210.686 144.114 210.468 144.074 210.249 144.078L207.074 144.374C206.85 144.364 206.627 144.413 206.429 144.518C206.223 144.585 206.037 144.703 205.89 144.861C205.731 145.017 205.606 145.203 205.52 145.408C205.434 145.613 205.39 145.833 205.39 146.055C205.39 146.277 205.434 146.497 205.52 146.702C205.606 146.907 205.731 147.093 205.89 147.249C206.045 147.403 206.23 147.525 206.433 147.607C206.637 147.689 206.854 147.73 207.074 147.726V147.731Z" fill="#151E4A"/>
<path d="M218.704 141.4C219.032 141.165 219.343 140.906 219.635 140.627C219.919 140.327 220.183 140.008 220.423 139.672C220.824 139.115 221.145 138.504 221.377 137.858C221.446 137.643 221.456 137.414 221.406 137.194C221.396 136.972 221.329 136.757 221.21 136.569C220.985 136.196 220.627 135.923 220.208 135.805C219.993 135.746 219.769 135.73 219.549 135.759C219.328 135.788 219.116 135.86 218.923 135.972L218.584 136.234C218.377 136.436 218.229 136.69 218.155 136.97C218.155 137.022 218.112 137.07 218.093 137.122L218.26 136.721C218.061 137.19 217.803 137.632 217.491 138.034L217.754 137.7C217.448 138.089 217.095 138.438 216.703 138.741L217.042 138.483H217.009C216.814 138.582 216.65 138.73 216.531 138.913C216.385 139.074 216.281 139.269 216.231 139.481C216.158 139.702 216.15 139.938 216.207 140.164C216.217 140.384 216.284 140.598 216.402 140.784C216.627 141.158 216.986 141.433 217.405 141.553L217.849 141.61C218.145 141.612 218.435 141.533 218.689 141.381L218.704 141.4Z" fill="#151E4A"/>
<path d="M225.919 128.705C226.001 128.547 226.097 128.397 226.205 128.256L225.943 128.595C226.101 128.393 226.284 128.212 226.487 128.055L226.148 128.318C226.343 128.167 226.556 128.042 226.783 127.946L226.387 128.113C226.54 128.044 226.7 127.989 226.864 127.95C227.077 127.902 227.273 127.798 227.432 127.65C227.618 127.533 227.768 127.368 227.867 127.172C227.986 126.986 228.053 126.772 228.062 126.551C228.113 126.33 228.103 126.099 228.034 125.883C227.914 125.465 227.639 125.108 227.265 124.885L226.864 124.718C226.574 124.637 226.267 124.637 225.976 124.718C225.631 124.806 225.297 124.931 224.978 125.09C224.664 125.254 224.369 125.453 224.1 125.682C223.924 125.814 223.764 125.965 223.622 126.131C223.382 126.399 223.174 126.694 223.002 127.01C222.879 127.194 222.81 127.409 222.801 127.63C222.752 127.852 222.764 128.083 222.834 128.299C222.881 128.511 222.983 128.707 223.13 128.867C223.251 129.048 223.415 129.196 223.608 129.297C223.801 129.408 224.015 129.48 224.236 129.509C224.457 129.537 224.682 129.522 224.897 129.464C225.317 129.348 225.676 129.072 225.895 128.695L225.919 128.705Z" fill="#151E4A"/>
<path d="M157.356 108.099C157.676 108.524 157.944 108.985 158.154 109.474L157.982 109.077C158.202 109.603 158.353 110.155 158.431 110.72L158.373 110.276C158.392 110.435 158.407 110.594 158.416 110.753C158.422 111.192 158.592 111.613 158.894 111.932C159.212 112.239 159.636 112.41 160.078 112.41C160.52 112.407 160.944 112.231 161.257 111.918C161.57 111.605 161.746 111.181 161.749 110.739C161.677 109.177 161.151 107.671 160.235 106.404C159.998 106.041 159.644 105.77 159.233 105.635C158.799 105.519 158.338 105.579 157.948 105.802C157.572 106.022 157.296 106.38 157.18 106.8C157.117 107.015 157.099 107.24 157.128 107.462C157.157 107.684 157.231 107.897 157.347 108.089L157.356 108.099Z" fill="#151E4A"/>
<path d="M161.229 121.09L162.456 123.955C162.556 124.148 162.704 124.313 162.886 124.432C163.047 124.579 163.242 124.682 163.454 124.733C163.89 124.848 164.353 124.786 164.743 124.561C165.12 124.341 165.395 123.983 165.512 123.563L165.569 123.119C165.57 122.823 165.492 122.531 165.345 122.274L164.118 119.409C164.019 119.215 163.871 119.05 163.688 118.932C163.527 118.785 163.332 118.682 163.12 118.631C162.685 118.515 162.222 118.575 161.831 118.798C161.454 119.02 161.179 119.38 161.062 119.801L161.005 120.245C161.004 120.54 161.081 120.83 161.229 121.085V121.09Z" fill="#151E4A"/>
<path d="M168.104 130.945L169.374 131.9C169.559 132.021 169.774 132.09 169.995 132.1C170.217 132.148 170.447 132.138 170.663 132.071C171.075 131.937 171.427 131.666 171.661 131.303L171.828 130.902C171.91 130.611 171.91 130.304 171.828 130.014L171.661 129.617C171.517 129.369 171.312 129.162 171.065 129.016L169.79 128.061C169.397 127.85 168.94 127.79 168.505 127.894C168.291 127.939 168.094 128.042 167.933 128.19C167.751 128.31 167.603 128.474 167.503 128.667L167.336 129.064C167.255 129.354 167.255 129.661 167.336 129.952L167.503 130.353C167.649 130.6 167.856 130.805 168.104 130.949V130.945Z" fill="#151E4A"/>
<path d="M179.124 135.28H182.618C183.062 135.28 183.487 135.104 183.8 134.79C184.113 134.477 184.29 134.052 184.29 133.609C184.281 133.168 184.102 132.748 183.791 132.436C183.479 132.125 183.059 131.946 182.618 131.938H179.124C178.684 131.94 178.262 132.111 177.944 132.415C177.704 132.647 177.539 132.946 177.471 133.272C177.402 133.599 177.434 133.939 177.561 134.248C177.688 134.557 177.905 134.82 178.184 135.004C178.462 135.188 178.79 135.284 179.124 135.28Z" fill="#151E4A"/>
<path d="M195.753 132L198.618 131.331C199.045 131.213 199.407 130.93 199.625 130.546C199.843 130.161 199.9 129.705 199.783 129.278C199.666 128.857 199.391 128.498 199.014 128.276C198.622 128.062 198.164 128.002 197.73 128.108L194.865 128.777C194.548 128.864 194.263 129.042 194.047 129.29C193.83 129.538 193.692 129.845 193.649 130.171C193.606 130.498 193.661 130.83 193.806 131.125C193.951 131.421 194.18 131.667 194.464 131.833C194.858 132.046 195.318 132.106 195.753 132Z" fill="#151E4A"/>
<path d="M217.754 122.866C218.351 123.098 218.962 123.294 219.582 123.453C220.991 123.649 222.285 122.608 223.106 121.448C223.927 120.288 224.505 118.927 225.531 117.943C226.042 117.466 226.644 117.079 227.174 116.621C227.914 115.971 228.503 115.169 228.901 114.268C229.3 113.368 229.497 112.392 229.48 111.407C229.48 110.476 229.15 109.435 228.315 109.02C227.934 108.862 227.524 108.785 227.112 108.796C225.035 108.733 222.815 109.015 221.105 110.323C219.396 111.632 218.776 113.608 217.286 114.993C215.333 116.821 211.619 117.242 212.077 120.765C212.43 123.391 216.073 122.412 217.754 122.866Z" fill="#9A67FF"/>
<path d="M157.132 137.634C155.819 138.183 154.644 139.271 154.377 140.67C154.167 141.778 154.539 142.943 154.262 144.036C153.943 145.316 152.83 146.204 151.961 147.202C151.092 148.199 150.462 149.713 151.221 150.797C151.98 151.881 153.508 151.799 154.621 151.231C155.733 150.663 156.588 149.703 157.643 149.04C159.328 147.98 161.505 147.679 162.852 146.213C163.993 144.977 164.284 143.196 164.456 141.525C164.585 140.465 164.695 139.343 164.279 138.354C164.022 137.803 163.592 137.35 163.055 137.065C162.517 136.78 161.901 136.678 161.3 136.774C159.93 136.956 158.435 137.089 157.132 137.634Z" fill="#FF7E5B"/>
<path d="M320.768 301.704C320.417 301.705 320.075 301.596 319.79 301.391C319.505 301.186 319.293 300.896 319.183 300.563L308.288 267.8C308.159 267.383 308.2 266.932 308.399 266.544C308.599 266.156 308.943 265.862 309.357 265.724C309.771 265.586 310.223 265.616 310.616 265.806C311.008 265.997 311.31 266.334 311.458 266.745L322.353 299.507C322.423 299.716 322.45 299.935 322.435 300.154C322.419 300.373 322.36 300.587 322.262 300.783C322.163 300.979 322.027 301.154 321.861 301.297C321.695 301.44 321.502 301.549 321.293 301.618C321.124 301.676 320.947 301.706 320.768 301.704Z" fill="#151E4A"/>
<path d="M324.559 371.726C324.173 371.727 323.798 371.593 323.499 371.349C323.366 371.239 309.534 359.981 285.132 345.089C272.775 337.555 259.946 335.698 245.093 333.544C227.122 330.942 206.758 327.992 181.807 314.155C160.546 302.362 144.829 274.813 129.632 248.172C114.659 221.912 100.507 197.123 82.0825 187.703C63.8392 178.374 45.1137 176.665 26.4407 182.623C12.4515 187.082 3.73804 194.416 3.64732 194.488C3.30986 194.775 2.87203 194.917 2.43016 194.881C1.98828 194.846 1.57856 194.637 1.29112 194.299C1.00367 193.962 0.862054 193.524 0.897422 193.082C0.93279 192.64 1.14224 192.23 1.47971 191.943C1.85211 191.628 10.704 184.16 25.29 179.481C38.7588 175.161 59.8095 172.563 83.6008 184.733C102.923 194.612 117.309 219.826 132.534 246.525C147.507 272.784 162.986 299.903 183.426 311.243C207.842 324.783 227.886 327.686 245.57 330.245C260.791 332.451 273.931 334.351 286.874 342.248C307.065 354.566 320.1 364.445 324.215 367.663C329.119 361.282 334.957 355.677 341.532 351.038C352.767 342.998 371.612 333.778 397.685 335.473C403.892 335.874 409.788 336.376 415.508 336.863C455.084 340.205 481.224 342.439 491.733 302.486C493.246 296.719 494.655 290.636 496.03 284.749C501.033 263.106 506.209 240.728 518.685 223.679C532.884 204.261 554.67 194.822 585.284 194.822C585.727 194.822 586.152 194.998 586.466 195.311C586.779 195.625 586.955 196.05 586.955 196.493C586.955 196.936 586.779 197.361 586.466 197.675C586.152 197.988 585.727 198.164 585.284 198.164C519.487 198.164 509.217 242.567 499.286 285.504C497.92 291.41 496.507 297.521 494.989 303.336C483.769 346.001 455.027 343.561 415.255 340.186C409.554 339.708 403.658 339.202 397.494 338.801C372.49 337.178 354.395 345.963 343.624 353.669C331.907 362.019 326.044 370.886 325.987 370.972C325.859 371.169 325.691 371.338 325.494 371.465C325.296 371.593 325.074 371.677 324.841 371.712C324.748 371.725 324.653 371.73 324.559 371.726Z" fill="#151E4A"/>
<path d="M137.147 284.128V284.162C137.155 284.428 137.096 284.693 136.974 284.93C136.852 285.168 136.672 285.371 136.451 285.519C136.23 285.668 135.974 285.759 135.708 285.782C135.442 285.805 135.175 285.76 134.931 285.651C132.537 284.524 129.893 284.031 127.254 284.219C127.025 284.219 126.8 284.257 126.571 284.281C126.302 284.321 126.027 284.283 125.778 284.172C125.53 284.061 125.318 283.882 125.167 283.655C125.017 283.428 124.935 283.163 124.929 282.891C124.924 282.619 124.997 282.351 125.139 282.118C126.479 279.762 127.166 277.09 127.13 274.379V274.345C127.128 274.079 127.194 273.816 127.322 273.581C127.45 273.347 127.635 273.149 127.86 273.006C128.085 272.862 128.343 272.779 128.61 272.763C128.876 272.746 129.142 272.798 129.383 272.913C131.738 274.089 134.37 274.599 136.994 274.388C137.223 274.388 137.447 274.35 137.667 274.322C137.931 274.273 138.204 274.303 138.452 274.406C138.7 274.51 138.912 274.683 139.064 274.904C139.215 275.126 139.299 275.387 139.306 275.656C139.312 275.924 139.24 276.189 139.099 276.418C137.735 278.753 137.059 281.426 137.147 284.128Z" fill="#FF7E5B"/>
<path d="M200.704 347.682C200.415 347.681 200.131 347.605 199.879 347.461C199.628 347.317 199.419 347.11 199.272 346.861C198.57 345.677 197.883 344.473 197.229 343.342L196.976 342.898C196.727 342.454 196.498 342.019 196.226 341.551C195.897 340.931 195.572 340.301 195.271 339.67C195.081 339.27 195.057 338.811 195.205 338.393C195.352 337.975 195.659 337.633 196.059 337.441C196.641 337.164 197.214 336.877 197.763 336.586L199.893 335.411C200.957 334.819 201.96 334.256 202.982 333.65C203.359 333.461 203.795 333.421 204.2 333.54C204.605 333.659 204.951 333.926 205.167 334.289C205.382 334.652 205.453 335.083 205.364 335.496C205.275 335.909 205.033 336.273 204.686 336.514C203.626 337.14 202.557 337.737 201.521 338.314L199.353 339.513L199.024 339.685L199.167 339.952C199.411 340.396 199.644 340.811 199.883 341.232L200.136 341.68C200.781 342.807 201.459 343.977 202.151 345.147C202.301 345.4 202.381 345.688 202.383 345.982C202.386 346.277 202.311 346.566 202.165 346.822C202.02 347.078 201.81 347.291 201.556 347.439C201.302 347.588 201.013 347.666 200.719 347.668L200.704 347.682Z" fill="#151E4A"/>
<path d="M221.459 351.1C221.119 351.101 220.787 350.999 220.508 350.806C220.228 350.614 220.013 350.341 219.893 350.024C219.772 349.706 219.75 349.36 219.832 349.03C219.913 348.701 220.092 348.403 220.346 348.178C222.18 346.55 223.688 345.209 225.04 343.977C223.708 342.544 222.285 340.997 220.652 339.202C220.504 339.04 220.389 338.851 220.315 338.644C220.24 338.438 220.207 338.219 220.217 338C220.227 337.78 220.28 337.565 220.373 337.366C220.466 337.168 220.597 336.989 220.759 336.841C220.921 336.693 221.111 336.579 221.317 336.504C221.524 336.429 221.743 336.396 221.962 336.406C222.181 336.416 222.396 336.469 222.595 336.562C222.794 336.655 222.972 336.787 223.12 336.949C225.226 339.26 226.978 341.16 228.64 342.926C228.791 343.089 228.909 343.28 228.986 343.488C229.064 343.696 229.099 343.918 229.09 344.14C229.081 344.362 229.028 344.58 228.935 344.781C228.841 344.983 228.708 345.164 228.544 345.314C226.83 346.875 224.987 348.527 222.566 350.675C222.262 350.949 221.868 351.1 221.459 351.1Z" fill="#151E4A"/>
<path d="M207.021 348.637C206.709 348.634 206.405 348.545 206.142 348.379C205.878 348.213 205.666 347.977 205.529 347.698C205.393 347.418 205.336 347.106 205.367 346.796C205.398 346.487 205.514 346.191 205.703 345.944C208.209 342.745 210.831 339.26 213.948 334.929C214.076 334.75 214.238 334.597 214.424 334.48C214.611 334.363 214.819 334.284 215.036 334.247C215.253 334.21 215.476 334.216 215.69 334.265C215.905 334.315 216.108 334.406 216.288 334.533C216.467 334.661 216.62 334.822 216.737 335.009C216.854 335.196 216.934 335.404 216.97 335.621C217.007 335.838 217.001 336.06 216.952 336.275C216.903 336.49 216.812 336.693 216.684 336.873C213.542 341.222 210.897 344.755 208.362 347.988C208.205 348.193 208.001 348.358 207.768 348.471C207.535 348.584 207.279 348.641 207.021 348.637Z" fill="#151E4A"/>
<path d="M22.2865 200.623C21.5604 200.625 20.8534 200.391 20.2724 199.955C19.6913 199.52 19.2679 198.907 19.0662 198.209C18.8644 197.512 18.8953 196.768 19.1542 196.089C19.413 195.411 19.8857 194.835 20.5008 194.45C20.6393 194.368 20.7682 194.278 20.9019 194.192C21.2122 193.986 21.5655 193.752 21.9666 193.528L25.3517 191.618L25.5522 191.513L29.0615 189.837L29.2811 189.742L32.1744 188.601L32.2652 188.567C36.4666 187.017 40.8725 186.091 45.3425 185.817C46.2288 185.77 47.0978 186.076 47.7581 186.67C48.4185 187.263 48.8161 188.094 48.8636 188.98C48.9111 189.867 48.6045 190.736 48.0113 191.396C47.4181 192.056 46.5869 192.454 45.7005 192.502C41.8994 192.736 38.153 193.526 34.5808 194.846L31.8402 195.93L28.5363 197.505L25.2276 199.367C25.0318 199.477 24.8122 199.625 24.5735 199.778L24.053 200.117C23.523 200.447 22.9111 200.623 22.2865 200.623Z" fill="#FF7E5B"/>
<path d="M79.0747 208.883C78.6197 208.883 78.1696 208.79 77.7517 208.61C77.3338 208.431 76.957 208.167 76.6444 207.837C75.3076 206.405 73.8657 204.915 72.3904 203.511C70.9802 202.133 69.5014 200.826 67.9597 199.596C64.9993 197.246 61.6537 195.427 58.0717 194.22C57.6424 194.089 57.244 193.872 56.9003 193.583C56.5566 193.294 56.2746 192.939 56.0713 192.538C55.8679 192.138 55.7474 191.701 55.7168 191.253C55.6861 190.805 55.7461 190.355 55.8931 189.931C56.0401 189.506 56.2711 189.116 56.5723 188.783C56.8735 188.45 57.2388 188.181 57.6462 187.992C58.0537 187.803 58.495 187.699 58.9438 187.684C59.3926 187.67 59.8397 187.746 60.2584 187.908C64.5541 189.363 68.5663 191.548 72.1182 194.368C73.8209 195.717 75.4543 197.151 77.0121 198.665C78.5877 200.164 80.1012 201.749 81.5049 203.234C81.9522 203.709 82.2508 204.304 82.3638 204.947C82.4768 205.589 82.3994 206.251 82.141 206.85C81.8827 207.449 81.4546 207.959 80.9098 208.318C80.3649 208.676 79.727 208.868 79.0747 208.868V208.883Z" fill="#FF7E5B"/>
<path d="M258.509 351.545C258.359 351.545 258.208 351.534 258.06 351.511C253.009 350.829 247.957 350.241 243.679 349.764C242.798 349.664 241.992 349.219 241.439 348.526C240.886 347.832 240.632 346.947 240.731 346.066C240.83 345.185 241.276 344.379 241.969 343.826C242.663 343.273 243.548 343.018 244.429 343.118C248.726 343.595 253.839 344.197 258.953 344.889C259.795 345 260.563 345.427 261.101 346.084C261.639 346.741 261.907 347.578 261.851 348.425C261.794 349.272 261.418 350.066 260.797 350.646C260.176 351.225 259.358 351.547 258.509 351.545Z" fill="#FF7E5B"/>
<path d="M181.798 335.965C181.165 335.966 180.545 335.786 180.012 335.445C178.327 334.38 176.718 333.229 175.166 332.102L174.76 331.811L174.684 331.754L172.22 329.877C171.657 329.453 171.107 329.009 170.578 328.574L169.752 327.906C166.476 325.232 163.296 322.425 160.26 319.536C157.223 316.647 154.192 313.568 151.432 310.565C148.152 306.95 145.559 303.88 143.253 300.935C142.972 300.589 142.762 300.191 142.636 299.764C142.51 299.336 142.472 298.888 142.522 298.445C142.572 298.003 142.71 297.575 142.928 297.186C143.146 296.797 143.44 296.456 143.791 296.183C144.143 295.91 144.546 295.709 144.976 295.594C145.407 295.478 145.856 295.45 146.297 295.511C146.739 295.571 147.163 295.719 147.547 295.947C147.93 296.174 148.264 296.475 148.529 296.833C150.73 299.655 153.218 302.587 156.369 306.058C159.014 308.922 161.878 311.849 164.867 314.695C167.78 317.464 170.835 320.161 173.939 322.701L174.793 323.394C175.295 323.804 175.748 324.191 176.226 324.549L179.028 326.664C180.575 327.772 182.036 328.818 183.559 329.787C184.17 330.175 184.639 330.75 184.895 331.427C185.15 332.104 185.18 332.846 184.978 333.541C184.776 334.236 184.354 334.846 183.775 335.281C183.197 335.716 182.493 335.95 181.769 335.951L181.798 335.965Z" fill="#151E4A"/>
<path d="M121.243 265.489C120.679 265.489 120.124 265.347 119.629 265.074C119.135 264.802 118.718 264.409 118.416 263.932C113.198 255.677 107.459 247.222 101.357 238.747C101.089 238.392 100.894 237.987 100.784 237.555C100.674 237.124 100.651 236.675 100.717 236.234C100.783 235.794 100.937 235.371 101.168 234.991C101.4 234.611 101.706 234.281 102.067 234.02C102.428 233.76 102.837 233.574 103.271 233.474C103.705 233.374 104.155 233.361 104.593 233.437C105.032 233.513 105.451 233.676 105.826 233.917C106.201 234.157 106.524 234.47 106.776 234.837C112.959 243.402 118.775 251.992 124.065 260.361C124.384 260.866 124.562 261.448 124.58 262.046C124.598 262.643 124.456 263.234 124.168 263.758C123.88 264.282 123.456 264.719 122.942 265.023C122.427 265.327 121.841 265.488 121.243 265.489Z" fill="#9A67FF"/>
<path d="M301.098 374.218C300.605 374.219 300.118 374.11 299.673 373.901C299.227 373.691 298.833 373.385 298.519 373.006C292.628 365.844 284.673 359.981 275.449 355.975C275.047 355.8 274.682 355.547 274.378 355.231C274.073 354.915 273.833 354.542 273.672 354.134C273.512 353.725 273.433 353.289 273.441 352.85C273.449 352.411 273.543 351.978 273.718 351.576C273.894 351.173 274.146 350.809 274.462 350.504C274.778 350.199 275.151 349.96 275.56 349.799C275.968 349.638 276.404 349.56 276.843 349.567C277.282 349.575 277.715 349.67 278.118 349.845C288.278 354.271 297.111 360.826 303.671 368.747C304.075 369.236 304.332 369.829 304.411 370.458C304.49 371.087 304.389 371.725 304.119 372.299C303.85 372.872 303.422 373.357 302.887 373.697C302.352 374.037 301.731 374.218 301.098 374.218Z" fill="#9A67FF"/>
<path d="M96.506 226.582C93.7416 228.673 89.922 228.282 87.912 225.751C85.9019 223.221 86.4796 219.43 89.1533 217.234C91.827 215.037 95.7326 215.372 97.7951 218.007C99.8577 220.643 99.2705 224.481 96.506 226.582Z" fill="#151E4A"/>
<path d="M321.112 405.377C327.892 407.076 334.958 405.119 340.869 401.715C346.942 398.229 351.883 393.149 356.944 388.384C358.214 387.186 359.499 385.997 360.821 384.861C361.458 384.301 362.107 383.756 362.769 383.228L363.247 382.855L363.481 382.674C363.519 382.645 363.762 382.454 363.605 382.574L363.729 382.478L363.968 382.302C364.144 382.163 364.321 382.029 364.502 381.901C367.165 379.916 370.005 378.182 372.987 376.72C373.346 376.548 373.704 376.389 374.061 376.243L374.6 375.999L374.873 375.885C375.321 375.689 374.562 376.009 375.016 375.823C375.77 375.512 376.525 375.221 377.293 374.954C378.845 374.408 380.43 373.962 382.039 373.617C382.855 373.44 383.681 373.297 384.507 373.178C384.574 373.178 384.837 373.139 384.507 373.178L384.803 373.139L385.353 373.077C385.73 373.039 386.112 373.006 386.494 372.982C388 372.874 389.513 372.874 391.02 372.982C391.383 373.006 391.741 373.039 392.099 373.077L392.638 373.144C392.72 373.144 392.968 373.173 392.595 373.144L392.934 373.197C393.67 373.306 394.4 373.44 395.126 373.603C396.589 373.933 398.026 374.373 399.423 374.92L399.9 375.121C400.13 375.211 399.647 375.006 399.872 375.121L400.115 375.231C400.483 375.393 400.846 375.565 401.209 375.741C401.867 376.06 402.504 376.413 403.118 376.801C403.733 377.19 404.369 377.61 405.028 378.062C405.109 378.124 405.506 378.434 405.219 378.2L405.639 378.535C405.931 378.773 406.217 379.012 406.499 379.275C407.048 379.752 407.573 380.287 408.074 380.826C408.389 381.137 408.813 381.312 409.256 381.312C409.698 381.312 410.123 381.137 410.438 380.826C410.749 380.507 410.923 380.079 410.923 379.633C410.923 379.187 410.749 378.758 410.438 378.439C406.207 373.87 400.301 371.024 394.204 370.026C387.698 369.023 381.042 369.79 374.935 372.247C368.475 374.777 362.741 378.682 357.575 383.276C354.944 385.615 352.437 388.093 349.864 390.495C348.603 391.669 347.333 392.825 346.02 393.937C345.349 394.51 344.663 395.069 343.963 395.613C343.705 395.813 343.877 395.68 343.929 395.613L343.681 395.804L343.203 396.176C342.836 396.448 342.468 396.716 342.096 396.974C340.721 397.93 339.286 398.796 337.799 399.566C337.044 399.953 336.28 400.311 335.502 400.655C335.263 400.76 335.731 400.564 335.502 400.655L335.225 400.764L334.671 400.984C334.28 401.132 333.884 401.275 333.483 401.404C332.69 401.667 331.888 401.882 331.071 402.087C330.696 402.176 330.314 402.257 329.926 402.331L329.353 402.431L329.061 402.474C328.584 402.55 329.41 402.436 328.928 402.474C327.319 402.67 325.693 402.683 324.082 402.512C324.029 402.512 323.724 402.469 323.943 402.512C324.163 402.555 323.857 402.512 323.805 402.512L323.227 402.416C322.821 402.34 322.415 402.249 322.01 402.149C321.798 402.091 321.577 402.075 321.359 402.102C321.141 402.129 320.931 402.199 320.74 402.307C320.549 402.415 320.382 402.56 320.247 402.734C320.112 402.907 320.012 403.105 319.954 403.316C319.896 403.528 319.88 403.749 319.907 403.967C319.934 404.185 320.004 404.395 320.112 404.586C320.221 404.777 320.365 404.944 320.539 405.079C320.712 405.214 320.91 405.314 321.121 405.372L321.112 405.377Z" fill="#151E4A"/>
<path d="M475.275 368.675C482.8 367.654 489.551 363.256 494.693 357.828C500.422 351.802 504.366 344.426 508.205 337.14C512.4 329.183 516.595 321.216 520.79 313.239C522.609 309.806 524.476 306.388 526.629 303.146C527.174 302.325 527.737 301.519 528.319 300.73C528.453 300.544 528.592 300.362 528.73 300.181L528.897 299.961C528.654 300.276 528.935 299.913 528.969 299.87C529.279 299.474 529.594 299.083 529.924 298.701C531.148 297.229 532.479 295.848 533.906 294.571C534.24 294.275 534.579 293.984 534.927 293.702L535.18 293.501C535.233 293.458 535.572 293.181 535.247 293.444C535.448 293.282 535.658 293.134 535.868 292.967C536.598 292.437 537.358 291.935 538.136 291.477C538.914 291.019 539.716 290.584 540.523 290.197L541.11 289.93C541.23 289.877 541.344 289.82 541.464 289.772C541.416 289.772 541.134 289.911 541.421 289.772C541.86 289.601 542.299 289.429 542.743 289.295C543.607 288.994 544.487 288.741 545.379 288.536C545.811 288.437 546.246 288.351 546.682 288.278C546.889 288.235 547.097 288.203 547.308 288.183C546.911 288.216 547.15 288.183 547.241 288.183L547.718 288.125C548.594 288.039 549.474 288.011 550.354 288.039C550.769 288.039 551.184 288.082 551.6 288.12C551.714 288.12 552.373 288.183 551.901 288.154C552.151 288.179 552.4 288.219 552.645 288.273C553.517 288.433 554.376 288.658 555.214 288.946C555.641 289.061 556.095 289.003 556.479 288.785C556.864 288.567 557.147 288.207 557.267 287.781C557.374 287.354 557.313 286.903 557.096 286.52C556.879 286.136 556.523 285.851 556.102 285.724C548.826 283.236 540.7 285.49 534.574 289.777C528.047 294.342 523.593 301.14 519.773 308.006C517.696 311.764 515.734 315.588 513.733 319.389L507.355 331.501C505.378 335.259 503.435 339.04 501.329 342.726C500.298 344.531 499.224 346.317 498.073 348.055C497.514 348.9 496.937 349.735 496.345 350.552C496.058 350.943 495.767 351.33 495.481 351.716C495.194 352.103 495.681 351.459 495.385 351.836L495.161 352.122C494.986 352.345 494.804 352.57 494.616 352.796C493.41 354.282 492.112 355.692 490.73 357.016C490.052 357.661 489.35 358.286 488.629 358.883L488.123 359.294L487.865 359.499C487.521 359.776 488.142 359.294 487.789 359.556C487.436 359.819 487.025 360.129 486.633 360.406C485.148 361.456 483.578 362.381 481.94 363.17L481.3 363.471L481.004 363.6C480.937 363.629 480.527 363.815 480.928 363.634C480.503 363.834 480.049 363.987 479.605 364.144C478.757 364.451 477.893 364.712 477.018 364.928C476.14 365.146 475.25 365.315 474.353 365.434C473.932 365.549 473.572 365.825 473.351 366.202C473.13 366.594 473.07 367.056 473.184 367.491C473.494 368.446 474.311 368.785 475.242 368.656L475.275 368.675Z" fill="#151E4A"/>
<path d="M533.471 195.013C533.863 194.822 534.259 194.636 534.655 194.454L535.252 194.187C535.452 194.065 535.667 193.972 535.892 193.91C535.828 193.942 535.763 193.971 535.696 193.996L535.859 193.924L536.14 193.81L536.79 193.552C537.196 193.39 537.601 193.237 538.012 193.075C538.847 192.769 539.688 192.492 540.538 192.234C542.223 191.72 543.935 191.298 545.665 190.969C546.095 190.888 546.525 190.816 546.959 190.745C547.171 190.686 547.369 190.586 547.542 190.451C547.715 190.316 547.86 190.148 547.968 189.957C548.077 189.766 548.146 189.556 548.173 189.338C548.2 189.12 548.183 188.898 548.124 188.687C548.006 188.269 547.733 187.912 547.36 187.689C546.963 187.487 546.507 187.428 546.071 187.522C542.533 188.101 539.067 189.062 535.735 190.387C532.307 191.738 529.025 193.432 525.937 195.443C522.839 197.467 519.949 199.794 517.31 202.39C514.687 204.976 512.331 207.82 510.277 210.879C508.219 213.952 506.499 217.238 505.144 220.681C504.982 221.086 504.825 221.497 504.667 221.908C504.551 222.334 504.609 222.79 504.827 223.174C505.045 223.559 505.406 223.841 505.832 223.961C506.259 224.067 506.71 224.005 507.093 223.788C507.476 223.572 507.761 223.216 507.89 222.796C508.038 222.385 508.195 221.974 508.367 221.569C508.444 221.363 508.53 221.163 508.611 220.962C508.649 220.867 508.687 220.771 508.73 220.681C508.51 221.201 508.701 220.747 508.73 220.638C509.074 219.836 509.441 219.04 509.833 218.25C510.616 216.673 511.481 215.138 512.426 213.653C512.903 212.901 513.398 212.165 513.91 211.442C514.173 211.074 514.44 210.711 514.712 210.349C514.832 210.186 514.951 210.024 515.08 209.871L514.98 210L515.061 209.895L515.305 209.589C516.398 208.207 517.562 206.881 518.79 205.617C520.017 204.352 521.306 203.144 522.652 202.008C522.987 201.726 523.326 201.444 523.665 201.172L524.18 200.761L524.419 200.575L524.29 200.676L524.462 200.542C525.159 200.013 525.867 199.501 526.587 199.004" fill="#151E4A"/>
<path d="M64.7608 161.005C69.2741 161.621 73.7122 162.699 78.0052 164.223C79.0699 164.605 80.1298 165.006 81.1802 165.44L81.5478 165.593L81.7484 165.674L81.5956 165.612L82.4073 165.961C82.9325 166.195 83.4529 166.438 83.9733 166.677C86.0263 167.632 88.0316 168.695 89.9891 169.866C91.9467 171.038 93.8565 172.295 95.7185 173.638C96.1673 173.968 96.6161 174.306 97.0649 174.645L97.2034 174.755L97.1079 174.684L97.423 174.927L98.1153 175.476C99.0129 176.202 99.8866 176.942 100.746 177.706C102.446 179.215 104.069 180.806 105.616 182.48C106.375 183.302 107.12 184.137 107.841 184.997C108.213 185.431 108.576 185.875 108.934 186.324L109.459 186.983L109.565 187.121L109.598 187.164C109.412 186.921 109.598 187.164 109.627 187.202L109.789 187.412C112.544 191.018 114.926 194.894 116.898 198.981C117.137 199.487 117.376 199.998 117.605 200.509C117.824 200.886 118.182 201.162 118.603 201.278C119.038 201.392 119.501 201.33 119.892 201.106C120.266 200.885 120.541 200.527 120.656 200.108C120.754 199.673 120.695 199.218 120.488 198.823C118.603 194.64 116.291 190.663 113.589 186.954C110.835 183.148 107.717 179.619 104.279 176.417C100.848 173.217 97.1194 170.35 93.1451 167.856C89.1575 165.369 84.9397 163.271 80.55 161.592C76.271 159.948 71.8345 158.748 67.3104 158.011C66.7565 157.92 66.2027 157.839 65.6488 157.763C65.2132 157.659 64.7545 157.718 64.3597 157.93C63.9871 158.154 63.7126 158.51 63.591 158.928C63.5331 159.143 63.5185 159.368 63.548 159.59C63.5775 159.811 63.6506 160.024 63.7629 160.217C63.8679 160.407 64.0106 160.573 64.1822 160.705C64.3539 160.837 64.5508 160.933 64.7608 160.986V161.005Z" fill="#151E4A"/>
<path d="M157.109 355.846C157.012 355.853 156.915 355.853 156.818 355.846C146.384 353.951 136.48 349.837 127.775 343.78C119.071 337.724 111.769 329.868 106.366 320.744C102.202 313.63 99.2756 305.838 96.4444 298.304C95.012 294.542 93.5797 290.665 91.9802 286.917C86.1745 273.286 79.199 264.253 70.6479 259.306C63.0517 254.914 53.369 254.002 44.0731 256.8C34.7772 259.597 27.2192 265.718 23.3184 273.582C23.1169 273.971 22.7707 274.265 22.3543 274.401C21.9379 274.538 21.4846 274.505 21.0921 274.31C20.6996 274.116 20.3993 273.775 20.2558 273.361C20.1123 272.947 20.1371 272.493 20.3248 272.097C24.6219 263.407 32.939 256.671 43.1087 253.601C53.2783 250.531 63.9302 251.557 72.3237 256.413C81.5194 261.736 88.958 271.285 95.055 285.609C96.6735 289.428 98.1489 293.334 99.5717 297.13C102.355 304.535 105.234 312.193 109.254 319.064C114.41 327.77 121.377 335.267 129.683 341.045C137.989 346.824 147.44 350.75 157.395 352.557C157.839 352.595 158.249 352.807 158.535 353.147C158.822 353.488 158.961 353.928 158.923 354.371C158.885 354.814 158.673 355.224 158.332 355.511C157.992 355.797 157.552 355.937 157.109 355.899V355.846Z" fill="#151E4A"/>
<path d="M239.216 329.548L281.804 277.946L308.212 262.577L335.469 281.006L366.303 340.606" fill="white"/>
<path d="M366.302 342.277C365.996 342.277 365.695 342.192 365.433 342.032C365.171 341.872 364.958 341.643 364.818 341.37L334.18 282.167L308.145 264.563L282.902 279.254L240.505 330.627C240.222 330.969 239.816 331.185 239.374 331.227C238.933 331.269 238.493 331.134 238.151 330.852C237.809 330.569 237.593 330.163 237.551 329.721C237.509 329.28 237.644 328.84 237.926 328.498L280.515 276.895C280.64 276.742 280.792 276.613 280.963 276.514L307.371 261.149C307.643 260.991 307.953 260.912 308.267 260.922C308.582 260.932 308.886 261.031 309.147 261.207L336.405 279.636C336.638 279.791 336.827 280.003 336.954 280.252L367.787 339.852C367.918 340.107 367.981 340.391 367.97 340.677C367.96 340.963 367.876 341.242 367.727 341.487C367.578 341.732 367.369 341.934 367.12 342.075C366.87 342.216 366.589 342.29 366.302 342.292V342.277Z" fill="#151E4A"/>
<path d="M309.31 358.835L308.211 262.577L335.469 281.011L366.303 340.611C366.303 340.611 342.043 351.444 335.469 358.019C331.627 361.841 327.986 365.86 324.559 370.06L309.31 358.835Z" fill="#151E4A"/>
<path d="M429.211 215.806C429.378 216.484 429.55 217.162 429.717 217.84C430.178 219.702 430.64 221.562 431.101 223.421C431.799 226.229 432.494 229.038 433.188 231.848L435.78 242.352C436.754 246.296 437.727 250.238 438.698 254.178C439.726 258.342 440.749 262.505 441.768 266.669C442.786 270.832 443.797 274.954 444.799 279.034C445.729 282.854 446.658 286.674 447.588 290.493C448.387 293.784 449.182 297.076 449.975 300.367C450.58 302.891 451.177 305.417 451.765 307.944C451.87 308.421 451.98 308.899 452.085 309.348C452.206 309.774 452.489 310.135 452.875 310.353C453.26 310.571 453.716 310.629 454.143 310.513C454.565 310.387 454.921 310.103 455.138 309.72C455.356 309.338 455.416 308.886 455.308 308.46C454.783 306.158 454.245 303.858 453.694 301.56C452.953 298.435 452.203 295.311 451.445 292.188C450.548 288.454 449.642 284.724 448.729 280.997C447.739 276.938 446.747 272.88 445.754 268.822L442.689 256.341C441.696 252.312 440.701 248.282 439.705 244.252C438.807 240.614 437.908 236.974 437.007 233.333L434.787 224.371C434.262 222.261 433.739 220.151 433.217 218.04C432.973 217.047 432.739 216.054 432.481 215.071C432.468 215.028 432.457 214.985 432.448 214.942C432.33 214.514 432.047 214.151 431.662 213.932C431.276 213.713 430.82 213.657 430.392 213.774C429.965 213.892 429.602 214.175 429.383 214.56C429.164 214.946 429.107 215.402 429.225 215.83L429.211 215.806Z" fill="#151E4A"/>
</svg>
