<svg width="387" height="253" viewBox="0 0 387 253" fill="none" xmlns="http://www.w3.org/2000/svg">
<path d="M237.607 223.024C237.459 223.024 237.313 222.989 237.181 222.921C237.048 222.853 236.933 222.755 236.845 222.633C236.756 222.512 236.697 222.371 236.671 222.221C236.645 222.072 236.654 221.919 236.696 221.773L269.539 107.9C269.597 107.698 269.717 107.521 269.881 107.395C270.045 107.269 270.245 107.201 270.45 107.201H282.778C283.031 107.201 283.273 107.303 283.451 107.486C283.63 107.669 283.73 107.917 283.73 108.175C283.73 108.434 283.63 108.682 283.451 108.864C283.273 109.047 283.031 109.15 282.778 109.15H271.16L238.882 221.072L267.829 220.997C268.081 220.997 268.323 221.099 268.502 221.282C268.68 221.465 268.781 221.713 268.781 221.971C268.781 222.23 268.68 222.477 268.502 222.66C268.323 222.843 268.081 222.946 267.829 222.946L237.604 223.024H237.607Z" fill="#151E4A"/>
<path d="M331.303 223.024H296.538C296.286 223.024 296.044 222.921 295.865 222.738C295.687 222.555 295.586 222.307 295.586 222.049C295.586 221.79 295.687 221.543 295.865 221.36C296.044 221.177 296.286 221.074 296.538 221.074H330.137L307.613 109.15H294.602C294.35 109.15 294.108 109.047 293.929 108.864C293.751 108.682 293.65 108.434 293.65 108.175C293.65 107.917 293.751 107.669 293.929 107.486C294.108 107.303 294.35 107.201 294.602 107.201H308.388C308.606 107.201 308.819 107.278 308.988 107.42C309.158 107.561 309.275 107.758 309.32 107.978L332.236 221.854C332.265 221.996 332.262 222.142 332.229 222.283C332.195 222.424 332.131 222.555 332.042 222.667C331.953 222.78 331.84 222.87 331.712 222.932C331.585 222.994 331.445 223.026 331.303 223.026V223.024Z" fill="#151E4A"/>
<path d="M302.155 223.112H301.095L296.532 223.082L294.463 223.065C291.932 223.045 289.746 223.029 289.142 223.029H280.844C280.717 223.028 280.593 223.002 280.476 222.952C280.36 222.902 280.255 222.829 280.167 222.736C280.078 222.644 280.009 222.535 279.962 222.415C279.915 222.295 279.893 222.167 279.895 222.037L280.294 198.555C280.322 196.884 280.414 195.155 280.504 193.493C280.621 191.287 280.743 189.007 280.713 186.837C280.691 185.097 280.604 183.329 280.517 181.622C280.381 178.896 280.245 176.075 280.357 173.24C280.534 168.902 280.922 164.519 281.3 160.278L281.371 159.479C282.083 151.462 282.82 143.172 282.078 135.072C281.967 133.863 281.735 132.638 281.493 131.337C281.048 128.976 280.591 126.534 280.882 124.12C281.363 120.113 282.257 110.453 282.016 108.754C281.895 108.589 281.83 108.387 281.831 108.181C281.831 107.922 281.931 107.674 282.109 107.492C282.288 107.309 282.53 107.206 282.782 107.206H294.602C295.578 107.206 295.616 108.189 295.654 109.139C295.679 109.751 295.698 110.631 295.711 111.831C295.736 114.059 295.741 117.055 295.747 120.224C295.747 126.807 295.766 134.272 295.975 135.743C296.739 141.145 297.174 146.711 297.607 152.094C297.816 154.792 298.033 157.579 298.289 160.297L304.105 222.046C304.118 222.181 304.103 222.318 304.062 222.447C304.02 222.576 303.952 222.694 303.863 222.795C303.607 223.065 303.567 223.112 302.155 223.112ZM289.142 221.074C289.751 221.074 291.943 221.091 294.477 221.11L296.546 221.127C297.906 221.127 300.625 221.158 302.101 221.163L296.391 160.478C296.119 157.744 295.915 154.948 295.703 152.244C295.284 146.892 294.852 141.356 294.096 136.016C293.868 134.409 293.857 127.194 293.849 120.221C293.849 115.852 293.849 110.996 293.759 109.15H283.946C283.984 110.219 283.911 112.09 283.639 115.487C283.367 118.929 282.962 122.811 282.774 124.351C282.521 126.464 282.951 128.751 283.367 130.964C283.609 132.251 283.859 133.582 283.979 134.885C284.737 143.164 283.979 151.545 283.272 159.648L283.201 160.45C282.826 164.666 282.437 169.027 282.263 173.315C282.151 176.061 282.29 178.834 282.423 181.516C282.51 183.242 282.6 185.027 282.622 186.807C282.652 189.034 282.529 191.359 282.41 193.598C282.32 195.241 282.23 196.94 282.2 198.586L281.82 221.077H289.161L289.142 221.074Z" fill="#151E4A"/>
<path d="M306.302 63.0452H270.895V95.678H306.302V63.0452Z" fill="#FF7E5B"/>
<path d="M270.895 63.0452L288.919 52.1436L306.302 63.0452" fill="#151E4A"/>
<path d="M288.973 46.2208C289.615 46.2208 290.231 46.4822 290.686 46.9475C291.14 47.4128 291.395 48.0438 291.395 48.7019V58.072H286.553V48.6991C286.553 48.0411 286.808 47.41 287.262 46.9447C287.717 46.4794 288.333 46.218 288.975 46.218L288.973 46.2208Z" fill="#151E4A"/>
<path d="M281.205 68.1965H274.238C272.764 68.1965 271.568 69.4208 271.568 70.9309V78.8613C271.568 80.3715 272.764 81.5957 274.238 81.5957H281.205C282.679 81.5957 283.875 80.3715 283.875 78.8613V70.9309C283.875 69.4208 282.679 68.1965 281.205 68.1965Z" fill="white"/>
<path d="M281.205 82.5737H274.239C273.278 82.5723 272.358 82.1806 271.679 81.4848C271 80.7889 270.618 79.8456 270.617 78.8619V70.9286C270.618 69.9449 271 69.0016 271.679 68.3058C272.358 67.6099 273.278 67.2183 274.239 67.2168H281.205C282.166 67.2183 283.086 67.6099 283.765 68.3058C284.444 69.0016 284.826 69.9449 284.827 70.9286V78.8563C284.828 79.841 284.447 80.7857 283.767 81.4828C283.088 82.1799 282.167 82.5723 281.205 82.5737ZM274.239 69.1716C273.783 69.173 273.346 69.3593 273.024 69.6896C272.702 70.02 272.521 70.4674 272.521 70.9342V78.8619C272.521 79.3287 272.702 79.7761 273.024 80.1065C273.346 80.4368 273.783 80.6231 274.239 80.6245H281.205C281.661 80.6231 282.098 80.4368 282.42 80.1065C282.742 79.7761 282.923 79.3287 282.924 78.8619V70.9286C282.923 70.4619 282.742 70.0144 282.42 69.6841C282.098 69.3537 281.661 69.1675 281.205 69.166L274.239 69.1716Z" fill="#151E4A"/>
<path d="M293.464 68.1965H289.981C288.506 68.1965 287.311 69.4208 287.311 70.9309V78.8613C287.311 80.3715 288.506 81.5957 289.981 81.5957H293.464C294.938 81.5957 296.134 80.3715 296.134 78.8613V70.9309C296.134 69.4208 294.938 68.1965 293.464 68.1965Z" fill="white"/>
<path d="M293.464 82.5737H289.981C289.021 82.5723 288.1 82.1806 287.421 81.4848C286.742 80.7889 286.36 79.8456 286.359 78.8619V70.9286C286.36 69.9449 286.742 69.0016 287.421 68.3058C288.1 67.6099 289.021 67.2183 289.981 67.2168H293.464C294.425 67.2183 295.346 67.6099 296.025 68.3058C296.703 69.0016 297.085 69.9449 297.086 70.9286V78.8563C297.087 79.841 296.706 80.7857 296.026 81.4828C295.347 82.1799 294.426 82.5723 293.464 82.5737ZM289.981 69.1716C289.525 69.1723 289.088 69.3583 288.766 69.6888C288.444 70.0193 288.263 70.4672 288.263 70.9342V78.8619C288.263 79.3289 288.444 79.7768 288.766 80.1073C289.088 80.4378 289.525 80.6238 289.981 80.6245H293.464C293.92 80.6231 294.357 80.4368 294.679 80.1065C295.001 79.7761 295.182 79.3287 295.183 78.8619V70.9286C295.182 70.4619 295.001 70.0144 294.679 69.6841C294.357 69.3537 293.92 69.1675 293.464 69.166L289.981 69.1716Z" fill="#151E4A"/>
<path d="M302.971 68.1965H302.555C301.08 68.1965 299.885 69.4208 299.885 70.9309V78.8613C299.885 80.3715 301.08 81.5957 302.555 81.5957H302.971C304.446 81.5957 305.641 80.3715 305.641 78.8613V70.9309C305.641 69.4208 304.446 68.1965 302.971 68.1965Z" fill="white"/>
<path d="M302.971 82.5737H302.557C301.597 82.5723 300.676 82.1806 299.997 81.4848C299.318 80.7889 298.936 79.8456 298.936 78.8619V70.9286C298.936 69.9449 299.318 69.0016 299.997 68.3058C300.676 67.6099 301.597 67.2183 302.557 67.2168H302.971C303.931 67.2183 304.852 67.6099 305.531 68.3058C306.21 69.0016 306.592 69.9449 306.592 70.9286V78.8563C306.593 79.841 306.212 80.7857 305.533 81.4828C304.854 82.1799 303.932 82.5723 302.971 82.5737ZM302.557 69.1716C302.101 69.1723 301.664 69.3583 301.342 69.6888C301.02 70.0193 300.839 70.4672 300.839 70.9342V78.8619C300.839 79.3289 301.02 79.7768 301.342 80.1073C301.664 80.4378 302.101 80.6238 302.557 80.6245H302.971C303.427 80.6238 303.864 80.4378 304.186 80.1073C304.508 79.7768 304.689 79.3289 304.689 78.8619V70.9286C304.689 70.4616 304.508 70.0137 304.186 69.6832C303.864 69.3528 303.427 69.1667 302.971 69.166L302.557 69.1716Z" fill="#151E4A"/>
<path d="M319.933 95.6778L308.385 108.175H270.24L258.301 95.6778L273.152 92.3L279.708 95.778H298.64L305.169 92.3L319.933 95.6778Z" fill="white"/>
<path d="M308.387 109.15H270.245C270.119 109.152 269.994 109.128 269.877 109.08C269.759 109.033 269.653 108.961 269.562 108.871L257.623 96.3743C257.505 96.2496 257.421 96.0949 257.381 95.9262C257.341 95.7574 257.345 95.5807 257.393 95.4142C257.442 95.2477 257.533 95.0974 257.657 94.9789C257.781 94.8603 257.933 94.7778 258.099 94.7397L272.948 91.3621C273.166 91.312 273.394 91.3426 273.592 91.4484L279.941 94.8177H298.411L304.73 91.4484C304.93 91.3429 305.159 91.3123 305.377 91.3621L320.142 94.7397C320.305 94.7781 320.456 94.8599 320.579 94.977C320.702 95.0941 320.793 95.2423 320.842 95.4066C320.891 95.571 320.897 95.7457 320.859 95.9132C320.821 96.0806 320.74 96.2349 320.626 96.3604L309.078 108.86C308.988 108.954 308.88 109.028 308.762 109.077C308.643 109.127 308.516 109.152 308.387 109.15ZM270.645 107.201H307.977L318.092 96.2545L305.312 93.328L299.094 96.6416C298.958 96.7145 298.807 96.7528 298.653 96.753H279.721C279.568 96.7534 279.418 96.7161 279.283 96.6444L273.029 93.328L260.187 96.249L270.645 107.201Z" fill="#151E4A"/>
<path d="M282.78 109.15C282.617 109.151 282.456 109.109 282.313 109.029C282.171 108.949 282.05 108.832 281.964 108.69L272.333 92.8182C272.2 92.5966 272.159 92.33 272.218 92.077C272.276 91.824 272.431 91.6053 272.647 91.4691C272.864 91.3328 273.124 91.2901 273.371 91.3505C273.618 91.4108 273.832 91.5691 273.965 91.7907L283.596 107.663C283.728 107.883 283.77 108.147 283.712 108.399C283.655 108.65 283.502 108.868 283.288 109.005C283.136 109.102 282.959 109.152 282.78 109.15Z" fill="#151E4A"/>
<path d="M294.601 109.15C294.428 109.15 294.259 109.101 294.11 109.01C293.962 108.918 293.841 108.787 293.761 108.631C293.68 108.474 293.642 108.298 293.652 108.121C293.662 107.944 293.718 107.773 293.815 107.627L304.384 91.7547C304.456 91.6491 304.547 91.5588 304.652 91.4892C304.758 91.4195 304.876 91.3718 304.999 91.3488C305.123 91.3258 305.249 91.3279 305.372 91.355C305.495 91.3822 305.611 91.4338 305.714 91.5069C305.817 91.5801 305.905 91.6733 305.973 91.7813C306.041 91.8893 306.088 92.01 306.11 92.1364C306.133 92.2629 306.131 92.3926 306.104 92.5182C306.078 92.6438 306.027 92.7629 305.956 92.8686L295.387 108.741C295.298 108.869 295.18 108.973 295.043 109.045C294.907 109.116 294.755 109.152 294.601 109.15Z" fill="#151E4A"/>
<path d="M357.219 191.04H344.861V214.873H357.219V191.04Z" fill="#FF7E5B"/>
<path d="M357.217 215.844H344.862C344.737 215.845 344.613 215.82 344.497 215.771C344.382 215.722 344.277 215.65 344.188 215.56C344.1 215.469 344.03 215.362 343.982 215.243C343.934 215.125 343.91 214.998 343.91 214.87V191.039C343.91 190.911 343.934 190.784 343.982 190.666C344.03 190.548 344.1 190.44 344.188 190.349C344.277 190.259 344.382 190.187 344.497 190.138C344.613 190.089 344.737 190.064 344.862 190.065H357.217C357.342 190.064 357.466 190.089 357.582 190.138C357.697 190.187 357.802 190.259 357.891 190.349C357.979 190.44 358.049 190.548 358.097 190.666C358.145 190.784 358.169 190.911 358.169 191.039V214.87C358.169 214.998 358.145 215.125 358.097 215.243C358.049 215.362 357.979 215.469 357.891 215.56C357.802 215.65 357.697 215.722 357.582 215.771C357.466 215.82 357.342 215.845 357.217 215.844ZM345.813 213.895H356.265V192.014H345.813V213.895Z" fill="#151E4A"/>
<path d="M322.584 178.874H348.374L357.407 190.73L325.023 190.839L322.584 178.874Z" fill="#151E4A"/>
<path d="M325.022 191.813C324.803 191.813 324.592 191.736 324.422 191.594C324.253 191.453 324.136 191.256 324.092 191.037L321.645 179.063C321.616 178.921 321.619 178.774 321.652 178.633C321.686 178.493 321.75 178.361 321.839 178.249C321.928 178.136 322.041 178.045 322.168 177.983C322.296 177.921 322.436 177.888 322.577 177.888H348.367C348.512 177.888 348.655 177.922 348.785 177.987C348.915 178.052 349.029 178.147 349.118 178.264L358.15 190.12C358.259 190.264 358.327 190.436 358.346 190.617C358.364 190.798 358.333 190.981 358.256 191.144C358.178 191.308 358.057 191.446 357.907 191.543C357.757 191.641 357.583 191.693 357.405 191.694L325.022 191.802V191.813ZM323.755 179.84L325.797 189.864L355.461 189.764L347.908 179.851L323.755 179.84Z" fill="#151E4A"/>
<path d="M348.372 191.04H325.029V222.049H348.372V191.04Z" fill="white"/>
<path d="M348.375 223.023H325.032C324.779 223.023 324.537 222.921 324.359 222.738C324.18 222.555 324.08 222.307 324.08 222.049V191.039C324.08 190.781 324.18 190.533 324.359 190.35C324.537 190.167 324.779 190.065 325.032 190.065H348.375C348.627 190.065 348.869 190.167 349.048 190.35C349.226 190.533 349.326 190.781 349.326 191.039V222.049C349.326 222.307 349.226 222.555 349.048 222.738C348.869 222.921 348.627 223.023 348.375 223.023ZM325.983 221.074H347.423V192.014H325.983V221.074Z" fill="#151E4A"/>
<path d="M272.195 149.507H267.08L269.087 138.828H274.201L272.195 149.507Z" fill="#151E4A"/>
<path d="M118.564 183.19L113.977 209.176L131.362 204.464L125.788 182.895C125.537 181.922 124.918 181.092 124.069 180.587C123.22 180.081 122.21 179.942 121.261 180.199C120.58 180.384 119.965 180.763 119.487 181.292C119.009 181.822 118.689 182.48 118.564 183.19Z" fill="#9A67FF"/>
<path d="M150.536 179.096L146.012 199.775L163.414 195.063L158.092 178.706C157.777 177.738 157.114 176.929 156.237 176.444C155.36 175.959 154.336 175.834 153.372 176.094C152.676 176.28 152.043 176.658 151.542 177.187C151.042 177.717 150.694 178.377 150.536 179.096Z" fill="#FF7E5B"/>
<path d="M138.686 201.423L142.033 186.968C142.179 186.336 142.49 185.756 142.933 185.29C143.376 184.825 143.934 184.491 144.548 184.326C145.013 184.199 145.498 184.171 145.974 184.244C146.449 184.317 146.905 184.489 147.313 184.751C147.721 185.012 148.073 185.356 148.345 185.762C148.618 186.168 148.806 186.627 148.898 187.11L151.125 199.001L138.686 201.423Z" fill="#9A67FF"/>
<path d="M154.137 176.573L158.851 183.095L167.895 172.845C168.234 172.453 168.41 171.942 168.387 171.42C168.363 170.897 168.142 170.404 167.77 170.046C167.4 169.691 166.911 169.497 166.404 169.503C165.897 169.509 165.412 169.716 165.051 170.08L157.884 177.473L154.137 176.573Z" fill="#FF7E5B"/>
<path d="M153.304 167.164C152.774 166.686 152.165 166.308 151.504 166.051C150.854 165.842 150.15 165.903 149.544 166.22C149.231 166.385 148.966 166.631 148.775 166.933C148.584 167.236 148.474 167.584 148.456 167.944C148.429 168.571 148.753 169.088 148.84 169.687L148.807 169.428C148.818 169.526 148.818 169.625 148.807 169.723L148.842 169.464C148.842 169.514 148.823 169.559 148.813 169.609L149.729 168.894C149.043 168.868 148.374 169.112 147.858 169.576C147.349 170.022 147.028 170.653 146.961 171.336C146.913 171.983 147.089 172.627 147.459 173.154C147.828 173.682 148.367 174.059 148.981 174.22C149.102 174.254 149.227 174.264 149.352 174.248C149.476 174.232 149.595 174.191 149.704 174.128C149.813 174.065 149.908 173.98 149.985 173.879C150.062 173.778 150.118 173.663 150.152 173.54C150.185 173.416 150.194 173.287 150.179 173.16C150.163 173.033 150.123 172.91 150.062 172.799C150 172.688 149.917 172.59 149.819 172.511C149.72 172.433 149.607 172.375 149.487 172.341C149.413 172.321 149.337 172.288 149.264 172.271C149.468 172.313 149.422 172.346 149.321 172.291L149.239 172.246C149.203 172.216 149.163 172.189 149.122 172.165C149.122 172.165 149.302 172.321 149.204 172.229C149.139 172.172 149.077 172.11 149.019 172.046C148.962 171.976 148.957 171.904 149.065 172.11C149.046 172.076 149.019 172.046 148.997 172.012C148.976 171.979 148.921 171.87 148.883 171.801C148.845 171.731 148.967 172.046 148.916 171.879C148.916 171.84 148.891 171.803 148.88 171.764C148.857 171.681 148.839 171.595 148.829 171.508L148.861 171.767C148.845 171.624 148.845 171.479 148.861 171.336L148.829 171.595C148.841 171.514 148.86 171.433 148.883 171.355C148.916 171.252 148.976 171.219 148.856 171.408C148.875 171.375 148.889 171.333 148.908 171.299C148.927 171.266 148.948 171.227 148.97 171.194C148.992 171.16 149.082 171.035 148.97 171.171C148.859 171.308 148.97 171.188 148.987 171.157C149.003 171.127 149.052 171.085 149.087 171.052C149.122 171.018 149.147 170.999 149.177 170.971C149.258 170.896 148.984 171.104 149.117 171.021C149.185 170.976 149.25 170.932 149.321 170.893L149.386 170.862L149.269 170.912C149.308 170.902 149.346 170.889 149.384 170.873C149.466 170.848 149.551 170.829 149.636 170.818L149.384 170.851C149.495 170.84 149.607 170.84 149.718 170.851C149.926 170.85 150.129 170.78 150.294 170.651C150.46 170.521 150.58 170.341 150.637 170.135C150.738 169.706 150.72 169.255 150.585 168.835C150.473 168.545 150.382 168.248 150.313 167.944L150.346 168.203C150.337 168.103 150.337 168.002 150.346 167.902L150.311 168.161C150.311 168.1 150.335 168.044 150.349 167.983C150.381 167.833 150.221 168.222 150.349 168.022C150.477 167.821 150.216 168.156 150.324 168.047C150.362 168.005 150.409 167.969 150.447 167.927C150.309 168.033 150.279 168.058 150.357 168.002L150.43 167.955C150.52 167.902 150.675 167.88 150.4 167.955C150.513 167.919 150.627 167.888 150.743 167.863L150.49 167.897C150.636 167.877 150.784 167.877 150.931 167.897L150.675 167.86C150.821 167.887 150.965 167.926 151.105 167.977C151.23 168.022 151.058 167.947 151.031 167.944C151.066 167.956 151.1 167.972 151.132 167.991L151.352 168.117C151.48 168.195 151.605 168.281 151.727 168.373L151.909 168.512L151.85 168.465L151.961 168.554C152.145 168.727 152.383 168.826 152.633 168.832C152.884 168.833 153.126 168.733 153.307 168.554C153.622 168.203 153.723 167.512 153.307 167.175L153.304 167.164Z" fill="#151E4A"/>
<path d="M143.095 180.642C143.166 180.468 143.257 180.304 143.367 180.152L143.217 180.349C143.341 180.19 143.482 180.046 143.638 179.92L143.445 180.071C143.626 179.931 143.822 179.815 144.03 179.723L143.804 179.82C144.013 179.731 144.233 179.669 144.457 179.636L144.204 179.673C144.414 179.645 144.627 179.645 144.837 179.673L144.585 179.636C144.729 179.659 144.871 179.695 145.009 179.742C145.252 179.809 145.511 179.775 145.731 179.648C145.95 179.521 146.112 179.311 146.181 179.063C146.242 178.813 146.206 178.55 146.082 178.326C145.958 178.103 145.755 177.937 145.515 177.863C144.005 177.331 142.086 178.141 141.436 179.659C141.316 179.889 141.282 180.156 141.341 180.411C141.374 180.534 141.43 180.649 141.507 180.75C141.584 180.851 141.679 180.936 141.788 180.999C141.896 181.062 142.016 181.103 142.14 181.118C142.264 181.134 142.39 181.124 142.51 181.09C142.629 181.059 142.741 181.003 142.839 180.926C142.937 180.849 143.018 180.752 143.078 180.642H143.095Z" fill="#151E4A"/>
<path d="M121.16 171.26C120.534 170.303 119.669 169.533 118.655 169.033C118.071 168.711 117.415 168.554 116.752 168.576C116.398 168.593 116.054 168.698 115.75 168.883C115.445 169.068 115.19 169.327 115.007 169.637C114.831 169.949 114.737 170.302 114.735 170.662C114.741 171.1 114.904 171.521 115.191 171.845L115.866 170.174C115.67 170.174 115.474 170.152 115.281 170.127L115.534 170.161C114.098 169.952 112.815 169.222 111.382 168.944C110.592 168.766 109.773 168.78 108.989 168.985C108.136 169.236 107.255 169.874 107.072 170.82C106.83 172.082 107.866 173.363 109.161 173.048C109.403 172.979 109.609 172.814 109.733 172.589C109.857 172.365 109.89 172.1 109.824 171.851C109.753 171.604 109.592 171.396 109.374 171.269C109.156 171.141 108.898 171.106 108.655 171.169C108.627 171.177 108.599 171.182 108.571 171.185L108.823 171.152C108.768 171.157 108.713 171.157 108.658 171.152L108.91 171.185C108.87 171.177 108.83 171.166 108.791 171.152C108.791 171.152 109.022 171.26 108.908 171.196C108.794 171.132 109.071 171.364 108.965 171.244C108.942 171.216 108.917 171.189 108.891 171.163C108.832 171.11 109.014 171.372 108.949 171.233C108.932 171.199 108.914 171.167 108.894 171.135C108.842 171.04 108.965 171.366 108.935 171.219C108.935 171.174 108.913 171.13 108.905 171.085L108.94 171.344C108.934 171.269 108.934 171.193 108.94 171.118L108.908 171.377C108.923 171.299 108.942 171.222 108.965 171.146C108.91 171.375 108.9 171.294 108.965 171.202C108.984 171.166 109.074 171.043 108.965 171.177C108.856 171.311 108.965 171.191 108.984 171.177L109.071 171.088C109.207 170.963 109.011 171.116 109.011 171.13C109.049 171.095 109.091 171.066 109.136 171.043C109.207 170.998 109.281 170.957 109.356 170.921C109.498 170.843 109.182 170.985 109.291 170.946L109.408 170.904C109.59 170.845 109.776 170.801 109.965 170.773L109.713 170.809C110.084 170.758 110.461 170.758 110.833 170.809L110.58 170.776C111.442 170.939 112.287 171.187 113.103 171.517C113.992 171.863 114.927 172.069 115.877 172.126C116.063 172.124 116.244 172.066 116.399 171.96C116.553 171.854 116.674 171.703 116.747 171.528C116.817 171.349 116.836 171.154 116.801 170.965C116.766 170.775 116.678 170.601 116.548 170.461C116.747 170.701 116.632 170.556 116.584 170.484C116.652 170.656 116.668 170.695 116.641 170.601C116.633 170.575 116.627 170.549 116.624 170.523L116.657 170.782C116.647 170.698 116.647 170.614 116.657 170.531L116.624 170.79C116.632 170.733 116.644 170.678 116.66 170.623C116.719 170.422 116.622 170.687 116.624 170.692C116.627 170.698 116.7 170.556 116.711 170.542C116.793 170.4 116.535 170.717 116.684 170.584L116.73 170.536C116.801 170.472 116.771 170.495 116.638 170.606C116.682 170.582 116.725 170.555 116.766 170.525C116.823 170.497 116.787 170.525 116.662 170.567L116.771 170.531C116.845 170.512 116.919 170.497 116.994 170.486L116.741 170.523C116.894 170.506 117.048 170.506 117.201 170.523L116.948 170.489C117.114 170.512 117.277 170.55 117.437 170.601L117.658 170.681C117.723 170.706 117.848 170.784 117.611 170.662L117.712 170.706C117.99 170.84 118.257 170.997 118.509 171.177C118.568 171.219 118.623 171.266 118.685 171.308C118.655 171.288 118.522 171.174 118.62 171.258L118.704 171.327C118.821 171.428 118.936 171.536 119.044 171.645C119.153 171.753 119.256 171.873 119.354 171.993L119.425 172.079C119.528 172.207 119.324 171.937 119.392 172.035C119.46 172.132 119.487 172.168 119.534 172.238C119.665 172.457 119.874 172.616 120.116 172.681C120.359 172.746 120.617 172.712 120.836 172.586C121.052 172.454 121.208 172.24 121.271 171.991C121.335 171.743 121.301 171.478 121.176 171.255L121.16 171.26Z" fill="#151E4A"/>
<path d="M120.612 184.914L111.289 178.361C110.79 178.012 110.182 177.869 109.585 177.96C108.988 178.05 108.447 178.369 108.069 178.851C107.681 179.349 107.496 179.982 107.556 180.616C107.615 181.25 107.913 181.836 108.387 182.249L119.394 191.814L120.612 184.914Z" fill="#9A67FF"/>
<path d="M119.519 175.156C119.519 175.062 119.519 174.967 119.546 174.878L119.51 175.137C119.536 174.955 119.575 174.775 119.627 174.599C119.652 174.516 119.682 174.435 119.712 174.352C119.771 174.182 119.616 174.56 119.687 174.407L119.747 174.279C119.828 174.115 119.918 173.957 120.019 173.806C120.041 173.772 120.068 173.742 120.087 173.708C119.943 173.953 120.005 173.817 120.054 173.753C120.103 173.689 120.177 173.608 120.242 173.538C120.361 173.41 120.495 173.302 120.623 173.182C120.41 173.382 120.516 173.266 120.579 173.221L120.693 173.14C120.772 173.087 120.854 173.037 120.935 172.99C121.017 172.943 121.085 172.909 121.164 172.873C121.308 172.803 121.123 172.873 121.085 172.904C121.127 172.882 121.172 172.866 121.218 172.853C121.395 172.789 121.577 172.742 121.762 172.711C122.001 172.643 122.205 172.482 122.33 172.263C122.427 172.096 122.473 171.903 122.461 171.709C122.45 171.515 122.382 171.329 122.267 171.175C122.151 171.021 121.993 170.906 121.813 170.845C121.633 170.783 121.439 170.779 121.256 170.832C119.244 171.191 117.721 173.115 117.615 175.162C117.616 175.42 117.716 175.668 117.895 175.85C118.073 176.033 118.315 176.136 118.567 176.136C118.818 176.132 119.058 176.028 119.235 175.846C119.413 175.664 119.514 175.419 119.519 175.162V175.156Z" fill="#151E4A"/>
<path d="M101.986 210.178L104.189 213.113L109.882 220.701L111.93 223.427C123.994 221.105 134.101 218.49 141.839 216.251C155.162 212.403 160.783 209.877 165.177 204.835C165.302 204.69 165.427 204.556 165.549 204.397C167.981 201.45 169.828 198.045 170.987 194.373C171.218 193.654 171.409 192.98 171.566 192.362L154.871 196.637L101.986 210.178Z" fill="#FF7E5B"/>
<path d="M111.929 224.402C111.783 224.402 111.638 224.367 111.507 224.301C111.376 224.235 111.262 224.139 111.173 224.02L109.125 221.294L101.24 210.774C101.144 210.646 101.08 210.495 101.055 210.335C101.03 210.175 101.044 210.012 101.096 209.859C101.148 209.706 101.237 209.569 101.353 209.46C101.47 209.351 101.612 209.273 101.765 209.234L171.345 191.413C171.505 191.372 171.673 191.374 171.833 191.42C171.992 191.466 172.137 191.554 172.253 191.674C172.369 191.795 172.452 191.944 172.495 192.108C172.537 192.271 172.537 192.444 172.495 192.607C172.307 193.331 172.112 194 171.897 194.676C170.704 198.465 168.798 201.979 166.288 205.018C166.16 205.171 166.029 205.325 165.899 205.475C161.548 210.487 156.2 213.108 142.113 217.17C132.324 219.997 122.242 222.416 112.114 224.366C112.053 224.384 111.991 224.396 111.929 224.402ZM103.625 210.757L110.634 220.097L112.326 222.35C122.204 220.431 132.044 218.061 141.585 215.307C155.259 211.356 160.393 208.858 164.471 204.169C164.594 204.03 164.71 203.89 164.83 203.748C167.179 200.9 168.961 197.609 170.078 194.061C170.116 193.944 170.154 193.827 170.189 193.71L103.625 210.757Z" fill="#151E4A"/>
<path d="M109.882 220.701L111.93 223.427C123.994 221.105 134.101 218.49 141.839 216.251C155.162 212.403 160.783 209.877 165.177 204.834C147.41 212.314 128.851 217.64 109.877 220.706L109.882 220.701Z" fill="#151E4A"/>
<path d="M105.812 225.104C119.043 220.371 133.676 209.003 147.435 208.471C162.185 207.898 176.266 213.303 190.732 222.086" fill="white"/>
<path d="M101.074 245.075C100.96 244.997 100.846 244.927 100.732 244.86C100.666 244.81 100.611 244.746 100.571 244.672C100.531 244.598 100.506 244.517 100.498 244.433C100.491 244.349 100.501 244.264 100.528 244.184C100.554 244.104 100.597 244.031 100.653 243.969C101.107 243.574 101.486 243.096 101.771 242.56C102.096 241.96 102.331 241.312 102.467 240.639C102.521 240.36 102.565 240.082 102.594 239.803C102.641 239.397 102.972 239.333 103.138 239.692C103.443 240.329 103.833 240.919 104.297 241.446C104.733 241.933 105.25 242.337 105.825 242.638C105.942 242.699 106.061 242.755 106.181 242.805C106.253 242.845 106.316 242.901 106.367 242.968C106.417 243.034 106.452 243.111 106.471 243.193C106.49 243.275 106.492 243.361 106.477 243.443C106.461 243.526 106.429 243.605 106.382 243.674C105.531 244.684 104.935 245.892 104.647 247.194C104.582 247.472 104.528 247.751 104.484 248.029C104.484 248.113 104.455 248.195 104.402 248.259C104.35 248.324 104.277 248.368 104.196 248.383C104.115 248.399 104.031 248.385 103.959 248.344C103.888 248.304 103.832 248.238 103.802 248.16C103.154 246.918 102.217 245.858 101.074 245.075Z" fill="#151E4A"/>
<path d="M61.3557 229.759C60.9414 229.759 60.5385 229.62 60.2083 229.364C57.4675 227.237 54.1693 224.825 50.4878 223.06C48.8015 222.234 47.0426 221.574 45.2346 221.088H45.1993C44.5684 220.91 43.9023 220.782 43.2008 220.648L42.4938 220.509L41.0827 220.331H41.0364C40.6775 220.275 40.2833 220.256 39.8645 220.23H39.7286C39.4786 220.217 39.2338 220.152 39.0081 220.042C38.7823 219.931 38.5801 219.776 38.413 219.585C38.2458 219.394 38.117 219.171 38.0339 218.929C37.9508 218.688 37.915 218.431 37.9286 218.175C37.9422 217.919 38.0048 217.669 38.113 217.437C38.2212 217.206 38.3728 216.999 38.5591 216.828C38.7454 216.657 38.9629 216.525 39.199 216.44C39.4351 216.355 39.6853 216.318 39.9352 216.332H40.0685C40.547 216.36 41.0446 216.388 41.5694 216.466L43.0268 216.649L43.1627 216.672L43.9023 216.816C44.6473 216.959 45.4168 217.095 46.1999 217.326C48.2318 217.879 50.2089 218.625 52.1056 219.554C56.1053 221.47 59.6074 224.029 62.5086 226.279C62.8267 226.525 63.061 226.868 63.1784 227.259C63.2958 227.649 63.2904 228.068 63.163 228.455C63.0356 228.842 62.7925 229.179 62.4682 229.417C62.1439 229.655 61.7547 229.783 61.3557 229.782V229.759Z" fill="#9A67FF"/>
<path d="M112.839 243.07C112.4 243.07 111.974 242.915 111.634 242.631C111.294 242.347 111.06 241.952 110.972 241.511C110.884 241.071 110.948 240.613 111.151 240.215C111.355 239.817 111.687 239.504 112.091 239.327C115.457 237.854 118.666 236.033 122.445 233.758L123.753 232.967C126.719 231.163 129.789 229.3 132.957 227.677C133.181 227.562 133.424 227.494 133.673 227.476C133.923 227.459 134.173 227.491 134.41 227.572C134.647 227.654 134.866 227.782 135.055 227.95C135.244 228.118 135.398 228.322 135.51 228.551C135.622 228.78 135.688 229.029 135.705 229.285C135.723 229.54 135.691 229.797 135.612 230.039C135.533 230.282 135.407 230.507 135.243 230.7C135.079 230.893 134.88 231.051 134.656 231.166C131.611 232.72 128.604 234.546 125.683 236.314L124.37 237.111C120.46 239.472 117.129 241.36 113.576 242.917C113.342 243.017 113.092 243.069 112.839 243.07Z" fill="#FF7E5B"/>
<path d="M24.5402 222.436C24.0851 222.436 23.6449 222.27 23.2993 221.966C22.9538 221.663 22.7259 221.243 22.6568 220.782C22.5878 220.322 22.6822 219.851 22.9229 219.455C23.1637 219.06 23.5349 218.766 23.9692 218.626C26.5252 217.793 29.1394 217.16 31.7892 216.733C32.2873 216.657 32.7946 216.786 33.1998 217.093C33.6051 217.399 33.8752 217.857 33.9511 218.367C34.0271 218.877 33.9025 219.397 33.6048 219.813C33.3071 220.229 32.8605 220.507 32.3629 220.587C29.9057 220.984 27.4815 221.571 25.1112 222.344C24.9265 222.404 24.734 222.435 24.5402 222.436Z" fill="#151E4A"/>
<path d="M140.845 228.398C140.386 228.397 139.943 228.227 139.597 227.919C139.251 227.61 139.025 227.184 138.962 226.718C138.898 226.253 139.001 225.78 139.251 225.386C139.501 224.992 139.882 224.704 140.323 224.574L142.458 223.948C142.757 223.864 143.018 223.806 143.273 223.75L143.63 223.669H143.676L144.021 223.591C144.268 223.53 144.565 223.463 144.853 223.416L146.485 223.137H146.574L148.227 222.94C148.499 222.906 148.771 222.89 149.043 222.873L149.41 222.848C149.915 222.809 150.414 222.977 150.798 223.314C151.182 223.652 151.419 224.133 151.458 224.65C151.496 225.167 151.332 225.678 151.002 226.071C150.672 226.464 150.203 226.707 149.698 226.746L149.28 226.774C149.07 226.774 148.861 226.802 148.652 226.824L147.061 227.014L145.473 227.292C145.28 227.323 145.087 227.367 144.883 227.417L144.481 227.509L144.089 227.599C143.874 227.646 143.673 227.69 143.491 227.741L141.378 228.361C141.203 228.399 141.024 228.411 140.845 228.398Z" fill="#151E4A"/>
<path d="M93.808 246.358H93.6747C91.1067 246.177 88.5592 245.765 86.0615 245.128C85.5767 244.998 85.1615 244.677 84.9062 244.235C84.6508 243.794 84.5759 243.267 84.6976 242.769C84.8193 242.271 85.1279 241.842 85.5563 241.576C85.9847 241.31 86.4985 241.227 86.9859 241.346C89.268 241.926 91.5954 242.298 93.9412 242.46C94.1912 242.469 94.437 242.528 94.6646 242.634C94.8923 242.74 95.0973 242.891 95.2679 243.078C95.4386 243.265 95.5716 243.485 95.6594 243.725C95.7471 243.965 95.7878 244.22 95.7793 244.476C95.7707 244.732 95.713 244.984 95.6094 245.217C95.5059 245.45 95.3585 245.66 95.1757 245.835C94.9929 246.01 94.7782 246.146 94.544 246.236C94.3098 246.326 94.0606 246.367 93.8107 246.358H93.808Z" fill="#9A67FF"/>
<path d="M170.393 231.43C170.066 231.43 169.745 231.344 169.46 231.18C165.64 229 161.453 227.577 157.119 226.986C156.619 226.914 156.167 226.642 155.863 226.229C155.559 225.817 155.427 225.297 155.497 224.785C155.567 224.273 155.833 223.81 156.236 223.498C156.639 223.187 157.146 223.052 157.646 223.124C162.452 223.782 167.094 225.362 171.328 227.782C171.695 227.994 171.983 228.324 172.147 228.721C172.312 229.118 172.343 229.559 172.236 229.976C172.129 230.393 171.89 230.762 171.557 231.025C171.223 231.288 170.814 231.431 170.393 231.43Z" fill="#9A67FF"/>
<path d="M76.08 243.967C75.8707 243.966 75.6671 243.896 75.501 243.765C75.335 243.634 75.2155 243.451 75.1613 243.244C75.1071 243.037 75.1212 242.817 75.2012 242.619C75.2813 242.421 75.4229 242.255 75.6042 242.148C76.3003 241.736 77.029 241.277 77.7658 240.786C78.2444 240.469 78.7392 240.124 79.2423 239.753C78.8344 238.581 78.4565 237.278 78.0948 235.791C78.0648 235.666 78.0591 235.537 78.0778 235.411C78.0965 235.284 78.1395 235.162 78.2041 235.053C78.2687 234.943 78.3538 234.848 78.4545 234.772C78.5552 234.696 78.6695 234.641 78.7909 234.61C78.9123 234.579 79.0384 234.573 79.1621 234.593C79.2857 234.612 79.4044 234.656 79.5115 234.722C79.6185 234.788 79.7118 234.875 79.786 234.978C79.8602 235.081 79.9138 235.199 79.9438 235.323C80.2951 236.827 80.7392 238.307 81.2734 239.753C81.349 239.952 81.3588 240.17 81.3013 240.375C81.2438 240.58 81.1222 240.76 80.9552 240.887C80.2184 241.444 79.4924 241.964 78.8018 242.421C78.0405 242.931 77.2818 243.407 76.5559 243.838C76.4107 243.923 76.2468 243.967 76.08 243.967Z" fill="#151E4A"/>
<path d="M66.6296 238.514C66.3786 238.514 66.1378 238.413 65.9596 238.232C65.7813 238.051 65.6801 237.805 65.678 237.548C65.6616 235.685 65.697 233.856 65.7269 232.469C65.7323 232.255 65.8063 232.049 65.9375 231.882C66.0687 231.716 66.2498 231.598 66.4529 231.547C68.3562 231.068 69.868 230.659 71.2519 230.261C71.495 230.191 71.7553 230.222 71.9755 230.348C72.1958 230.475 72.3581 230.686 72.4266 230.935C72.4951 231.183 72.4642 231.45 72.3408 231.676C72.2174 231.901 72.0116 232.067 71.7686 232.138C70.5423 232.491 69.2072 232.85 67.6139 233.251C67.5894 234.502 67.5677 236.002 67.5813 237.52C67.5834 237.779 67.4853 238.028 67.3085 238.213C67.1316 238.397 66.8904 238.503 66.6378 238.506L66.6296 238.514Z" fill="#151E4A"/>
<path d="M72.8186 242.276H72.7234C72.4724 242.25 72.2416 242.123 72.0816 241.924C71.9216 241.724 71.8454 241.467 71.8697 241.21C72.18 238.123 72.6492 235.056 73.2754 232.021C73.334 231.775 73.4832 231.563 73.6917 231.428C73.9002 231.293 74.1516 231.246 74.393 231.298C74.6345 231.349 74.8471 231.494 74.986 231.703C75.125 231.911 75.1795 232.167 75.138 232.416C74.5297 235.384 74.0759 238.382 73.7784 241.399C73.7547 241.642 73.6429 241.867 73.4652 242.029C73.2875 242.191 73.0568 242.28 72.8186 242.276Z" fill="#151E4A"/>
<path d="M18.7783 222.644C19.1903 223.625 19.3141 224.707 19.1345 225.758C19.0568 226.186 18.8949 226.593 18.6586 226.955C18.4431 227.288 18.142 227.554 17.7885 227.724C17.0761 228.047 16.2414 227.93 15.4474 227.468C14.5568 226.913 13.8448 226.102 13.4 225.137C12.9221 224.185 12.7525 223.103 12.916 222.046C13.0846 221.11 13.5795 220.339 14.3598 219.985C14.7427 219.807 15.1654 219.738 15.5834 219.785C16.0262 219.84 16.4525 219.991 16.8342 220.227C17.7176 220.8 18.3989 221.647 18.7783 222.644Z" fill="#FF7E5B"/>
<path d="M1.13366 214.703C9.01885 211.456 16.7762 207.778 25.0231 205.609C32.6037 203.612 40.2904 203.3 47.8629 205.389C60.8245 208.958 71.861 217.295 84.2462 222.319C90.0813 224.686 96.3405 226.278 102.654 225.813C110.267 225.257 116.856 221.553 123.381 217.819C126.872 215.82 130.391 213.868 134.157 212.461C137.885 211.068 141.758 210.123 145.699 209.646C153.698 208.674 161.809 209.612 169.395 212.386C176.696 215.084 183.262 219.465 190.199 222.984C196.512 226.195 203.522 229.066 210.719 228.242C212.449 228.043 214.152 227.646 215.796 227.058C216.943 226.646 216.448 224.764 215.29 225.179C208.22 227.71 200.952 225.872 194.323 222.837C187.3 219.618 180.81 215.318 173.773 212.113C166.577 208.853 158.774 207.242 150.907 207.39C143.04 207.539 135.3 209.444 128.227 212.974C121.179 216.519 114.631 221.453 106.852 223.235C100.579 224.672 94.1571 223.753 88.1208 221.695C75.4502 217.379 64.5224 209.011 51.8762 204.603C44.9508 202.192 37.8215 201.384 30.5617 202.47C22.1626 203.726 14.2312 207.079 6.43849 210.384C4.50526 211.219 2.57475 212.027 0.633362 212.826C-0.486878 213.288 0.00254756 215.176 1.1391 214.706L1.13366 214.703Z" fill="#151E4A"/>
<path d="M329.743 25.3585C330.049 26.8362 330.505 28.2772 331.103 29.6579C336.166 41.2919 353.54 48.5151 362.994 37.9365C364.058 36.7447 364.792 35.1769 364.743 33.5647C364.656 30.6854 362.179 28.4521 359.598 27.3132C356.664 26.0184 353.345 25.6258 350.626 23.8186C348.662 22.4625 347.04 20.6495 345.892 18.5279C344.062 15.217 344.407 11.6527 343.279 8.18868C342.629 6.19212 340.769 4.45175 338.616 4.52415C334.415 4.66895 331.837 10.0042 330.543 13.4683C329.18 17.2737 328.903 21.3977 329.743 25.3585Z" fill="#9A67FF"/>
<path d="M352.76 35.032C351.767 35.032 350.777 34.9435 349.799 34.7675C345.645 34.0229 341.911 31.7182 339.327 28.304C336.744 24.8898 335.497 20.6117 335.83 16.306C336.163 12.0002 338.053 7.97659 341.129 5.02166C344.205 2.06673 348.247 0.393007 352.464 0.327725C352.619 0.323517 352.773 0.359285 352.912 0.431756C353.051 0.504228 353.17 0.611103 353.258 0.742634C353.347 0.872624 353.404 1.02311 353.423 1.18089C353.443 1.33868 353.424 1.49895 353.369 1.64762C352.5 3.99792 352.205 6.53028 352.511 9.0239C352.817 11.5175 353.714 13.8967 355.123 15.954C356.533 18.0112 358.412 19.6841 360.598 20.8268C362.784 21.9695 365.209 22.5473 367.663 22.5097C367.818 22.5065 367.972 22.5427 368.111 22.6151C368.249 22.6875 368.368 22.7938 368.457 22.9246C368.546 23.0549 368.602 23.2054 368.622 23.363C368.641 23.5207 368.623 23.6808 368.568 23.8296C367.35 27.1157 365.186 29.9457 362.364 31.9459C359.541 33.946 356.192 35.0221 352.76 35.032ZM351.129 2.36048C348.528 2.64742 346.046 3.62396 343.927 5.19367C341.808 6.76339 340.125 8.87199 339.045 11.3113C337.965 13.7505 337.525 16.4361 337.768 19.1028C338.012 21.7696 338.93 24.3252 340.432 26.5174C341.935 28.7096 343.97 30.4625 346.336 31.6032C348.702 32.7438 351.318 33.2326 353.925 33.0214C356.532 32.8101 359.041 31.9062 361.202 30.3987C363.364 28.8912 365.105 26.8324 366.252 24.4255C363.737 24.2461 361.292 23.494 359.097 22.2241C356.902 20.9542 355.011 19.1985 353.563 17.0851C352.115 14.9716 351.145 12.5538 350.726 10.0078C350.306 7.46189 350.446 4.8521 351.137 2.36883L351.129 2.36048Z" fill="#151E4A"/>
<path d="M121.374 71.661C121.569 71.7752 121.765 71.8838 121.964 71.9812C122.073 72.0356 122.165 72.1203 122.229 72.2257C122.293 72.331 122.328 72.4528 122.328 72.5771C122.328 72.7014 122.293 72.8232 122.229 72.9285C122.165 73.0339 122.073 73.1186 121.964 73.173C119.811 74.2496 118.105 76.0786 117.154 78.33C117.104 78.4464 117.023 78.5458 116.92 78.6162C116.816 78.6866 116.696 78.725 116.572 78.7267C116.448 78.7285 116.326 78.6936 116.221 78.6262C116.115 78.5587 116.032 78.4617 115.979 78.3467C115.109 76.4313 113.685 74.8362 111.9 73.7772C111.705 73.6631 111.509 73.5545 111.313 73.457C111.204 73.4026 111.112 73.3179 111.048 73.2125C110.983 73.1072 110.949 72.9854 110.949 72.8611C110.949 72.7368 110.983 72.6151 111.048 72.5097C111.112 72.4043 111.204 72.3196 111.313 72.2652C113.454 71.179 115.15 69.3523 116.101 67.1083C116.151 66.9918 116.232 66.8924 116.335 66.822C116.439 66.7516 116.559 66.7133 116.683 66.7115C116.807 66.7097 116.929 66.7446 117.034 66.8121C117.14 66.8795 117.223 66.9765 117.276 67.0916C118.151 69.0097 119.582 70.6052 121.374 71.661Z" fill="#151E4A"/>
<path d="M79.4902 68.7146C79.2377 68.7145 78.9904 68.6409 78.7771 68.5024C78.5638 68.3638 78.3934 68.1661 78.2857 67.9322C77.8545 66.985 77.1492 66.1966 76.2654 65.6739C76.1703 65.6182 76.0724 65.5653 75.9745 65.518C75.7507 65.4057 75.5622 65.2313 75.4303 65.0147C75.2984 64.7981 75.2285 64.548 75.2285 64.2928C75.2285 64.0376 75.2984 63.7875 75.4303 63.5709C75.5622 63.3543 75.7507 63.18 75.9745 63.0676C76.8623 62.6236 77.6 61.9176 78.0926 61.0405C78.1886 60.8727 78.274 60.6988 78.3482 60.5198C78.4509 60.2797 78.6187 60.0749 78.8318 59.9298C79.0449 59.7847 79.2942 59.7053 79.55 59.7012C79.8064 59.6964 80.0586 59.7681 80.2758 59.9075C80.4931 60.0469 80.666 60.2481 80.7736 60.4864C81.2041 61.4334 81.9097 62.2211 82.7938 62.7418C82.889 62.8003 82.9869 62.8532 83.0821 62.9005C83.3059 63.0129 83.4944 63.1872 83.6263 63.4038C83.7582 63.6204 83.8281 63.8705 83.8281 64.1257C83.8281 64.381 83.7582 64.6311 83.6263 64.8477C83.4944 65.0642 83.3059 65.2386 83.0821 65.3509C82.0196 65.882 81.1777 66.7847 80.7083 67.896C80.6063 68.1364 80.4386 68.3416 80.2254 68.4868C80.0122 68.6321 79.7626 68.7111 79.5065 68.7146H79.4902ZM77.6929 64.2956C78.3941 64.7904 78.9982 65.4157 79.4739 66.1389C79.9696 65.3427 80.6169 64.6571 81.3772 64.123C80.6761 63.6282 80.0719 63.0029 79.5963 62.2796C79.0999 63.0752 78.4526 63.7607 77.6929 64.2956Z" fill="#151E4A"/>
<path d="M90.2168 93.0605C89.9639 93.0601 89.7164 92.9861 89.5031 92.8471C89.2898 92.708 89.1196 92.5097 89.0122 92.2752C88.5818 91.3282 87.8762 90.5404 86.992 90.0196C86.8968 89.9612 86.799 89.9083 86.7011 89.8609C86.4773 89.7486 86.2887 89.5742 86.1569 89.3576C86.025 89.1411 85.9551 88.8909 85.9551 88.6357C85.9551 88.3804 86.025 88.1303 86.1569 87.9137C86.2887 87.6971 86.4773 87.5228 86.7011 87.4104C87.5884 86.9657 88.3259 86.2598 88.8192 85.3832C88.9135 85.2154 88.9989 85.0425 89.0748 84.8652C89.1764 84.6243 89.3438 84.4185 89.5569 84.2728C89.7701 84.127 90.0198 84.0474 90.276 84.0436C90.5323 84.0398 90.7841 84.1119 91.0013 84.2512C91.2185 84.3906 91.3917 84.5912 91.5001 84.829C91.9356 85.7757 92.6459 86.5615 93.534 87.0791C93.6319 87.1375 93.727 87.1904 93.8249 87.2406C94.0488 87.3524 94.2376 87.5265 94.3696 87.7429C94.5016 87.9592 94.5716 88.2093 94.5716 88.4644C94.5716 88.7196 94.5016 88.9696 94.3696 89.186C94.2376 89.4024 94.0488 89.5764 93.8249 89.6883C92.9378 90.1323 92.201 90.8385 91.7095 91.7155C91.6096 91.8829 91.5189 92.0558 91.4376 92.2335C91.3376 92.4762 91.1712 92.6842 90.9585 92.8324C90.7457 92.9806 90.4957 93.0627 90.2385 93.0688L90.2168 93.0605ZM88.4168 88.6385C89.1194 89.1324 89.7246 89.7578 90.2005 90.4819C90.6953 89.685 91.3428 88.9992 92.1038 88.4658C91.402 87.9718 90.7977 87.3463 90.3228 86.6224C89.8262 87.4187 89.1779 88.1044 88.4168 88.6385Z" fill="#151E4A"/>
<path d="M263.168 28.1208C262.333 28.1208 261.516 27.8672 260.822 27.392C260.128 26.9168 259.586 26.2414 259.267 25.4512C258.947 24.661 258.864 23.7915 259.026 22.9526C259.189 22.1137 259.592 21.3431 260.182 20.7383C260.773 20.1335 261.525 19.7216 262.344 19.5548C263.163 19.3879 264.012 19.4736 264.784 19.8009C265.556 20.1282 266.215 20.6825 266.679 21.3937C267.143 22.1048 267.391 22.9409 267.391 23.7963C267.389 24.9428 266.944 26.0419 266.152 26.8526C265.361 27.6633 264.287 28.1194 263.168 28.1208ZM263.168 21.4209C262.709 21.4209 262.261 21.5603 261.879 21.8213C261.498 22.0823 261.201 22.4532 261.025 22.8873C260.85 23.3213 260.804 23.7989 260.893 24.2597C260.983 24.7204 261.204 25.1437 261.528 25.4759C261.852 25.8081 262.266 26.0343 262.716 26.1259C263.165 26.2176 263.632 26.1706 264.056 25.9908C264.479 25.811 264.842 25.5065 265.096 25.1159C265.351 24.7253 265.487 24.2661 265.487 23.7963C265.487 23.1665 265.242 22.5628 264.807 22.1175C264.372 21.6722 263.783 21.4217 263.168 21.4209Z" fill="#151E4A"/>
<path d="M296.676 15.5454C295.841 15.5454 295.024 15.2918 294.33 14.8166C293.635 14.3414 293.094 13.666 292.775 12.8758C292.455 12.0857 292.371 11.2162 292.534 10.3773C292.697 9.53843 293.099 8.76788 293.69 8.16309C294.28 7.5583 295.033 7.14644 295.852 6.97958C296.671 6.81272 297.52 6.89835 298.292 7.22566C299.063 7.55297 299.723 8.10725 300.187 8.81841C300.651 9.52956 300.898 10.3656 300.898 11.2209C300.898 12.3676 300.453 13.4672 299.661 14.278C298.869 15.0888 297.795 15.5447 296.676 15.5454ZM296.676 8.84848C296.217 8.84848 295.768 8.98786 295.387 9.24898C295.005 9.5101 294.708 9.88123 294.533 10.3154C294.357 10.7496 294.311 11.2273 294.401 11.6882C294.491 12.149 294.712 12.5722 295.037 12.9043C295.361 13.2363 295.775 13.4623 296.225 13.5537C296.675 13.645 297.141 13.5976 297.565 13.4174C297.989 13.2372 298.351 12.9323 298.606 12.5413C298.86 12.1504 298.996 11.6908 298.995 11.2209C298.994 10.5915 298.75 9.98803 298.315 9.54319C297.88 9.09835 297.29 8.84848 296.676 8.84848Z" fill="#151E4A"/>
<path d="M68.2339 74.1876L65.9551 71.8538L63.6762 74.1876L65.9551 76.5214L68.2339 74.1876Z" fill="#151E4A"/>
<path d="M282.782 116.869L268.594 114.616L270.451 108.175H282.782V116.869Z" fill="#151E4A"/>
<path d="M295.062 116.869L309.718 114.104L308.851 108.175H295.062V116.869Z" fill="#151E4A"/>
<path d="M294.766 108.175H282.783V116.512H294.766V108.175Z" fill="#151E4A"/>
<path d="M199.299 216.627L232.253 202.841L267.832 221.968V241.257" fill="white"/>
<path d="M267.824 242.231C267.572 242.231 267.33 242.129 267.151 241.946C266.973 241.763 266.873 241.515 266.873 241.257V222.558L232.197 203.902L199.65 217.518C199.534 217.567 199.41 217.591 199.285 217.591C199.16 217.59 199.037 217.564 198.921 217.515C198.806 217.465 198.702 217.393 198.614 217.302C198.526 217.211 198.456 217.104 198.409 216.985C198.361 216.867 198.337 216.74 198.338 216.612C198.338 216.484 198.364 216.357 198.412 216.239C198.46 216.121 198.531 216.014 198.62 215.924C198.708 215.834 198.814 215.762 198.929 215.714L231.887 201.927C232.015 201.874 232.153 201.849 232.292 201.856C232.431 201.863 232.566 201.9 232.689 201.966L268.267 221.097C268.421 221.179 268.55 221.303 268.639 221.455C268.729 221.608 268.776 221.782 268.776 221.96V241.246C268.777 241.375 268.754 241.503 268.707 241.622C268.659 241.742 268.59 241.85 268.501 241.942C268.412 242.034 268.307 242.107 268.191 242.156C268.075 242.206 267.95 242.231 267.824 242.231Z" fill="#151E4A"/>
<path d="M219.055 235.766L244.682 227.771L256.161 245.208" fill="white"/>
<path d="M256.162 246.183C256.006 246.183 255.852 246.144 255.714 246.069C255.575 245.994 255.458 245.884 255.371 245.751L244.288 228.913L219.333 236.71C219.211 236.757 219.08 236.778 218.95 236.772C218.819 236.765 218.692 236.731 218.574 236.672C218.457 236.612 218.353 236.529 218.269 236.427C218.185 236.324 218.122 236.205 218.085 236.077C218.047 235.949 218.036 235.814 218.052 235.682C218.067 235.549 218.11 235.421 218.176 235.305C218.242 235.19 218.33 235.09 218.436 235.011C218.541 234.932 218.662 234.876 218.789 234.847L244.416 226.85C244.611 226.79 244.819 226.795 245.011 226.865C245.202 226.934 245.367 227.065 245.482 227.237L256.961 244.674C257.057 244.82 257.112 244.991 257.121 245.167C257.13 245.344 257.092 245.519 257.011 245.675C256.93 245.831 256.809 245.962 256.662 246.053C256.514 246.144 256.345 246.193 256.173 246.194L256.162 246.183Z" fill="#151E4A"/>
<path d="M386.038 227.771L365.001 202.362L310.846 217.58" fill="white"/>
<path d="M386.04 228.746C385.901 228.746 385.765 228.716 385.639 228.656C385.514 228.596 385.403 228.509 385.314 228.401L364.671 203.476L311.106 218.513C310.985 218.549 310.858 218.56 310.732 218.546C310.606 218.531 310.485 218.491 310.375 218.428C310.264 218.365 310.167 218.28 310.089 218.178C310.011 218.077 309.954 217.96 309.921 217.835C309.887 217.71 309.878 217.58 309.895 217.451C309.911 217.323 309.952 217.199 310.016 217.087C310.079 216.976 310.164 216.878 310.265 216.8C310.366 216.722 310.48 216.665 310.603 216.633L364.761 201.418C364.935 201.369 365.12 201.372 365.293 201.426C365.466 201.481 365.62 201.585 365.737 201.727L386.774 227.137C386.855 227.234 386.916 227.347 386.954 227.469C386.993 227.591 387.007 227.719 386.997 227.847C386.986 227.974 386.951 228.098 386.894 228.212C386.837 228.326 386.758 228.427 386.662 228.509C386.49 228.663 386.268 228.748 386.04 228.746Z" fill="#151E4A"/>
<path d="M305.531 220.255L357.954 217.173L357.217 236.239L305.531 220.255Z" fill="white"/>
<path d="M312.953 232.246L309.027 204.898L267.834 221.968" fill="white"/>
<path d="M312.962 233.22C312.733 233.221 312.512 233.136 312.339 232.983C312.166 232.829 312.053 232.617 312.021 232.385L308.269 206.263L268.198 222.87C267.965 222.962 267.707 222.956 267.478 222.854C267.249 222.752 267.069 222.562 266.975 222.325C266.882 222.088 266.883 221.823 266.979 221.587C267.074 221.351 267.256 221.163 267.486 221.063L308.679 203.993C308.813 203.938 308.957 203.914 309.1 203.924C309.244 203.934 309.384 203.977 309.509 204.05C309.634 204.123 309.741 204.225 309.822 204.347C309.903 204.468 309.956 204.608 309.976 204.754L313.903 232.101C313.922 232.229 313.916 232.36 313.885 232.486C313.854 232.612 313.799 232.73 313.723 232.833C313.647 232.937 313.552 233.024 313.443 233.09C313.333 233.155 313.212 233.198 313.087 233.215C313.045 233.22 313.004 233.222 312.962 233.22Z" fill="#151E4A"/>
<path d="M290.053 242.702L325.03 222.049L344.863 236.239" fill="white"/>
<path d="M290.054 243.677C289.843 243.678 289.639 243.608 289.472 243.477C289.304 243.346 289.184 243.162 289.13 242.954C289.076 242.746 289.09 242.526 289.171 242.327C289.252 242.128 289.395 241.963 289.578 241.856L324.555 221.202C324.713 221.111 324.892 221.066 325.073 221.075C325.254 221.083 325.429 221.144 325.578 221.25L345.408 235.451C345.518 235.521 345.613 235.613 345.688 235.721C345.763 235.83 345.815 235.953 345.841 236.083C345.867 236.213 345.868 236.347 345.842 236.477C345.816 236.607 345.764 236.731 345.69 236.839C345.615 236.948 345.52 237.041 345.41 237.11C345.3 237.18 345.177 237.226 345.049 237.246C344.92 237.265 344.789 237.258 344.664 237.223C344.539 237.189 344.422 237.129 344.32 237.047L324.985 223.21L290.529 243.546C290.384 243.63 290.22 243.675 290.054 243.677Z" fill="#151E4A"/>
<path d="M309.025 251.039L368.433 236.239L386.039 245.208L309.025 251.039Z" fill="#151E4A"/>
<path d="M309.026 252.014C308.793 252.014 308.568 251.926 308.394 251.768C308.22 251.61 308.109 251.392 308.081 251.155C308.053 250.919 308.111 250.68 308.244 250.484C308.376 250.288 308.574 250.149 308.8 250.092L368.208 235.292C368.427 235.239 368.657 235.265 368.858 235.368L386.464 244.334C386.651 244.429 386.803 244.584 386.896 244.776C386.988 244.968 387.017 245.185 386.977 245.395C386.936 245.605 386.83 245.796 386.673 245.938C386.517 246.08 386.319 246.165 386.11 246.18L309.096 252.011L309.026 252.014ZM368.32 237.272L320.448 249.198L382.507 244.498L368.32 237.272Z" fill="#151E4A"/>
<path d="M244.684 227.771L267.833 241.257L257.069 246.89L244.684 227.771Z" fill="#151E4A"/>
<path d="M257.072 247.865C256.915 247.865 256.76 247.825 256.621 247.749C256.483 247.672 256.365 247.562 256.278 247.428L243.898 228.309C243.777 228.126 243.719 227.906 243.735 227.686C243.751 227.465 243.84 227.257 243.987 227.095C244.134 226.933 244.331 226.827 244.544 226.794C244.758 226.762 244.976 226.805 245.163 226.916L268.313 240.399C268.462 240.486 268.585 240.613 268.67 240.766C268.755 240.919 268.797 241.093 268.793 241.269C268.79 241.444 268.739 241.616 268.648 241.765C268.557 241.914 268.428 242.035 268.275 242.115L257.494 247.751C257.364 247.821 257.219 247.86 257.072 247.865ZM247.686 230.639L257.393 245.626L265.822 241.21L247.686 230.639Z" fill="#151E4A"/>
<path d="M309.025 204.898L325.03 222.049L312.952 229.155L309.025 204.898Z" fill="#151E4A"/>
<path d="M312.959 230.13C312.818 230.13 312.679 230.098 312.551 230.038C312.41 229.972 312.287 229.872 312.192 229.746C312.097 229.62 312.034 229.473 312.007 229.317L308.081 205.058C308.045 204.851 308.076 204.638 308.168 204.45C308.26 204.263 308.409 204.111 308.592 204.017C308.776 203.923 308.984 203.893 309.186 203.93C309.387 203.966 309.572 204.069 309.712 204.222L325.716 221.372C325.817 221.479 325.892 221.607 325.936 221.748C325.98 221.889 325.993 222.038 325.972 222.184C325.952 222.331 325.899 222.47 325.818 222.593C325.737 222.715 325.63 222.817 325.504 222.89L313.424 229.999C313.282 230.083 313.122 230.128 312.959 230.13ZM310.476 207.853L313.674 227.624L323.511 221.835L310.476 207.853Z" fill="#151E4A"/>
<path d="M157.187 114.368C156.957 114.367 156.736 114.281 156.563 114.126C156.391 113.971 156.279 113.757 156.248 113.524C156.217 113.291 156.27 113.055 156.396 112.858C156.522 112.662 156.713 112.519 156.934 112.455L271.087 80.1175V69.3577L144.669 36.7137C144.424 36.6506 144.214 36.4904 144.084 36.2685C143.955 36.0465 143.916 35.781 143.978 35.5303C144.04 35.2795 144.196 35.0642 144.413 34.9315C144.63 34.7989 144.889 34.7598 145.134 34.823L272.259 67.6535C272.464 67.7073 272.646 67.8296 272.776 68.001C272.906 68.1724 272.977 68.3833 272.977 68.6003V80.8526C272.977 81.0657 272.908 81.2729 272.782 81.4424C272.656 81.6119 272.479 81.7344 272.278 81.791L157.432 114.321C157.352 114.347 157.27 114.363 157.187 114.368Z" fill="#151E4A"/>
<path d="M137.45 34.9763C137.372 34.9757 137.295 34.9654 137.219 34.9456L127.104 32.3336C126.983 32.3024 126.869 32.247 126.769 32.1706C126.668 32.0942 126.584 31.9983 126.52 31.8884C126.455 31.7785 126.413 31.6567 126.395 31.5301C126.377 31.4034 126.383 31.2743 126.414 31.1502C126.444 31.026 126.498 30.9092 126.573 30.8065C126.647 30.7038 126.741 30.6171 126.848 30.5514C126.956 30.4857 127.075 30.4423 127.198 30.4237C127.322 30.4051 127.448 30.4116 127.569 30.4428L137.684 33.0549C137.911 33.1116 138.109 33.2516 138.242 33.4484C138.374 33.6452 138.431 33.885 138.403 34.1222C138.374 34.3594 138.261 34.5775 138.085 34.735C137.91 34.8924 137.684 34.9783 137.45 34.9763Z" fill="#151E4A"/>
<g style="mix-blend-mode:multiply">
<path d="M316.62 144.823L260.584 144.203L265.524 125.248H311.824L316.62 144.823Z" fill="#FF7E5B"/>
</g>
<g style="mix-blend-mode:multiply">
<path d="M325.031 191.039V198.07L244.684 197.519L253.189 168.601H320.384L325.031 191.039Z" fill="#FF7E5B"/>
</g>
<path d="M267.548 174.878H262.434L264.44 164.199H269.555L267.548 174.878Z" fill="#151E4A"/>
<path d="M134.766 121.188C134.535 121.192 134.31 121.109 134.134 120.956C133.958 120.802 133.842 120.588 133.809 120.354C133.775 120.119 133.827 119.881 133.953 119.682C134.079 119.483 134.271 119.339 134.494 119.275L150.444 114.521C150.686 114.449 150.947 114.479 151.168 114.604C151.39 114.729 151.554 114.938 151.624 115.187C151.694 115.436 151.665 115.702 151.543 115.929C151.421 116.156 151.217 116.324 150.974 116.396L135.024 121.149C134.94 121.174 134.853 121.187 134.766 121.188Z" fill="#151E4A"/>
<path d="M175.086 93.275C174.833 93.2971 174.582 93.2157 174.389 93.0486C174.195 92.8815 174.074 92.6424 174.052 92.3839C174.031 92.1254 174.11 91.8687 174.273 91.6703C174.437 91.4718 174.67 91.3479 174.922 91.3258L271.861 73.9247C271.986 73.8974 272.115 73.8962 272.241 73.9212C272.367 73.9461 272.486 73.9968 272.592 74.07C272.698 74.1432 272.788 74.2376 272.858 74.3474C272.928 74.4573 272.975 74.5804 272.997 74.7094C273.019 74.8383 273.016 74.9705 272.987 75.0981C272.958 75.2257 272.904 75.346 272.829 75.4518C272.753 75.5576 272.658 75.6469 272.548 75.7141C272.439 75.7814 272.317 75.8253 272.19 75.8433L175.251 93.2583C175.197 93.2692 175.141 93.2748 175.086 93.275Z" fill="#151E4A"/>
<path d="M223.717 67.9351C223.669 67.9392 223.619 67.9392 223.571 67.9351L163.991 58.5593C163.868 58.5399 163.749 58.4958 163.642 58.4295C163.535 58.3631 163.442 58.2759 163.368 58.1727C163.294 58.0696 163.241 57.9525 163.211 57.8282C163.181 57.7038 163.176 57.5748 163.195 57.4482C163.213 57.3217 163.257 57.2002 163.321 57.0908C163.386 56.9813 163.471 56.8859 163.572 56.8102C163.673 56.7344 163.787 56.6797 163.908 56.6492C164.03 56.6187 164.156 56.6129 164.279 56.6323L223.862 65.997C224.114 66.0165 224.348 66.138 224.513 66.3346C224.678 66.5312 224.76 66.7869 224.741 67.0454C224.722 67.3039 224.603 67.544 224.411 67.7129C224.219 67.8819 223.97 67.9658 223.717 67.9462V67.9351Z" fill="#151E4A"/>
</svg>
