<svg width="100" height="88" viewBox="0 0 100 88" fill="none" xmlns="http://www.w3.org/2000/svg">
<path d="M78.2859 71.3616L19.7435 78.3409L0 7.63979L55.5481 0L78.2859 71.3616Z" fill="#FF7E5B"/>
<path d="M98.0736 78.4565L39.5312 85.4358L34.748 12.6817L85.8543 5.65283L98.0736 78.4565Z" fill="white"/>
<path d="M39.531 87.3621C39.0411 87.3657 38.5684 87.1809 38.2109 86.8459C37.8534 86.5109 37.6383 86.0514 37.61 85.5622L32.8214 12.808C32.7901 12.3231 32.9427 11.8442 33.2487 11.4668C33.5547 11.0893 33.9917 10.8411 34.4727 10.7715L85.5899 3.74266C86.0866 3.6742 86.5904 3.80206 86.9943 4.09908C87.3982 4.3961 87.6704 4.83888 87.7531 5.33337L99.9723 78.1591C100.016 78.4149 100.008 78.6769 99.9475 78.9293C99.8874 79.1818 99.7769 79.4195 99.6227 79.6282C99.4685 79.8369 99.2737 80.0123 99.05 80.1439C98.8264 80.2754 98.5784 80.3604 98.3211 80.3938L39.7567 87.3511C39.6818 87.3604 39.6064 87.364 39.531 87.3621ZM36.7789 14.3492L41.3143 83.2835L95.8332 76.7831L84.2744 7.81575L36.7789 14.3492Z" fill="#151E4A"/>
<path d="M49.538 46.411C51.6447 46.411 53.3524 44.7033 53.3524 42.5966C53.3524 40.49 51.6447 38.7822 49.538 38.7822C47.4314 38.7822 45.7236 40.49 45.7236 42.5966C45.7236 44.7033 47.4314 46.411 49.538 46.411Z" fill="#FF7E5B"/>
<path d="M50.9579 59.5165C53.0646 59.5165 54.7723 57.8087 54.7723 55.7021C54.7723 53.5955 53.0646 51.8877 50.9579 51.8877C48.8513 51.8877 47.1436 53.5955 47.1436 55.7021C47.1436 57.8087 48.8513 59.5165 50.9579 59.5165Z" fill="#FF7E5B"/>
<path d="M52.3779 72.6224C54.4845 72.6224 56.1923 70.9147 56.1923 68.808C56.1923 66.7014 54.4845 64.9937 52.3779 64.9937C50.2712 64.9937 48.5635 66.7014 48.5635 68.808C48.5635 70.9147 50.2712 72.6224 52.3779 72.6224Z" fill="#FF7E5B"/>
<path d="M57.4586 42.6189C56.9477 42.6561 56.4429 42.4889 56.0553 42.1539C55.6677 41.8189 55.4291 41.3437 55.3918 40.8328C55.3546 40.3219 55.5219 39.8171 55.8568 39.4295C56.1918 39.0419 56.667 38.8032 57.1779 38.766L77.5048 35.7277C77.7609 35.678 78.0243 35.6808 78.2792 35.7359C78.5341 35.7911 78.7752 35.8974 78.9877 36.0485C79.2003 36.1995 79.38 36.3922 79.516 36.6148C79.6519 36.8373 79.7412 37.0852 79.7785 37.3433C79.8158 37.6014 79.8003 37.8644 79.733 38.1164C79.6656 38.3683 79.5478 38.604 79.3867 38.8091C79.2256 39.0141 79.0245 39.1843 78.7956 39.3094C78.5667 39.4344 78.3149 39.5117 78.0553 39.5366L57.7228 42.5804C57.6355 42.5979 57.5473 42.6108 57.4586 42.6189Z" fill="#151E4A"/>
<path d="M44.7975 26.029C44.5445 26.0478 44.2903 26.0166 44.0494 25.9371C43.8085 25.8577 43.5856 25.7315 43.3934 25.5659C43.2012 25.4003 43.0436 25.1985 42.9294 24.972C42.8152 24.7454 42.7468 24.4986 42.728 24.2456C42.7092 23.9927 42.7404 23.7384 42.8198 23.4975C42.8993 23.2566 43.0254 23.0337 43.191 22.8415C43.3566 22.6493 43.5585 22.4917 43.785 22.3775C44.0115 22.2633 44.2583 22.1949 44.5113 22.1761L75.7971 17.4975C76.2897 17.4504 76.7815 17.5947 77.1707 17.9004C77.5598 18.2062 77.8163 18.6499 77.8871 19.1397C77.9579 19.6295 77.8375 20.1277 77.5508 20.5311C77.2642 20.9345 76.8333 21.2121 76.3475 21.3064L45.0838 26.007C44.9888 26.0196 44.8933 26.0269 44.7975 26.029Z" fill="#151E4A"/>
<path d="M59.3737 55.4102C58.8628 55.4482 58.3577 55.2816 57.9696 54.9472C57.5815 54.6127 57.3421 54.1378 57.3041 53.6269C57.2662 53.1159 57.4328 52.6109 57.7672 52.2227C58.1016 51.8346 58.5766 51.5953 59.0875 51.5573L84.5883 47.7429C85.0942 47.6699 85.6083 47.8009 86.0175 48.1069C86.4268 48.413 86.6978 48.8691 86.7707 49.3749C86.8437 49.8807 86.7128 50.3948 86.4067 50.8041C86.1007 51.2134 85.6446 51.4843 85.1388 51.5573L59.6379 55.3717C59.5506 55.389 59.4624 55.4019 59.3737 55.4102Z" fill="#151E4A"/>
<path d="M61.2838 68.1968C60.7729 68.2341 60.2681 68.0668 59.8805 67.7318C59.4929 67.3969 59.2542 66.9217 59.217 66.4107C59.1798 65.8998 59.3471 65.395 59.682 65.0074C60.017 64.6198 60.4922 64.3811 61.0031 64.3439L80.7411 61.3937C80.9971 61.344 81.2606 61.3468 81.5155 61.402C81.7704 61.4571 82.0114 61.5634 82.224 61.7145C82.4366 61.8656 82.6163 62.0582 82.7522 62.2808C82.8881 62.5034 82.9775 62.7512 83.0148 63.0093C83.0521 63.2674 83.0366 63.5304 82.9692 63.7824C82.9019 64.0343 82.784 64.27 82.6229 64.4751C82.4618 64.6801 82.2607 64.8504 82.0319 64.9754C81.803 65.1005 81.5511 65.1777 81.2915 65.2026L61.5535 68.1583C61.4644 68.1759 61.3744 68.1887 61.2838 68.1968Z" fill="#151E4A"/>
</svg>
